SeanSans-WideBold.ufo
<glyph name="exclam" format="1">
  <advance width="268"/>
  <unicode hex="0021"/>
  <outline>
    <contour>
      <point x="183" y="229" type="line"/>
      <point x="198" y="722" type="line"/>
      <point x="69" y="722" type="line"/>
      <point x="84" y="229" type="line"/>
    </contour>
    <contour>
      <point x="209" y="52" type="curve"/>
      <point x="209" y="94"/>
      <point x="177" y="113"/>
      <point x="133" y="113" type="curve"/>
      <point x="90" y="113"/>
      <point x="60" y="91"/>
      <point x="60" y="52" type="curve"/>
      <point x="204" y="52"/>
      <point x="65" y="52"/>
      <point x="209" y="52" type="curve"/>
      <point x="209" y="9"/>
      <point x="177" y="-9"/>
      <point x="133" y="-9" type="curve"/>
      <point x="89" y="-9"/>
      <point x="60" y="12"/>
      <point x="60" y="52" type="curve"/>
      <point x="204" y="52"/>
      <point x="65" y="52"/>
    </contour>
  </outline>
</glyph>
<glyph name="quotedbl" format="1">
  <advance width="470"/>
  <unicode hex="0022"/>
  <outline>
    <contour>
      <point x="180" y="612" type="line"/>
      <point x="188" y="835" type="line"/>
      <point x="48" y="835" type="line"/>
      <point x="56" y="612" type="line"/>
    </contour>
    <contour>
      <point x="414" y="612" type="line"/>
      <point x="422" y="835" type="line"/>
      <point x="281" y="835" type="line"/>
      <point x="290" y="612" type="line"/>
    </contour>
  </outline>
</glyph>
<glyph name="numbersign" format="1">
  <advance width="824"/>
  <unicode hex="0023"/>
  <outline>
    <contour>
      <point x="33" y="222" type="curve"/>
      <point x="669" y="222" type="curve"/>
      <point x="706" y="316" type="curve"/>
      <point x="72" y="316" type="curve"/>
    </contour>
    <contour>
      <point x="117" y="442" type="curve"/>
      <point x="758" y="442" type="curve"/>
      <point x="793" y="535" type="curve"/>
      <point x="154" y="535" type="curve"/>
    </contour>
    <contour>
      <point x="513" y="39" type="curve"/>
      <point x="785" y="722" type="curve"/>
      <point x="659" y="722" type="curve"/>
      <point x="387" y="39" type="curve"/>
    </contour>
    <contour>
      <point x="176" y="46" type="curve"/>
      <point x="445" y="722" type="curve"/>
      <point x="320" y="722" type="curve"/>
      <point x="56" y="46" type="curve"/>
    </contour>
  </outline>
</glyph>
<glyph name="dollar" format="1">
  <advance width="675"/>
  <unicode hex="0024"/>
  <outline>
    <contour>
      <point x="372" y="-40" type="curve"/>
      <point x="372" y="-9"/>
      <point x="372" y="59"/>
      <point x="372" y="90" type="curve"/>
      <point x="246" y="90"/>
      <point x="372" y="90"/>
      <point x="246" y="90" type="curve"/>
      <point x="246" y="59"/>
      <point x="246" y="-9"/>
      <point x="246" y="-40" type="curve"/>
      <point x="372" y="-40"/>
      <point x="246" y="-40"/>
    </contour>
    <contour>
      <point x="387" y="639" type="curve"/>
      <point x="387" y="670"/>
      <point x="387" y="743"/>
      <point x="387" y="773" type="curve"/>
      <point x="261" y="773"/>
      <point x="387" y="773"/>
      <point x="261" y="773" type="curve"/>
      <point x="261" y="743"/>
      <point x="261" y="670"/>
      <point x="261" y="639" type="curve"/>
      <point x="387" y="639"/>
      <point x="261" y="639"/>
    </contour>
    <contour>
      <point x="38" y="93" type="curve"/>
      <point x="113" y="66"/>
      <point x="203" y="43"/>
      <point x="303" y="43" type="curve"/>
      <point x="484" y="43"/>
      <point x="642" y="76"/>
      <point x="642" y="217" type="curve"/>
      <point x="642" y="341"/>
      <point x="504" y="373"/>
      <point x="365" y="416" type="curve"/>
      <point x="268" y="445"/>
      <point x="173" y="459"/>
      <point x="173" y="524" type="curve"/>
      <point x="173" y="583"/>
      <point x="246" y="594"/>
      <point x="328" y="594" type="curve"/>
      <point x="407" y="594"/>
      <point x="463" y="583"/>
      <point x="544" y="555" type="curve"/>
      <point x="597" y="635"/>
      <point x="544" y="555"/>
      <point x="597" y="635" type="curve"/>
      <point x="506" y="669"/>
      <point x="434" y="687"/>
      <point x="334" y="687" type="curve"/>
      <point x="176" y="687"/>
      <point x="46" y="649"/>
      <point x="46" y="524" type="curve"/>
      <point x="46" y="406"/>
      <point x="158" y="372"/>
      <point x="290" y="332" type="curve"/>
      <point x="395" y="300"/>
      <point x="515" y="288"/>
      <point x="515" y="212" type="curve"/>
      <point x="515" y="148"/>
      <point x="419" y="136"/>
      <point x="315" y="136" type="curve"/>
      <point x="236" y="136"/>
      <point x="165" y="156"/>
      <point x="94" y="179" type="curve"/>
      <point x="38" y="92"/>
      <point x="94" y="179"/>
    </contour>
  </outline>
</glyph>
<glyph name="percent" format="1">
  <advance width="1294"/>
  <unicode hex="0025"/>
  <outline>
    <contour>
      <point x="445" y="-46" type="line"/>
      <point x="980" y="716" type="line"/>
      <point x="864" y="716" type="line"/>
      <point x="330" y="-46" type="line"/>
    </contour>
    <contour>
      <point x="148" y="499" type="curve"/>
      <point x="148" y="578"/>
      <point x="196" y="627"/>
      <point x="275" y="627" type="curve"/>
      <point x="355" y="628"/>
      <point x="403" y="578"/>
      <point x="403" y="497" type="curve"/>
      <point x="403" y="418"/>
      <point x="359" y="366"/>
      <point x="282" y="366" type="curve"/>
      <point x="199" y="366"/>
      <point x="148" y="416"/>
      <point x="148" y="499" type="curve"/>
      <point x="104" y="499"/>
      <point x="74" y="499"/>
      <point x="29" y="499" type="curve"/>
      <point x="29" y="355"/>
      <point x="128" y="274"/>
      <point x="276" y="274" type="curve"/>
      <point x="426" y="274"/>
      <point x="527" y="355"/>
      <point x="527" y="502" type="curve"/>
      <point x="527" y="643"/>
      <point x="427" y="719"/>
      <point x="280" y="720" type="curve"/>
      <point x="131" y="720"/>
      <point x="29" y="642"/>
      <point x="29" y="499" type="curve"/>
      <point x="74" y="499"/>
      <point x="104" y="499"/>
    </contour>
    <contour>
      <point x="885" y="171" type="curve"/>
      <point x="885" y="250"/>
      <point x="933" y="300"/>
      <point x="1012" y="300" type="curve"/>
      <point x="1092" y="301"/>
      <point x="1140" y="251"/>
      <point x="1140" y="170" type="curve"/>
      <point x="1140" y="91"/>
      <point x="1096" y="39"/>
      <point x="1019" y="39" type="curve"/>
      <point x="936" y="39"/>
      <point x="885" y="89"/>
      <point x="885" y="171" type="curve"/>
      <point x="841" y="171"/>
      <point x="811" y="171"/>
      <point x="766" y="171" type="curve"/>
      <point x="766" y="28"/>
      <point x="865" y="-54"/>
      <point x="1013" y="-54" type="curve"/>
      <point x="1164" y="-54"/>
      <point x="1264" y="28"/>
      <point x="1264" y="175" type="curve"/>
      <point x="1264" y="316"/>
      <point x="1164" y="391"/>
      <point x="1017" y="392" type="curve"/>
      <point x="868" y="392"/>
      <point x="766" y="315"/>
      <point x="766" y="171" type="curve"/>
      <point x="811" y="171"/>
      <point x="841" y="171"/>
    </contour>
  </outline>
</glyph>
<glyph name="ampersand" format="1">
  <advance width="854"/>
  <unicode hex="0026"/>
  <outline>
    <contour>
      <point x="826" y="65" type="line"/>
      <point x="699" y="160"/>
      <point x="554" y="272"/>
      <point x="424" y="372" type="curve"/>
      <point x="353" y="429"/>
      <point x="259" y="462"/>
      <point x="259" y="554" type="curve"/>
      <point x="259" y="605"/>
      <point x="301" y="634"/>
      <point x="356" y="634" type="curve"/>
      <point x="420" y="634"/>
      <point x="473" y="613"/>
      <point x="473" y="556" type="curve"/>
      <point x="472" y="469"/>
      <point x="388" y="448"/>
      <point x="302" y="413" type="curve"/>
      <point x="176" y="360"/>
      <point x="49" y="327"/>
      <point x="49" y="196" type="curve"/>
      <point x="49" y="51"/>
      <point x="186" y="-5"/>
      <point x="349" y="-5" type="curve"/>
      <point x="569" y="-5"/>
      <point x="720" y="110"/>
      <point x="808" y="313" type="curve"/>
      <point x="699" y="337"/>
      <point x="808" y="313"/>
      <point x="699" y="337" type="curve"/>
      <point x="632" y="182"/>
      <point x="521" y="88"/>
      <point x="355" y="88" type="curve"/>
      <point x="258" y="88"/>
      <point x="175" y="111"/>
      <point x="175" y="196" type="curve"/>
      <point x="175" y="287"/>
      <point x="266" y="302"/>
      <point x="354" y="339" type="curve"/>
      <point x="477" y="391"/>
      <point x="597" y="428"/>
      <point x="598" y="556" type="curve"/>
      <point x="598" y="676"/>
      <point x="492" y="727"/>
      <point x="362" y="727" type="curve"/>
      <point x="234" y="727"/>
      <point x="135" y="671"/>
      <point x="135" y="554" type="curve"/>
      <point x="135" y="437"/>
      <point x="244" y="387"/>
      <point x="338" y="316" type="curve"/>
      <point x="467" y="215"/>
      <point x="636" y="86"/>
      <point x="761" y="-11" type="curve"/>
    </contour>
  </outline>
</glyph>
<glyph name="quotesingle" format="1">
  <advance width="236"/>
  <unicode hex="0027"/>
  <outline>
    <contour>
      <point x="180" y="612" type="line"/>
      <point x="188" y="835" type="line"/>
      <point x="48" y="835" type="line"/>
      <point x="56" y="612" type="line"/>
    </contour>
  </outline>
</glyph>
<glyph name="parenleft" format="1">
  <advance width="444"/>
  <unicode hex="0028"/>
  <outline>
    <contour>
      <point x="443" y="-210" type="curve"/>
      <point x="259" y="-65"/>
      <point x="163" y="91"/>
      <point x="163" y="326" type="curve"/>
      <point x="163" y="562"/>
      <point x="259" y="716"/>
      <point x="441" y="866" type="curve"/>
      <point x="367" y="926"/>
      <point x="441" y="866"/>
      <point x="367" y="926" type="curve"/>
      <point x="157" y="760"/>
      <point x="39" y="594"/>
      <point x="39" y="326" type="curve"/>
      <point x="39" y="58"/>
      <point x="157" y="-109"/>
      <point x="368" y="-276" type="curve"/>
      <point x="443" y="-210"/>
      <point x="368" y="-276"/>
    </contour>
  </outline>
</glyph>
<glyph name="parenright" format="1">
  <advance width="459"/>
  <unicode hex="0029"/>
  <outline>
    <contour>
      <point x="74" y="-290" type="curve"/>
      <point x="289" y="-115"/>
      <point x="420" y="51"/>
      <point x="420" y="329" type="curve"/>
      <point x="420" y="599"/>
      <point x="296" y="764"/>
      <point x="79" y="928" type="curve"/>
      <point x="4" y="862"/>
      <point x="79" y="928"/>
      <point x="4" y="862" type="curve"/>
      <point x="193" y="715"/>
      <point x="296" y="563"/>
      <point x="296" y="324" type="curve"/>
      <point x="296" y="81"/>
      <point x="183" y="-71"/>
      <point x="-1" y="-229" type="curve"/>
      <point x="74" y="-290"/>
      <point x="-1" y="-229"/>
    </contour>
  </outline>
</glyph>
<glyph name="asterisk" format="1">
  <advance width="582"/>
  <unicode hex="002A"/>
  <outline>
    <contour>
      <point x="333" y="604" type="line"/>
      <point x="339" y="827" type="line"/>
      <point x="238" y="827" type="line"/>
      <point x="244" y="604" type="line"/>
    </contour>
    <contour>
      <point x="324" y="551" type="line"/>
      <point x="536" y="619" type="line"/>
      <point x="502" y="715" type="line"/>
      <point x="293" y="634" type="line"/>
    </contour>
    <contour>
      <point x="269" y="542" type="line"/>
      <point x="406" y="366" type="line"/>
      <point x="483" y="430" type="line"/>
      <point x="337" y="599" type="line"/>
    </contour>
    <contour>
      <point x="247" y="597" type="line"/>
      <point x="101" y="428" type="line"/>
      <point x="179" y="364" type="line"/>
      <point x="315" y="540" type="line"/>
    </contour>
    <contour>
      <point x="287" y="631" type="line"/>
      <point x="79" y="711" type="line"/>
      <point x="45" y="616" type="line"/>
      <point x="257" y="547" type="line"/>
    </contour>
  </outline>
</glyph>
<glyph name="plus" format="1">
  <advance width="673"/>
  <unicode hex="002B"/>
  <outline>
    <contour>
      <point x="36" y="261" type="curve"/>
      <point x="637" y="261" type="line"/>
      <point x="637" y="363"/>
      <point x="637" y="261"/>
      <point x="637" y="363" type="curve"/>
      <point x="36" y="363" type="line"/>
      <point x="36" y="261"/>
      <point x="36" y="363"/>
    </contour>
    <contour>
      <point x="397" y="21" type="curve"/>
      <point x="397" y="587" type="line"/>
      <point x="272" y="587"/>
      <point x="405" y="587"/>
      <point x="279" y="587" type="curve"/>
      <point x="279" y="21" type="line"/>
      <point x="405" y="21"/>
      <point x="272" y="21"/>
    </contour>
  </outline>
</glyph>
<glyph name="comma" format="1">
  <advance width="230"/>
  <unicode hex="002C"/>
  <outline>
    <contour>
      <point x="16" y="-122" type="line"/>
      <point x="115" y="-116"/>
      <point x="186" y="-51"/>
      <point x="186" y="45" type="curve"/>
      <point x="186" y="112"/>
      <point x="152" y="164"/>
      <point x="97" y="164" type="curve"/>
      <point x="55" y="164"/>
      <point x="23" y="143"/>
      <point x="23" y="103" type="curve"/>
      <point x="23" y="62"/>
      <point x="55" y="41"/>
      <point x="100" y="39" type="curve"/>
      <point x="98" y="-2"/>
      <point x="81" y="-42"/>
      <point x="12" y="-56" type="curve"/>
    </contour>
  </outline>
</glyph>
<glyph name="hyphen" format="1">
  <advance width="485"/>
  <unicode hex="002D"/>
  <outline>
    <contour>
      <point x="60" y="230" type="curve"/>
      <point x="181" y="230"/>
      <point x="304" y="230"/>
      <point x="425" y="230" type="curve"/>
      <point x="425" y="333"/>
      <point x="425" y="230"/>
      <point x="425" y="333" type="curve"/>
      <point x="304" y="333"/>
      <point x="181" y="333"/>
      <point x="60" y="333" type="curve"/>
      <point x="60" y="230"/>
      <point x="60" y="333"/>
    </contour>
  </outline>
</glyph>
<glyph name="period" format="1">
  <advance width="252"/>
  <unicode hex="002E"/>
  <outline>
    <contour>
      <point x="200" y="52" type="curve"/>
      <point x="200" y="94"/>
      <point x="168" y="113"/>
      <point x="125" y="113" type="curve"/>
      <point x="81" y="113"/>
      <point x="51" y="91"/>
      <point x="51" y="52" type="curve"/>
      <point x="195" y="52"/>
      <point x="57" y="52"/>
      <point x="200" y="52" type="curve"/>
      <point x="200" y="9"/>
      <point x="168" y="-9"/>
      <point x="124" y="-9" type="curve"/>
      <point x="80" y="-9"/>
      <point x="51" y="12"/>
      <point x="51" y="52" type="curve"/>
      <point x="195" y="52"/>
      <point x="57" y="52"/>
    </contour>
  </outline>
</glyph>
<glyph name="slash" format="1">
  <advance width="703"/>
  <unicode hex="002F"/>
  <outline>
    <contour>
      <point x="147" y="-23" type="curve"/>
      <point x="325" y="249"/>
      <point x="504" y="521"/>
      <point x="682" y="793" type="curve"/>
      <point x="556" y="793"/>
      <point x="682" y="793"/>
      <point x="556" y="793" type="curve"/>
      <point x="377" y="521"/>
      <point x="199" y="249"/>
      <point x="21" y="-23" type="curve"/>
      <point x="147" y="-23"/>
      <point x="21" y="-23"/>
    </contour>
  </outline>
</glyph>
<glyph name="zero" format="1">
  <advance width="874"/>
  <unicode hex="0030"/>
  <outline>
    <contour>
      <point x="176" y="360" type="curve"/>
      <point x="176" y="529"/>
      <point x="272" y="629"/>
      <point x="434" y="629" type="curve"/>
      <point x="597" y="629"/>
      <point x="698" y="532"/>
      <point x="698" y="363" type="curve"/>
      <point x="698" y="194"/>
      <point x="603" y="94"/>
      <point x="445" y="94" type="curve"/>
      <point x="279" y="94"/>
      <point x="176" y="190"/>
      <point x="176" y="360" type="curve"/>
      <point x="48" y="360"/>
      <point x="176" y="360"/>
      <point x="48" y="360" type="curve"/>
      <point x="48" y="125"/>
      <point x="201" y="-5"/>
      <point x="439" y="-5" type="curve"/>
      <point x="676" y="-5"/>
      <point x="827" y="126"/>
      <point x="827" y="363" type="curve"/>
      <point x="827" y="597"/>
      <point x="679" y="727"/>
      <point x="446" y="727" type="curve"/>
      <point x="204" y="727"/>
      <point x="48" y="598"/>
      <point x="48" y="360" type="curve"/>
      <point x="176" y="360"/>
      <point x="48" y="360"/>
    </contour>
  </outline>
</glyph>
<glyph name="one" format="1">
  <advance width="441"/>
  <unicode hex="0031"/>
  <outline>
    <contour>
      <point x="67" y="474" type="curve"/>
      <point x="342" y="659"/>
      <point x="67" y="474"/>
      <point x="342" y="659" type="curve"/>
      <point x="249" y="722"/>
      <point x="342" y="659"/>
      <point x="249" y="722" type="curve"/>
      <point x="11" y="566"/>
      <point x="249" y="722"/>
      <point x="11" y="566" type="curve"/>
      <point x="67" y="474"/>
      <point x="11" y="566"/>
    </contour>
    <contour>
      <point x="374" y="0" type="curve"/>
      <point x="374" y="241"/>
      <point x="374" y="481"/>
      <point x="374" y="722" type="curve"/>
      <point x="249" y="722"/>
      <point x="374" y="722"/>
      <point x="249" y="722" type="curve"/>
      <point x="249" y="481"/>
      <point x="249" y="241"/>
      <point x="249" y="0" type="curve"/>
      <point x="374" y="0"/>
      <point x="249" y="0"/>
    </contour>
  </outline>
</glyph>
<glyph name="two" format="1">
  <advance width="706"/>
  <unicode hex="0032"/>
  <outline>
    <contour>
      <point x="37" y="0" type="curve"/>
      <point x="280" y="0"/>
      <point x="480" y="0"/>
      <point x="666" y="0" type="curve"/>
      <point x="666" y="93"/>
      <point x="666" y="0"/>
      <point x="666" y="93" type="curve"/>
      <point x="459" y="93"/>
      <point x="243" y="93"/>
      <point x="37" y="93" type="curve"/>
      <point x="37" y="0"/>
      <point x="37" y="93"/>
    </contour>
    <contour>
      <point x="132" y="518" type="curve"/>
      <point x="199" y="592"/>
      <point x="256" y="629"/>
      <point x="344" y="629" type="curve"/>
      <point x="439" y="629"/>
      <point x="509" y="597"/>
      <point x="509" y="507" type="curve"/>
      <point x="509" y="401"/>
      <point x="416" y="344"/>
      <point x="315" y="279" type="curve"/>
      <point x="222" y="216"/>
      <point x="130" y="155"/>
      <point x="37" y="93" type="curve"/>
      <point x="39" y="0"/>
      <point x="37" y="93"/>
      <point x="39" y="0" type="curve"/>
      <point x="199" y="68"/>
      <point x="294" y="137"/>
      <point x="395" y="205" type="curve"/>
      <point x="525" y="287"/>
      <point x="626" y="357"/>
      <point x="626" y="512" type="curve"/>
      <point x="626" y="664"/>
      <point x="513" y="727"/>
      <point x="350" y="727" type="curve"/>
      <point x="219" y="727"/>
      <point x="120" y="680"/>
      <point x="49" y="576" type="curve"/>
      <point x="132" y="518"/>
      <point x="49" y="576"/>
    </contour>
  </outline>
</glyph>
<glyph name="three" format="1">
  <advance width="653"/>
  <unicode hex="0033"/>
  <outline>
    <contour>
      <point x="37" y="54" type="curve"/>
      <point x="97" y="20"/>
      <point x="182" y="-5"/>
      <point x="280" y="-5" type="curve"/>
      <point x="466" y="-5"/>
      <point x="608" y="42"/>
      <point x="608" y="218" type="curve"/>
      <point x="608" y="368"/>
      <point x="423" y="413"/>
      <point x="181" y="413" type="curve"/>
      <point x="181" y="334"/>
      <point x="181" y="413"/>
      <point x="181" y="334" type="curve"/>
      <point x="331" y="334"/>
      <point x="487" y="311"/>
      <point x="487" y="214" type="curve"/>
      <point x="487" y="106"/>
      <point x="384" y="93"/>
      <point x="283" y="93" type="curve"/>
      <point x="227" y="93"/>
      <point x="160" y="107"/>
      <point x="91" y="136" type="curve"/>
      <point x="37" y="54"/>
      <point x="91" y="136"/>
    </contour>
    <contour>
      <point x="101" y="570" type="curve"/>
      <point x="142" y="602"/>
      <point x="210" y="629"/>
      <point x="276" y="629" type="curve"/>
      <point x="371" y="629"/>
      <point x="446" y="614"/>
      <point x="446" y="530" type="curve"/>
      <point x="446" y="443"/>
      <point x="314" y="422"/>
      <point x="181" y="422" type="curve"/>
      <point x="181" y="343"/>
      <point x="181" y="421"/>
      <point x="181" y="343" type="curve"/>
      <point x="390" y="343"/>
      <point x="566" y="387"/>
      <point x="566" y="535" type="curve"/>
      <point x="566" y="679"/>
      <point x="444" y="727"/>
      <point x="285" y="727" type="curve"/>
      <point x="182" y="727"/>
      <point x="87" y="688"/>
      <point x="38" y="642" type="curve"/>
      <point x="101" y="570"/>
      <point x="38" y="642"/>
    </contour>
  </outline>
</glyph>
<glyph name="four" format="1">
  <advance width="732"/>
  <unicode hex="0034"/>
  <outline>
    <contour>
      <point x="59" y="243" type="line"/>
      <point x="486" y="662" type="line"/>
      <point x="389" y="702" type="line"/>
      <point x="13" y="336" type="line"/>
    </contour>
    <contour>
      <point x="699" y="336" type="line"/>
      <point x="13" y="336" type="line"/>
      <point x="13" y="233" type="line"/>
      <point x="699" y="233" type="line"/>
    </contour>
    <contour>
      <point x="515" y="0" type="line"/>
      <point x="515" y="702" type="line"/>
      <point x="390" y="702" type="line"/>
      <point x="390" y="0" type="line"/>
    </contour>
  </outline>
</glyph>
<glyph name="five" format="1">
  <advance width="653"/>
  <unicode hex="0035"/>
  <outline>
    <contour>
      <point x="85" y="722" type="curve"/>
      <point x="85" y="626"/>
      <point x="85" y="513"/>
      <point x="85" y="378" type="curve"/>
      <point x="205" y="350"/>
      <point x="85" y="378"/>
      <point x="205" y="350" type="curve"/>
      <point x="205" y="438"/>
      <point x="205" y="541"/>
      <point x="205" y="629" type="curve"/>
      <point x="85" y="722"/>
      <point x="205" y="629"/>
    </contour>
    <contour>
      <point x="205" y="350" type="curve"/>
      <point x="230" y="367"/>
      <point x="282" y="377"/>
      <point x="313" y="377" type="curve"/>
      <point x="419" y="377"/>
      <point x="488" y="333"/>
      <point x="488" y="238" type="curve"/>
      <point x="488" y="142"/>
      <point x="398" y="93"/>
      <point x="291" y="93" type="curve"/>
      <point x="223" y="93"/>
      <point x="168" y="102"/>
      <point x="97" y="128" type="curve"/>
      <point x="42" y="43"/>
      <point x="97" y="128"/>
      <point x="42" y="43" type="curve"/>
      <point x="123" y="11"/>
      <point x="197" y="-5"/>
      <point x="286" y="-5" type="curve"/>
      <point x="464" y="-5"/>
      <point x="614" y="75"/>
      <point x="614" y="238" type="curve"/>
      <point x="614" y="394"/>
      <point x="489" y="476"/>
      <point x="319" y="476" type="curve"/>
      <point x="243" y="476"/>
      <point x="146" y="450"/>
      <point x="88" y="381" type="curve"/>
      <point x="205" y="351"/>
      <point x="87" y="380"/>
    </contour>
    <contour>
      <point x="577" y="722" type="curve"/>
      <point x="400" y="722"/>
      <point x="242" y="722"/>
      <point x="85" y="722" type="curve"/>
      <point x="205" y="629"/>
      <point x="85" y="722"/>
      <point x="205" y="629" type="curve"/>
      <point x="323" y="629"/>
      <point x="440" y="629"/>
      <point x="577" y="629" type="curve"/>
      <point x="577" y="722"/>
      <point x="577" y="629"/>
    </contour>
  </outline>
</glyph>
<glyph name="six" format="1">
  <advance width="720"/>
  <unicode hex="0036"/>
  <outline>
    <contour>
      <point x="146" y="224" type="curve"/>
      <point x="196" y="313"/>
      <point x="276" y="345"/>
      <point x="381" y="345" type="curve"/>
      <point x="480" y="345"/>
      <point x="553" y="312"/>
      <point x="553" y="221" type="curve"/>
      <point x="553" y="131"/>
      <point x="478" y="99"/>
      <point x="381" y="99" type="curve"/>
      <point x="256" y="99"/>
      <point x="164" y="146"/>
      <point x="164" y="256" type="curve"/>
      <point x="164" y="504"/>
      <point x="394" y="577"/>
      <point x="656" y="636" type="curve"/>
      <point x="628" y="729"/>
      <point x="656" y="636"/>
      <point x="628" y="729" type="curve"/>
      <point x="331" y="671"/>
      <point x="43" y="561"/>
      <point x="43" y="252" type="curve"/>
      <point x="43" y="73"/>
      <point x="183" y="-10"/>
      <point x="375" y="-10" type="curve"/>
      <point x="551" y="-10"/>
      <point x="680" y="61"/>
      <point x="680" y="221" type="curve"/>
      <point x="680" y="378"/>
      <point x="556" y="443"/>
      <point x="390" y="443" type="curve"/>
      <point x="244" y="443"/>
      <point x="132" y="369"/>
      <point x="62" y="269" type="curve"/>
      <point x="146" y="224"/>
      <point x="62" y="269"/>
    </contour>
  </outline>
</glyph>
<glyph name="seven" format="1">
  <advance width="650"/>
  <unicode hex="0037"/>
  <outline>
    <contour>
      <point x="28" y="629" type="curve"/>
      <point x="634" y="629" type="curve"/>
      <point x="634" y="722" type="curve"/>
      <point x="28" y="722" type="curve"/>
    </contour>
    <contour>
      <point x="558" y="722" type="curve"/>
      <point x="64" y="0" type="curve"/>
      <point x="209" y="0" type="curve"/>
      <point x="634" y="629" type="curve"/>
    </contour>
  </outline>
</glyph>
<glyph name="eight" format="1">
  <advance width="704"/>
  <unicode hex="0038"/>
  <outline>
    <contour>
      <point x="72" y="541" type="curve"/>
      <point x="72" y="411"/>
      <point x="187" y="391"/>
      <point x="316" y="346" type="curve"/>
      <point x="427" y="306"/>
      <point x="530" y="295"/>
      <point x="530" y="190" type="curve"/>
      <point x="530" y="109"/>
      <point x="452" y="90"/>
      <point x="352" y="90" type="curve"/>
      <point x="251" y="90"/>
      <point x="174" y="109"/>
      <point x="174" y="190" type="curve"/>
      <point x="174" y="297"/>
      <point x="281" y="306"/>
      <point x="393" y="347" type="curve"/>
      <point x="518" y="394"/>
      <point x="632" y="412"/>
      <point x="632" y="540" type="curve"/>
      <point x="632" y="684"/>
      <point x="516" y="727"/>
      <point x="352" y="727" type="curve"/>
      <point x="192" y="727"/>
      <point x="72" y="682"/>
      <point x="72" y="541" type="curve"/>
      <point x="198" y="541"/>
      <point x="72" y="541"/>
      <point x="198" y="541" type="curve"/>
      <point x="198" y="611"/>
      <point x="263" y="632"/>
      <point x="346" y="632" type="curve"/>
      <point x="438" y="632"/>
      <point x="507" y="615"/>
      <point x="507" y="540" type="curve"/>
      <point x="507" y="448"/>
      <point x="411" y="444"/>
      <point x="314" y="410" type="curve"/>
      <point x="172" y="359"/>
      <point x="48" y="333"/>
      <point x="48" y="190" type="curve"/>
      <point x="48" y="39"/>
      <point x="175" y="-5"/>
      <point x="346" y="-5" type="curve"/>
      <point x="521" y="-5"/>
      <point x="656" y="34"/>
      <point x="656" y="190" type="curve"/>
      <point x="656" y="331"/>
      <point x="532" y="359"/>
      <point x="393" y="410" type="curve"/>
      <point x="295" y="447"/>
      <point x="198" y="450"/>
      <point x="198" y="541" type="curve"/>
      <point x="72" y="541"/>
      <point x="198" y="541"/>
    </contour>
  </outline>
</glyph>
<glyph name="nine" format="1">
  <advance width="720"/>
  <unicode hex="0039"/>
  <outline>
    <contour>
      <point x="574" y="495" type="curve"/>
      <point x="523" y="408"/>
      <point x="452" y="377"/>
      <point x="350" y="377" type="curve"/>
      <point x="245" y="377"/>
      <point x="165" y="411"/>
      <point x="165" y="506" type="curve"/>
      <point x="165" y="592"/>
      <point x="241" y="622"/>
      <point x="338" y="622" type="curve"/>
      <point x="462" y="622"/>
      <point x="555" y="579"/>
      <point x="555" y="466" type="curve"/>
      <point x="555" y="219"/>
      <point x="333" y="144"/>
      <point x="65" y="90" type="curve"/>
      <point x="93" y="-8"/>
      <point x="64" y="90"/>
      <point x="92" y="-8" type="curve"/>
      <point x="410" y="42"/>
      <point x="675" y="161"/>
      <point x="675" y="470" type="curve"/>
      <point x="675" y="649"/>
      <point x="536" y="732"/>
      <point x="343" y="732" type="curve"/>
      <point x="167" y="732"/>
      <point x="40" y="661"/>
      <point x="40" y="501" type="curve"/>
      <point x="40" y="344"/>
      <point x="167" y="279"/>
      <point x="339" y="279" type="curve"/>
      <point x="485" y="279"/>
      <point x="577" y="338"/>
      <point x="635" y="464" type="curve"/>
      <point x="574" y="495"/>
      <point x="635" y="464"/>
    </contour>
  </outline>
</glyph>
<glyph name="colon" format="1">
  <advance width="267"/>
  <unicode hex="003A"/>
  <outline>
    <contour>
      <point x="207" y="388" type="curve"/>
      <point x="207" y="430"/>
      <point x="175" y="450"/>
      <point x="131" y="450" type="curve"/>
      <point x="88" y="450"/>
      <point x="58" y="428"/>
      <point x="58" y="388" type="curve"/>
      <point x="202" y="388"/>
      <point x="63" y="388"/>
      <point x="207" y="388" type="curve"/>
      <point x="207" y="346"/>
      <point x="175" y="328"/>
      <point x="131" y="328" type="curve"/>
      <point x="87" y="328"/>
      <point x="58" y="348"/>
      <point x="58" y="388" type="curve"/>
      <point x="202" y="388"/>
      <point x="63" y="388"/>
    </contour>
    <contour>
      <point x="206" y="52" type="curve"/>
      <point x="206" y="94"/>
      <point x="174" y="114"/>
      <point x="131" y="114" type="curve"/>
      <point x="87" y="114"/>
      <point x="57" y="92"/>
      <point x="57" y="52" type="curve"/>
      <point x="201" y="52"/>
      <point x="63" y="52"/>
      <point x="206" y="52" type="curve"/>
      <point x="206" y="10"/>
      <point x="174" y="-9"/>
      <point x="130" y="-9" type="curve"/>
      <point x="86" y="-9"/>
      <point x="57" y="12"/>
      <point x="57" y="52" type="curve"/>
      <point x="201" y="52"/>
      <point x="63" y="52"/>
    </contour>
  </outline>
</glyph>
<glyph name="semicolon" format="1">
  <advance width="263"/>
  <unicode hex="003B"/>
  <outline>
    <contour>
      <point x="38" y="-151" type="line"/>
      <point x="137" y="-145"/>
      <point x="208" y="-80"/>
      <point x="208" y="16" type="curve"/>
      <point x="208" y="83"/>
      <point x="174" y="135"/>
      <point x="119" y="135" type="curve"/>
      <point x="76" y="135"/>
      <point x="45" y="114"/>
      <point x="45" y="73" type="curve"/>
      <point x="45" y="32"/>
      <point x="76" y="11"/>
      <point x="122" y="10" type="curve"/>
      <point x="120" y="-31"/>
      <point x="103" y="-71"/>
      <point x="34" y="-85" type="curve"/>
    </contour>
    <contour>
      <point x="190" y="388" type="curve"/>
      <point x="190" y="430"/>
      <point x="158" y="450"/>
      <point x="115" y="450" type="curve"/>
      <point x="71" y="450"/>
      <point x="41" y="427"/>
      <point x="41" y="388" type="curve"/>
      <point x="185" y="388"/>
      <point x="47" y="388"/>
      <point x="190" y="388" type="curve"/>
      <point x="190" y="346"/>
      <point x="158" y="327"/>
      <point x="114" y="327" type="curve"/>
      <point x="70" y="327"/>
      <point x="41" y="348"/>
      <point x="41" y="388" type="curve"/>
      <point x="185" y="388"/>
      <point x="47" y="388"/>
    </contour>
  </outline>
</glyph>
<glyph name="less" format="1">
  <advance width="852"/>
  <unicode hex="003C"/>
  <outline>
    <contour>
      <point x="793" y="621" type="curve"/>
      <point x="538" y="531"/>
      <point x="283" y="441"/>
      <point x="29" y="351" type="curve"/>
      <point x="29" y="249"/>
      <point x="29" y="351"/>
      <point x="29" y="249" type="curve"/>
      <point x="283" y="339"/>
      <point x="538" y="429"/>
      <point x="793" y="519" type="curve"/>
      <point x="793" y="621"/>
      <point x="793" y="519"/>
    </contour>
    <contour>
      <point x="806" y="87" type="curve"/>
      <point x="547" y="175"/>
      <point x="288" y="263"/>
      <point x="29" y="351" type="curve"/>
      <point x="29" y="249"/>
      <point x="29" y="351"/>
      <point x="29" y="249" type="curve"/>
      <point x="288" y="161"/>
      <point x="547" y="73"/>
      <point x="806" y="-15" type="curve"/>
      <point x="806" y="87"/>
      <point x="806" y="-15"/>
    </contour>
  </outline>
</glyph>
<glyph name="equal" format="1">
  <advance width="894"/>
  <unicode hex="003D"/>
  <outline>
    <contour>
      <point x="55" y="168" type="curve"/>
      <point x="319" y="168"/>
      <point x="582" y="168"/>
      <point x="845" y="168" type="curve"/>
      <point x="845" y="267"/>
      <point x="845" y="168"/>
      <point x="845" y="267" type="curve"/>
      <point x="582" y="267"/>
      <point x="319" y="267"/>
      <point x="55" y="267" type="curve"/>
      <point x="55" y="168"/>
      <point x="55" y="267"/>
    </contour>
    <contour>
      <point x="55" y="390" type="curve"/>
      <point x="319" y="390"/>
      <point x="582" y="390"/>
      <point x="845" y="390" type="curve"/>
      <point x="845" y="489"/>
      <point x="845" y="390"/>
      <point x="845" y="489" type="curve"/>
      <point x="582" y="489"/>
      <point x="319" y="489"/>
      <point x="55" y="489" type="curve"/>
      <point x="55" y="390"/>
      <point x="55" y="489"/>
    </contour>
  </outline>
</glyph>
<glyph name="greater" format="1">
  <advance width="854"/>
  <unicode hex="003E"/>
  <outline>
    <contour>
      <point x="59" y="-15" type="curve"/>
      <point x="314" y="75"/>
      <point x="569" y="165"/>
      <point x="824" y="255" type="curve"/>
      <point x="824" y="357"/>
      <point x="824" y="255"/>
      <point x="824" y="357" type="curve"/>
      <point x="569" y="267"/>
      <point x="314" y="177"/>
      <point x="59" y="87" type="curve"/>
      <point x="59" y="-15"/>
      <point x="59" y="87"/>
    </contour>
    <contour>
      <point x="47" y="519" type="curve"/>
      <point x="306" y="431"/>
      <point x="565" y="343"/>
      <point x="824" y="255" type="curve"/>
      <point x="824" y="357"/>
      <point x="824" y="255"/>
      <point x="824" y="357" type="curve"/>
      <point x="565" y="445"/>
      <point x="306" y="533"/>
      <point x="47" y="621" type="curve"/>
      <point x="47" y="519"/>
      <point x="47" y="621"/>
    </contour>
  </outline>
</glyph>
<glyph name="question" format="1">
  <advance width="612"/>
  <unicode hex="003F"/>
  <outline>
    <contour>
      <point x="212" y="371" type="curve"/>
      <point x="212" y="334"/>
      <point x="212" y="258"/>
      <point x="212" y="221" type="curve"/>
      <point x="337" y="221"/>
      <point x="212" y="221"/>
      <point x="337" y="221" type="curve"/>
      <point x="337" y="258"/>
      <point x="337" y="334"/>
      <point x="337" y="371" type="curve"/>
      <point x="212" y="371"/>
      <point x="337" y="371"/>
    </contour>
    <contour>
      <point x="106" y="578" type="line"/>
      <point x="146" y="615"/>
      <point x="211" y="649"/>
      <point x="283" y="649" type="curve"/>
      <point x="380" y="649"/>
      <point x="456" y="610"/>
      <point x="456" y="519" type="curve"/>
      <point x="456" y="418"/>
      <point x="355" y="371"/>
      <point x="226" y="371" type="curve"/>
      <point x="226" y="337"/>
      <point x="226" y="313"/>
      <point x="226" y="278" type="curve"/>
      <point x="424" y="278"/>
      <point x="576" y="357"/>
      <point x="576" y="519" type="curve"/>
      <point x="576" y="670"/>
      <point x="452" y="745"/>
      <point x="290" y="745" type="curve"/>
      <point x="189" y="745"/>
      <point x="110" y="713"/>
      <point x="42" y="649" type="curve"/>
    </contour>
    <contour>
      <point x="350" y="20" type="curve"/>
      <point x="350" y="61"/>
      <point x="319" y="80"/>
      <point x="276" y="80" type="curve"/>
      <point x="233" y="80"/>
      <point x="203" y="58"/>
      <point x="203" y="20" type="curve"/>
      <point x="350" y="20"/>
      <point x="203" y="20"/>
      <point x="350" y="20" type="curve"/>
      <point x="350" y="-22"/>
      <point x="319" y="-40"/>
      <point x="275" y="-40" type="curve"/>
      <point x="232" y="-40"/>
      <point x="203" y="-20"/>
      <point x="203" y="20" type="curve"/>
      <point x="350" y="20"/>
      <point x="203" y="20"/>
    </contour>
  </outline>
</glyph>
<glyph name="at" format="1">
  <advance width="1029"/>
  <unicode hex="0040"/>
  <outline>
    <contour>
      <point x="715" y="-14" type="curve"/>
      <point x="648" y="-38"/>
      <point x="600" y="-46"/>
      <point x="532" y="-46" type="curve"/>
      <point x="318" y="-46"/>
      <point x="162" y="24"/>
      <point x="162" y="215" type="curve"/>
      <point x="162" y="402"/>
      <point x="318" y="467"/>
      <point x="525" y="467" type="curve"/>
      <point x="721" y="467"/>
      <point x="864" y="395"/>
      <point x="864" y="217" type="curve"/>
      <point x="864" y="161"/>
      <point x="854" y="117"/>
      <point x="808" y="117" type="curve"/>
      <point x="757" y="117"/>
      <point x="738" y="161"/>
      <point x="738" y="220" type="curve"/>
      <point x="738" y="346"/>
      <point x="647" y="410"/>
      <point x="513" y="410" type="curve"/>
      <point x="367" y="410"/>
      <point x="266" y="351"/>
      <point x="266" y="217" type="curve"/>
      <point x="266" y="83"/>
      <point x="359" y="16"/>
      <point x="499" y="16" type="curve"/>
      <point x="620" y="16"/>
      <point x="694" y="82"/>
      <point x="720" y="201" type="curve"/>
      <point x="640" y="220"/>
      <point x="720" y="201"/>
      <point x="640" y="220" type="curve"/>
      <point x="618" y="152"/>
      <point x="584" y="109"/>
      <point x="516" y="109" type="curve"/>
      <point x="437" y="109"/>
      <point x="386" y="147"/>
      <point x="386" y="221" type="curve"/>
      <point x="386" y="287"/>
      <point x="433" y="316"/>
      <point x="502" y="316" type="curve"/>
      <point x="575" y="316"/>
      <point x="624" y="284"/>
      <point x="624" y="215" type="curve"/>
      <point x="624" y="101"/>
      <point x="685" y="29"/>
      <point x="797" y="29" type="curve"/>
      <point x="916" y="29"/>
      <point x="983" y="101"/>
      <point x="983" y="221" type="curve"/>
      <point x="983" y="462"/>
      <point x="793" y="564"/>
      <point x="531" y="564" type="curve"/>
      <point x="249" y="564"/>
      <point x="43" y="467"/>
      <point x="43" y="210" type="curve"/>
      <point x="43" y="-42"/>
      <point x="246" y="-140"/>
      <point x="525" y="-140" type="curve"/>
      <point x="618" y="-140"/>
      <point x="690" y="-122"/>
      <point x="757" y="-93" type="curve"/>
      <point x="715" y="-14"/>
      <point x="757" y="-93"/>
    </contour>
  </outline>
</glyph>
<glyph name="B" format="1">
  <advance width="749"/>
  <unicode hex="0042"/>
  <outline>
    <contour>
      <point x="132" y="629" type="curve"/>
      <point x="222" y="629"/>
      <point x="310" y="629"/>
      <point x="400" y="629" type="curve"/>
      <point x="470" y="629"/>
      <point x="524" y="602"/>
      <point x="524" y="535" type="curve"/>
      <point x="524" y="467"/>
      <point x="449" y="452"/>
      <point x="373" y="452" type="curve"/>
      <point x="292" y="452"/>
      <point x="213" y="452"/>
      <point x="132" y="452" type="curve"/>
      <point x="132" y="364"/>
      <point x="132" y="446"/>
      <point x="132" y="358" type="curve"/>
      <point x="192" y="358"/>
      <point x="252" y="358"/>
      <point x="312" y="358" type="curve"/>
      <point x="446" y="358"/>
      <point x="650" y="385"/>
      <point x="650" y="535" type="curve"/>
      <point x="650" y="667"/>
      <point x="545" y="722"/>
      <point x="401" y="722" type="curve"/>
      <point x="311" y="722"/>
      <point x="222" y="722"/>
      <point x="132" y="722" type="curve"/>
      <point x="132" y="634"/>
      <point x="132" y="717"/>
    </contour>
    <contour>
      <point x="211" y="0" type="curve"/>
      <point x="211" y="241"/>
      <point x="211" y="481"/>
      <point x="211" y="722" type="curve"/>
      <point x="80" y="722"/>
      <point x="211" y="722"/>
      <point x="80" y="722" type="curve"/>
      <point x="80" y="481"/>
      <point x="80" y="241"/>
      <point x="80" y="0" type="curve"/>
      <point x="211" y="0"/>
      <point x="80" y="0"/>
    </contour>
    <contour>
      <point x="132" y="358" type="curve"/>
      <point x="213" y="358"/>
      <point x="292" y="358"/>
      <point x="373" y="358" type="curve"/>
      <point x="487" y="358"/>
      <point x="583" y="326"/>
      <point x="583" y="221" type="curve"/>
      <point x="583" y="126"/>
      <point x="505" y="93"/>
      <point x="398" y="93" type="curve"/>
      <point x="309" y="93"/>
      <point x="221" y="93"/>
      <point x="132" y="93" type="curve"/>
      <point x="132" y="5"/>
      <point x="132" y="88"/>
      <point x="132" y="0" type="curve"/>
      <point x="221" y="0"/>
      <point x="309" y="0"/>
      <point x="399" y="0" type="curve"/>
      <point x="579" y="0"/>
      <point x="709" y="60"/>
      <point x="709" y="220" type="curve"/>
      <point x="709" y="411"/>
      <point x="483" y="452"/>
      <point x="312" y="452" type="curve"/>
      <point x="252" y="452"/>
      <point x="192" y="452"/>
      <point x="132" y="452" type="curve"/>
      <point x="132" y="364"/>
      <point x="132" y="446"/>
    </contour>
  </outline>
</glyph>
<glyph name="D" format="1">
  <advance width="884"/>
  <unicode hex="0044"/>
  <outline>
    <contour>
      <point x="80" y="722" type="curve"/>
      <point x="80" y="481"/>
      <point x="80" y="241"/>
      <point x="80" y="0" type="curve"/>
      <point x="205" y="0"/>
      <point x="80" y="0"/>
      <point x="205" y="0" type="curve"/>
      <point x="205" y="241"/>
      <point x="205" y="481"/>
      <point x="205" y="722" type="curve"/>
      <point x="80" y="722"/>
      <point x="205" y="722"/>
    </contour>
    <contour>
      <point x="145" y="0" type="curve"/>
      <point x="227" y="0"/>
      <point x="309" y="0"/>
      <point x="391" y="0" type="curve"/>
      <point x="664" y="0"/>
      <point x="839" y="100"/>
      <point x="839" y="353" type="curve"/>
      <point x="839" y="616"/>
      <point x="662" y="722"/>
      <point x="382" y="722" type="curve"/>
      <point x="303" y="722"/>
      <point x="224" y="722"/>
      <point x="145" y="722" type="curve"/>
      <point x="145" y="629"/>
      <point x="145" y="722"/>
      <point x="145" y="629" type="curve"/>
      <point x="222" y="629"/>
      <point x="299" y="629"/>
      <point x="375" y="629" type="curve"/>
      <point x="585" y="629"/>
      <point x="715" y="546"/>
      <point x="715" y="350" type="curve"/>
      <point x="715" y="169"/>
      <point x="594" y="93"/>
      <point x="401" y="93" type="curve"/>
      <point x="315" y="93"/>
      <point x="231" y="93"/>
      <point x="145" y="93" type="curve"/>
      <point x="145" y="0"/>
      <point x="145" y="93"/>
    </contour>
    <contour>
      <point x="371" y="791" type="move" name="top"/>
    </contour>
  </outline>
</glyph>
<glyph name="F" format="1">
  <advance width="666"/>
  <unicode hex="0046"/>
  <outline>
    <contour>
      <point x="148" y="326" type="curve"/>
      <point x="283" y="326"/>
      <point x="418" y="326"/>
      <point x="552" y="326" type="curve"/>
      <point x="552" y="420"/>
      <point x="552" y="326"/>
      <point x="552" y="420" type="curve"/>
      <point x="418" y="420"/>
      <point x="283" y="420"/>
      <point x="148" y="420" type="curve"/>
      <point x="148" y="326"/>
      <point x="148" y="420"/>
    </contour>
    <contour>
      <point x="206" y="0" type="curve"/>
      <point x="206" y="722" type="line"/>
      <point x="80" y="722"/>
      <point x="206" y="722"/>
      <point x="80" y="722" type="curve"/>
      <point x="80" y="481"/>
      <point x="80" y="241"/>
      <point x="80" y="0" type="curve"/>
      <point x="206" y="0"/>
      <point x="80" y="0"/>
    </contour>
    <contour>
      <point x="129" y="629" type="curve"/>
      <point x="301" y="629"/>
      <point x="472" y="629"/>
      <point x="644" y="629" type="curve"/>
      <point x="644" y="722"/>
      <point x="644" y="629"/>
      <point x="644" y="722" type="curve"/>
      <point x="472" y="722"/>
      <point x="301" y="722"/>
      <point x="129" y="722" type="curve"/>
      <point x="129" y="629"/>
      <point x="129" y="722"/>
    </contour>
  </outline>
</glyph>
<glyph name="G" format="1">
  <advance width="947"/>
  <unicode hex="0047"/>
  <outline>
    <contour>
      <point x="862" y="360" type="curve"/>
      <point x="771" y="360"/>
      <point x="678" y="360"/>
      <point x="586" y="360" type="curve"/>
      <point x="586" y="267"/>
      <point x="586" y="360"/>
      <point x="586" y="267" type="curve"/>
      <point x="678" y="267"/>
      <point x="771" y="267"/>
      <point x="862" y="267" type="curve"/>
      <point x="862" y="360"/>
      <point x="862" y="267"/>
    </contour>
    <contour>
      <point x="897" y="79" type="curve"/>
      <point x="897" y="172"/>
      <point x="897" y="266"/>
      <point x="897" y="360" type="curve"/>
      <point x="783" y="360"/>
      <point x="897" y="360"/>
      <point x="783" y="360" type="curve"/>
      <point x="783" y="266"/>
      <point x="783" y="172"/>
      <point x="783" y="79" type="curve"/>
      <point x="897" y="79"/>
      <point x="783" y="79"/>
    </contour>
    <contour>
      <point x="875" y="645" type="curve"/>
      <point x="751" y="703"/>
      <point x="642" y="727"/>
      <point x="505" y="727" type="curve"/>
      <point x="234" y="727"/>
      <point x="44" y="614"/>
      <point x="44" y="361" type="curve"/>
      <point x="44" y="103"/>
      <point x="242" y="-5"/>
      <point x="519" y="-5" type="curve"/>
      <point x="666" y="-5"/>
      <point x="761" y="22"/>
      <point x="897" y="79" type="curve"/>
      <point x="834" y="148"/>
      <point x="897" y="79"/>
      <point x="834" y="148" type="curve"/>
      <point x="723" y="103"/>
      <point x="639" y="93"/>
      <point x="519" y="93" type="curve"/>
      <point x="313" y="93"/>
      <point x="170" y="177"/>
      <point x="170" y="370" type="curve"/>
      <point x="170" y="551"/>
      <point x="309" y="630"/>
      <point x="505" y="630" type="curve"/>
      <point x="619" y="630"/>
      <point x="709" y="613"/>
      <point x="825" y="561" type="curve"/>
      <point x="875" y="645"/>
      <point x="825" y="561"/>
    </contour>
    <contour>
      <point x="505" y="791" type="move" name="top"/>
    </contour>
    <contour>
      <point x="559" y="10" type="move" name="bottom"/>
    </contour>
  </outline>
</glyph>
<glyph name="H" format="1">
  <advance width="918"/>
  <unicode hex="0048"/>
  <outline>
    <contour>
      <point x="206" y="0" type="curve"/>
      <point x="206" y="722" type="line"/>
      <point x="80" y="722"/>
      <point x="206" y="722"/>
      <point x="80" y="722" type="curve"/>
      <point x="80" y="481"/>
      <point x="80" y="241"/>
      <point x="80" y="0" type="curve"/>
      <point x="206" y="0"/>
      <point x="80" y="0"/>
    </contour>
    <contour>
      <point x="773" y="409" type="curve"/>
      <point x="563" y="409"/>
      <point x="352" y="409"/>
      <point x="142" y="409" type="curve"/>
      <point x="142" y="316"/>
      <point x="142" y="409"/>
      <point x="142" y="316" type="curve"/>
      <point x="352" y="316"/>
      <point x="563" y="316"/>
      <point x="773" y="316" type="curve"/>
      <point x="773" y="409"/>
      <point x="773" y="316"/>
    </contour>
    <contour>
      <point x="838" y="0" type="curve"/>
      <point x="838" y="215"/>
      <point x="838" y="507"/>
      <point x="838" y="722" type="curve"/>
      <point x="713" y="722"/>
      <point x="838" y="722"/>
      <point x="713" y="722" type="curve"/>
      <point x="713" y="0" type="line"/>
      <point x="838" y="0"/>
      <point x="713" y="0"/>
    </contour>
  </outline>
</glyph>
<glyph name="J" format="1">
  <advance width="526"/>
  <unicode hex="004A"/>
  <outline>
    <contour>
      <point x="2" y="44" type="curve"/>
      <point x="43" y="22"/>
      <point x="102" y="-4"/>
      <point x="172" y="-4" type="curve"/>
      <point x="342" y="-4"/>
      <point x="452" y="74"/>
      <point x="452" y="240" type="curve"/>
      <point x="452" y="400"/>
      <point x="452" y="562"/>
      <point x="452" y="722" type="curve"/>
      <point x="326" y="722"/>
      <point x="451" y="722"/>
      <point x="326" y="722" type="curve"/>
      <point x="326" y="562"/>
      <point x="326" y="400"/>
      <point x="326" y="240" type="curve"/>
      <point x="326" y="144"/>
      <point x="268" y="89"/>
      <point x="172" y="89" type="curve"/>
      <point x="127" y="89"/>
      <point x="97" y="102"/>
      <point x="60" y="118" type="curve"/>
      <point x="3" y="45"/>
      <point x="60" y="118"/>
    </contour>
  </outline>
</glyph>
<glyph name="L" format="1">
  <advance width="682"/>
  <unicode hex="004C"/>
  <outline>
    <contour>
      <point x="205" y="0" type="curve"/>
      <point x="205" y="241"/>
      <point x="205" y="481"/>
      <point x="205" y="722" type="curve"/>
      <point x="80" y="722"/>
      <point x="205" y="722"/>
      <point x="80" y="722" type="curve"/>
      <point x="80" y="481"/>
      <point x="80" y="241"/>
      <point x="80" y="0" type="curve"/>
      <point x="205" y="0"/>
      <point x="80" y="0"/>
    </contour>
    <contour>
      <point x="141" y="0" type="curve"/>
      <point x="318" y="0"/>
      <point x="494" y="0"/>
      <point x="671" y="0" type="curve"/>
      <point x="671" y="93"/>
      <point x="671" y="0"/>
      <point x="671" y="93" type="curve"/>
      <point x="494" y="93"/>
      <point x="318" y="93"/>
      <point x="141" y="93" type="curve"/>
      <point x="141" y="0"/>
      <point x="141" y="93"/>
    </contour>
    <contour>
      <point x="142" y="791" type="move" name="top"/>
    </contour>
    <contour>
      <point x="368" y="4" type="move" name="bottom"/>
    </contour>
  </outline>
</glyph>
<glyph name="M" format="1">
  <advance width="1099"/>
  <unicode hex="004D"/>
  <outline>
    <contour>
      <point x="1046" y="0" type="curve"/>
      <point x="1020" y="241"/>
      <point x="990" y="481"/>
      <point x="964" y="722" type="curve"/>
      <point x="849" y="722"/>
      <point x="964" y="722"/>
      <point x="849" y="722" type="curve"/>
      <point x="874" y="482"/>
      <point x="895" y="240"/>
      <point x="920" y="0" type="curve"/>
      <point x="1046" y="0"/>
      <point x="920" y="0"/>
    </contour>
    <contour>
      <point x="180" y="0" type="curve"/>
      <point x="204" y="241"/>
      <point x="227" y="481"/>
      <point x="252" y="722" type="curve"/>
      <point x="130" y="722"/>
      <point x="252" y="722"/>
      <point x="130" y="722" type="curve"/>
      <point x="105" y="481"/>
      <point x="80" y="241"/>
      <point x="55" y="0" type="curve"/>
      <point x="180" y="0"/>
      <point x="55" y="0"/>
    </contour>
    <contour>
      <point x="608" y="0" type="curve"/>
      <point x="491" y="241"/>
      <point x="373" y="481"/>
      <point x="255" y="722" type="curve"/>
      <point x="132" y="722"/>
      <point x="254" y="722"/>
      <point x="132" y="722" type="curve"/>
      <point x="249" y="481"/>
      <point x="366" y="241"/>
      <point x="484" y="0" type="curve"/>
      <point x="608" y="0"/>
      <point x="484" y="0"/>
    </contour>
    <contour>
      <point x="619" y="0" type="curve"/>
      <point x="734" y="241"/>
      <point x="849" y="481"/>
      <point x="965" y="722" type="curve"/>
      <point x="842" y="722"/>
      <point x="964" y="722"/>
      <point x="842" y="722" type="curve"/>
      <point x="725" y="481"/>
      <point x="609" y="241"/>
      <point x="493" y="0" type="curve"/>
      <point x="619" y="0"/>
      <point x="494" y="0"/>
    </contour>
  </outline>
</glyph>
<glyph name="P" format="1">
  <advance width="692"/>
  <unicode hex="0050"/>
  <outline>
    <contour>
      <point x="126" y="297" type="curve"/>
      <point x="196" y="271"/>
      <point x="280" y="252"/>
      <point x="356" y="252" type="curve"/>
      <point x="536" y="255"/>
      <point x="661" y="320"/>
      <point x="661" y="484" type="curve"/>
      <point x="661" y="653"/>
      <point x="506" y="722"/>
      <point x="315" y="722" type="curve"/>
      <point x="259" y="722"/>
      <point x="203" y="722"/>
      <point x="147" y="722" type="curve"/>
      <point x="147" y="629"/>
      <point x="147" y="722"/>
      <point x="147" y="629" type="curve"/>
      <point x="197" y="629"/>
      <point x="248" y="629"/>
      <point x="298" y="629" type="curve"/>
      <point x="427" y="629"/>
      <point x="535" y="594"/>
      <point x="535" y="487" type="curve"/>
      <point x="535" y="385"/>
      <point x="450" y="345"/>
      <point x="345" y="345" type="curve"/>
      <point x="278" y="345"/>
      <point x="229" y="357"/>
      <point x="166" y="381" type="curve"/>
      <point x="126" y="298"/>
      <point x="166" y="381"/>
    </contour>
    <contour>
      <point x="205" y="0" type="curve"/>
      <point x="205" y="241"/>
      <point x="205" y="481"/>
      <point x="205" y="722" type="curve"/>
      <point x="80" y="722"/>
      <point x="205" y="722"/>
      <point x="80" y="722" type="curve"/>
      <point x="80" y="481"/>
      <point x="80" y="241"/>
      <point x="80" y="0" type="curve"/>
      <point x="205" y="0"/>
      <point x="80" y="0"/>
    </contour>
  </outline>
</glyph>
<glyph name="Q" format="1">
  <advance width="998"/>
  <unicode hex="0051"/>
  <outline>
    <contour>
      <point x="421" y="22" type="curve"/>
      <point x="572" y="-175"/>
      <point x="731" y="-217"/>
      <point x="966" y="-217" type="curve"/>
      <point x="966" y="-119"/>
      <point x="966" y="-217"/>
      <point x="966" y="-119" type="curve"/>
      <point x="779" y="-119"/>
      <point x="652" y="-90"/>
      <point x="530" y="69" type="curve"/>
      <point x="421" y="22"/>
      <point x="530" y="69"/>
    </contour>
    <contour>
      <point x="171" y="360" type="curve"/>
      <point x="171" y="529"/>
      <point x="292" y="626"/>
      <point x="464" y="626" type="curve"/>
      <point x="640" y="626"/>
      <point x="759" y="532"/>
      <point x="759" y="361" type="curve"/>
      <point x="759" y="191"/>
      <point x="642" y="93"/>
      <point x="470" y="93" type="curve"/>
      <point x="292" y="93"/>
      <point x="171" y="188"/>
      <point x="171" y="360" type="curve"/>
      <point x="45" y="360"/>
      <point x="171" y="360"/>
      <point x="45" y="360" type="curve"/>
      <point x="45" y="123"/>
      <point x="220" y="-5"/>
      <point x="464" y="-5" type="curve"/>
      <point x="711" y="-5"/>
      <point x="885" y="126"/>
      <point x="885" y="366" type="curve"/>
      <point x="885" y="602"/>
      <point x="714" y="731"/>
      <point x="470" y="731" type="curve"/>
      <point x="222" y="731"/>
      <point x="45" y="600"/>
      <point x="45" y="360" type="curve"/>
      <point x="171" y="360"/>
      <point x="45" y="360"/>
    </contour>
  </outline>
</glyph>
<glyph name="R" format="1">
  <advance width="788"/>
  <unicode hex="0052"/>
  <outline>
    <contour>
      <point x="325" y="354" type="curve"/>
      <point x="407" y="262"/>
      <point x="553" y="92"/>
      <point x="635" y="0" type="curve"/>
      <point x="764" y="0"/>
      <point x="658" y="0"/>
      <point x="786" y="0" type="curve"/>
      <point x="712" y="84"/>
      <point x="552" y="270"/>
      <point x="478" y="354" type="curve"/>
      <point x="326" y="354"/>
      <point x="477" y="354"/>
    </contour>
    <contour>
      <point x="205" y="0" type="curve"/>
      <point x="205" y="241"/>
      <point x="205" y="481"/>
      <point x="205" y="722" type="curve"/>
      <point x="80" y="722"/>
      <point x="205" y="722"/>
      <point x="80" y="722" type="curve"/>
      <point x="80" y="481"/>
      <point x="80" y="241"/>
      <point x="80" y="0" type="curve"/>
      <point x="205" y="0"/>
      <point x="80" y="0"/>
    </contour>
    <contour>
      <point x="145" y="305" type="curve"/>
      <point x="214" y="305"/>
      <point x="284" y="305"/>
      <point x="353" y="305" type="curve"/>
      <point x="540" y="305"/>
      <point x="681" y="356"/>
      <point x="681" y="523" type="curve"/>
      <point x="681" y="677"/>
      <point x="550" y="722"/>
      <point x="377" y="722" type="curve"/>
      <point x="300" y="722"/>
      <point x="223" y="722"/>
      <point x="145" y="722" type="curve"/>
      <point x="145" y="629"/>
      <point x="145" y="722"/>
      <point x="145" y="629" type="curve"/>
      <point x="215" y="629"/>
      <point x="284" y="629"/>
      <point x="354" y="629" type="curve"/>
      <point x="467" y="629"/>
      <point x="555" y="611"/>
      <point x="555" y="513" type="curve"/>
      <point x="555" y="421"/>
      <point x="473" y="399"/>
      <point x="368" y="399" type="curve"/>
      <point x="294" y="399"/>
      <point x="219" y="399"/>
      <point x="145" y="399" type="curve"/>
      <point x="145" y="305"/>
      <point x="145" y="399"/>
    </contour>
    <contour>
      <point x="326" y="791" type="move" name="top"/>
    </contour>
    <contour>
      <point x="413" y="0" type="move" name="bottom"/>
    </contour>
  </outline>
</glyph>
<glyph name="S" format="1">
  <advance width="698"/>
  <unicode hex="0053"/>
  <outline>
    <contour>
      <point x="35" y="54" type="curve"/>
      <point x="121" y="14"/>
      <point x="218" y="-5"/>
      <point x="326" y="-5" type="curve"/>
      <point x="509" y="-5"/>
      <point x="667" y="32"/>
      <point x="667" y="189" type="curve"/>
      <point x="667" y="327"/>
      <point x="538" y="364"/>
      <point x="400" y="411" type="curve"/>
      <point x="292" y="449"/>
      <point x="170" y="477"/>
      <point x="170" y="548" type="curve"/>
      <point x="170" y="617"/>
      <point x="248" y="637"/>
      <point x="338" y="637" type="curve"/>
      <point x="421" y="637"/>
      <point x="499" y="612"/>
      <point x="565" y="587" type="curve"/>
      <point x="617" y="661"/>
      <point x="566" y="587"/>
      <point x="617" y="661" type="curve"/>
      <point x="534" y="697"/>
      <point x="448" y="726"/>
      <point x="344" y="726" type="curve"/>
      <point x="180" y="726"/>
      <point x="44" y="678"/>
      <point x="44" y="539" type="curve"/>
      <point x="44" y="404"/>
      <point x="175" y="373"/>
      <point x="312" y="326" type="curve"/>
      <point x="421" y="289"/>
      <point x="540" y="260"/>
      <point x="540" y="185" type="curve"/>
      <point x="540" y="113"/>
      <point x="441" y="93"/>
      <point x="331" y="93" type="curve"/>
      <point x="246" y="93"/>
      <point x="160" y="113"/>
      <point x="91" y="143" type="curve"/>
      <point x="36" y="54"/>
      <point x="91" y="142"/>
    </contour>
    <contour>
      <point x="343" y="791" type="move" name="top"/>
    </contour>
    <contour>
      <point x="366" y="6" type="move" name="bottom"/>
    </contour>
  </outline>
</glyph>
<glyph name="T" format="1">
  <advance width="801"/>
  <unicode hex="0054"/>
  <outline>
    <contour>
      <point x="463" y="0" type="curve"/>
      <point x="463" y="237"/>
      <point x="463" y="473"/>
      <point x="463" y="710" type="curve"/>
      <point x="338" y="710"/>
      <point x="463" y="710"/>
      <point x="338" y="710" type="curve"/>
      <point x="338" y="473"/>
      <point x="338" y="237"/>
      <point x="338" y="0" type="curve"/>
      <point x="463" y="0"/>
      <point x="338" y="0"/>
    </contour>
    <contour>
      <point x="12" y="623" type="curve"/>
      <point x="270" y="623"/>
      <point x="530" y="623"/>
      <point x="789" y="623" type="curve"/>
      <point x="789" y="726"/>
      <point x="789" y="619"/>
      <point x="789" y="722" type="curve"/>
      <point x="530" y="722"/>
      <point x="270" y="722"/>
      <point x="12" y="722" type="curve"/>
      <point x="12" y="619"/>
      <point x="12" y="726"/>
    </contour>
    <contour>
      <point x="397" y="791" type="move" name="top"/>
    </contour>
    <contour>
      <point x="435" y="2" type="move" name="bottom"/>
    </contour>
  </outline>
</glyph>
<glyph name="V" format="1">
  <advance width="853"/>
  <unicode hex="0056"/>
  <outline>
    <contour>
      <point x="716" y="722" type="curve"/>
      <point x="600" y="481"/>
      <point x="484" y="241"/>
      <point x="369" y="0" type="curve"/>
      <point x="498" y="0"/>
      <point x="368" y="0"/>
      <point x="496" y="0" type="curve"/>
      <point x="612" y="241"/>
      <point x="728" y="481"/>
      <point x="845" y="722" type="curve"/>
      <point x="716" y="722"/>
      <point x="845" y="722"/>
    </contour>
    <contour>
      <point x="6" y="722" type="curve"/>
      <point x="124" y="481"/>
      <point x="242" y="241"/>
      <point x="360" y="0" type="curve"/>
      <point x="489" y="0"/>
      <point x="359" y="0"/>
      <point x="488" y="0" type="curve"/>
      <point x="370" y="241"/>
      <point x="253" y="481"/>
      <point x="136" y="722" type="curve"/>
      <point x="6" y="722"/>
      <point x="135" y="722"/>
    </contour>
  </outline>
</glyph>
<glyph name="W" format="1">
  <advance width="1124"/>
  <unicode hex="0057"/>
  <outline>
    <contour>
      <point x="378" y="0" type="curve"/>
      <point x="461" y="241"/>
      <point x="542" y="481"/>
      <point x="625" y="722" type="curve"/>
      <point x="502" y="722"/>
      <point x="629" y="722"/>
      <point x="505" y="722" type="curve"/>
      <point x="426" y="480"/>
      <point x="348" y="241"/>
      <point x="269" y="0" type="curve"/>
      <point x="387" y="0"/>
      <point x="259" y="0"/>
    </contour>
    <contour>
      <point x="520" y="722" type="curve"/>
      <point x="596" y="481"/>
      <point x="665" y="241"/>
      <point x="740" y="0" type="curve"/>
      <point x="859" y="0"/>
      <point x="730" y="0"/>
      <point x="849" y="0" type="curve"/>
      <point x="780" y="241"/>
      <point x="711" y="480"/>
      <point x="637" y="722" type="curve"/>
      <point x="514" y="722"/>
      <point x="643" y="722"/>
    </contour>
    <contour>
      <point x="24" y="722" type="curve"/>
      <point x="99" y="481"/>
      <point x="176" y="241"/>
      <point x="251" y="0" type="curve"/>
      <point x="370" y="0"/>
      <point x="246" y="0"/>
      <point x="365" y="0" type="curve"/>
      <point x="291" y="241"/>
      <point x="223" y="481"/>
      <point x="149" y="722" type="curve"/>
      <point x="24" y="722"/>
      <point x="149" y="722"/>
    </contour>
    <contour>
      <point x="979" y="722" type="curve"/>
      <point x="903" y="481"/>
      <point x="832" y="241"/>
      <point x="757" y="0" type="curve"/>
      <point x="876" y="0"/>
      <point x="748" y="0"/>
      <point x="867" y="0" type="curve"/>
      <point x="946" y="241"/>
      <point x="1025" y="481"/>
      <point x="1104" y="722" type="curve"/>
      <point x="979" y="722"/>
      <point x="1104" y="722"/>
    </contour>
  </outline>
</glyph>
<glyph name="X" format="1">
  <advance width="815"/>
  <unicode hex="0058"/>
  <outline>
    <contour>
      <point x="639" y="722" type="curve"/>
      <point x="440" y="492"/>
      <point x="203" y="230"/>
      <point x="4" y="0" type="curve"/>
      <point x="130" y="0"/>
      <point x="38" y="0"/>
      <point x="163" y="0" type="curve"/>
      <point x="362" y="230"/>
      <point x="588" y="491"/>
      <point x="787" y="721" type="curve"/>
      <point x="670" y="721"/>
      <point x="756" y="722"/>
    </contour>
    <contour>
      <point x="47" y="722" type="curve"/>
      <point x="244" y="492"/>
      <point x="463" y="230"/>
      <point x="659" y="0" type="curve"/>
      <point x="786" y="0"/>
      <point x="681" y="0"/>
      <point x="808" y="0" type="curve"/>
      <point x="608" y="234"/>
      <point x="386" y="488"/>
      <point x="186" y="722" type="curve"/>
      <point x="73" y="722"/>
      <point x="161" y="722"/>
    </contour>
  </outline>
</glyph>
<glyph name="Y" format="1">
  <advance width="765"/>
  <unicode hex="0059"/>
  <outline>
    <contour>
      <point x="12" y="722" type="curve"/>
      <point x="103" y="604"/>
      <point x="229" y="456"/>
      <point x="319" y="337" type="curve"/>
      <point x="447" y="337"/>
      <point x="318" y="338"/>
      <point x="445" y="338" type="curve"/>
      <point x="348" y="466"/>
      <point x="252" y="594"/>
      <point x="154" y="722" type="curve"/>
      <point x="48" y="722"/>
      <point x="118" y="722"/>
    </contour>
    <contour>
      <point x="630" y="722" type="curve"/>
      <point x="527" y="594"/>
      <point x="424" y="466"/>
      <point x="321" y="338" type="curve"/>
      <point x="449" y="338"/>
      <point x="320" y="337"/>
      <point x="448" y="337" type="curve"/>
      <point x="544" y="456"/>
      <point x="664" y="603"/>
      <point x="761" y="722" type="curve"/>
      <point x="654" y="722"/>
      <point x="737" y="722"/>
    </contour>
    <contour>
      <point x="453" y="0" type="curve"/>
      <point x="453" y="115"/>
      <point x="453" y="230"/>
      <point x="453" y="345" type="curve"/>
      <point x="315" y="345"/>
      <point x="453" y="345"/>
      <point x="315" y="345" type="curve"/>
      <point x="315" y="230"/>
      <point x="315" y="115"/>
      <point x="315" y="0" type="curve"/>
      <point x="453" y="0"/>
      <point x="315" y="0"/>
    </contour>
    <contour>
      <point x="388" y="791" type="move" name="top"/>
    </contour>
  </outline>
</glyph>
<glyph name="bracketleft" format="1">
  <advance width="348"/>
  <unicode hex="005B"/>
  <outline>
    <contour>
      <point x="311" y="769" type="curve"/>
      <point x="247" y="769"/>
      <point x="183" y="769"/>
      <point x="119" y="769" type="curve"/>
      <point x="103" y="769"/>
      <point x="80" y="769"/>
      <point x="65" y="769" type="curve"/>
      <point x="65" y="757"/>
      <point x="65" y="737"/>
      <point x="65" y="724" type="curve"/>
      <point x="65" y="459"/>
      <point x="65" y="194"/>
      <point x="65" y="-71" type="curve"/>
      <point x="65" y="-84"/>
      <point x="65" y="-102"/>
      <point x="65" y="-115" type="curve"/>
      <point x="79" y="-115"/>
      <point x="102" y="-115"/>
      <point x="118" y="-115" type="curve"/>
      <point x="182" y="-115"/>
      <point x="247" y="-115"/>
      <point x="311" y="-115" type="curve"/>
      <point x="311" y="-12"/>
      <point x="311" y="-115"/>
      <point x="311" y="-12" type="curve"/>
      <point x="247" y="-12"/>
      <point x="182" y="-12"/>
      <point x="118" y="-12" type="curve"/>
      <point x="191" y="-12"/>
      <point x="118" y="-12"/>
      <point x="191" y="-12" type="curve"/>
      <point x="191" y="-71"/>
      <point x="191" y="-12"/>
      <point x="191" y="-71" type="curve"/>
      <point x="191" y="194"/>
      <point x="191" y="459"/>
      <point x="191" y="724" type="curve"/>
      <point x="191" y="667"/>
      <point x="191" y="724"/>
      <point x="191" y="667" type="curve"/>
      <point x="119" y="667"/>
      <point x="191" y="667"/>
      <point x="119" y="667" type="curve"/>
      <point x="183" y="667"/>
      <point x="247" y="667"/>
      <point x="311" y="667" type="curve"/>
      <point x="311" y="769"/>
      <point x="311" y="667"/>
    </contour>
  </outline>
</glyph>
<glyph name="backslash" format="1">
  <advance width="669"/>
  <unicode hex="005C"/>
  <outline>
    <contour>
      <point x="646" y="-68" type="curve"/>
      <point x="482" y="236"/>
      <point x="318" y="540"/>
      <point x="154" y="844" type="curve"/>
      <point x="22" y="844"/>
      <point x="154" y="844"/>
      <point x="22" y="844" type="curve"/>
      <point x="186" y="540"/>
      <point x="351" y="236"/>
      <point x="515" y="-68" type="curve"/>
      <point x="646" y="-68"/>
      <point x="515" y="-68"/>
    </contour>
  </outline>
</glyph>
<glyph name="bracketright" format="1">
  <advance width="347"/>
  <unicode hex="005D"/>
  <outline>
    <contour>
      <point x="37" y="667" type="curve"/>
      <point x="101" y="667"/>
      <point x="164" y="667"/>
      <point x="229" y="667" type="curve"/>
      <point x="216" y="675"/>
      <point x="201" y="681"/>
      <point x="188" y="690" type="curve"/>
      <point x="176" y="699"/>
      <point x="169" y="714"/>
      <point x="157" y="724" type="curve"/>
      <point x="157" y="459"/>
      <point x="157" y="194"/>
      <point x="157" y="-71" type="curve"/>
      <point x="169" y="-61"/>
      <point x="179" y="-47"/>
      <point x="192" y="-38" type="curve"/>
      <point x="204" y="-29"/>
      <point x="217" y="-21"/>
      <point x="230" y="-12" type="curve"/>
      <point x="165" y="-12"/>
      <point x="101" y="-12"/>
      <point x="37" y="-12" type="curve"/>
      <point x="37" y="-115"/>
      <point x="37" y="-12"/>
      <point x="37" y="-115" type="curve"/>
      <point x="101" y="-115"/>
      <point x="165" y="-115"/>
      <point x="230" y="-115" type="curve"/>
      <point x="283" y="-115"/>
      <point x="230" y="-115"/>
      <point x="283" y="-115" type="curve"/>
      <point x="283" y="-71"/>
      <point x="283" y="-115"/>
      <point x="283" y="-71" type="curve"/>
      <point x="283" y="194"/>
      <point x="283" y="459"/>
      <point x="283" y="724" type="curve"/>
      <point x="283" y="769"/>
      <point x="283" y="724"/>
      <point x="283" y="769" type="curve"/>
      <point x="229" y="769"/>
      <point x="283" y="769"/>
      <point x="229" y="769" type="curve"/>
      <point x="164" y="769"/>
      <point x="101" y="769"/>
      <point x="37" y="769" type="curve"/>
      <point x="37" y="667"/>
      <point x="37" y="769"/>
    </contour>
  </outline>
</glyph>
<glyph name="asciicircum" format="1">
  <advance width="638"/>
  <unicode hex="005E"/>
  <outline>
    <contour>
      <point x="162" y="455" type="curve"/>
      <point x="234" y="559"/>
      <point x="308" y="661"/>
      <point x="380" y="764" type="curve"/>
      <point x="255" y="764"/>
      <point x="380" y="764"/>
      <point x="255" y="764" type="curve"/>
      <point x="181" y="661"/>
      <point x="109" y="559"/>
      <point x="36" y="455" type="curve"/>
      <point x="162" y="455"/>
      <point x="37" y="455"/>
    </contour>
    <contour>
      <point x="602" y="455" type="curve"/>
      <point x="529" y="557"/>
      <point x="454" y="662"/>
      <point x="381" y="764" type="curve"/>
      <point x="255" y="764"/>
      <point x="380" y="764"/>
      <point x="255" y="764" type="curve"/>
      <point x="327" y="662"/>
      <point x="403" y="557"/>
      <point x="476" y="455" type="curve"/>
      <point x="601" y="455"/>
      <point x="476" y="455"/>
    </contour>
  </outline>
</glyph>
<glyph name="underscore" format="1">
  <advance width="855"/>
  <unicode hex="005F"/>
  <outline>
    <contour>
      <point x="0" y="-188" type="curve"/>
      <point x="285" y="-188"/>
      <point x="570" y="-188"/>
      <point x="855" y="-188" type="curve"/>
      <point x="855" y="-95"/>
      <point x="855" y="-188"/>
      <point x="855" y="-95" type="curve"/>
      <point x="570" y="-95"/>
      <point x="285" y="-95"/>
      <point x="0" y="-95" type="curve"/>
      <point x="0" y="-188"/>
      <point x="0" y="-95"/>
    </contour>
  </outline>
</glyph>
<glyph name="grave" format="1">
  <advance width="441"/>
  <unicode hex="0060"/>
  <outline>
    <contour>
      <point x="352" y="550" type="line"/>
      <point x="202" y="716" type="line"/>
      <point x="37" y="716" type="line"/>
      <point x="224" y="550" type="line"/>
    </contour>
    <contour>
      <point x="279" y="551" type="move" name="_top"/>
    </contour>
  </outline>
</glyph>
<glyph name="b" format="1">
  <advance width="754"/>
  <unicode hex="0062"/>
  <outline>
    <contour>
      <point x="156" y="333" type="curve"/>
      <point x="214" y="396"/>
      <point x="286" y="441"/>
      <point x="391" y="441" type="curve"/>
      <point x="508" y="441"/>
      <point x="587" y="378"/>
      <point x="587" y="263" type="curve"/>
      <point x="589" y="151"/>
      <point x="506" y="91"/>
      <point x="391" y="92" type="curve"/>
      <point x="295" y="92"/>
      <point x="221" y="129"/>
      <point x="167" y="184" type="curve"/>
      <point x="132" y="160"/>
      <point x="126" y="156"/>
      <point x="91" y="132" type="curve"/>
      <point x="183" y="47"/>
      <point x="274" y="-5"/>
      <point x="414" y="-5" type="curve"/>
      <point x="592" y="-5"/>
      <point x="715" y="87"/>
      <point x="715" y="264" type="curve"/>
      <point x="715" y="444"/>
      <point x="592" y="539"/>
      <point x="411" y="539" type="curve"/>
      <point x="275" y="539"/>
      <point x="185" y="486"/>
      <point x="100" y="400" type="curve"/>
      <point x="128" y="371"/>
      <point x="128" y="361"/>
    </contour>
    <contour>
      <point x="193" y="0" type="curve"/>
      <point x="193" y="296"/>
      <point x="193" y="504"/>
      <point x="193" y="800" type="curve"/>
      <point x="134" y="800"/>
      <point x="126" y="800"/>
      <point x="67" y="800" type="curve"/>
      <point x="67" y="504"/>
      <point x="67" y="296"/>
      <point x="67" y="0" type="curve"/>
      <point x="126" y="0"/>
      <point x="134" y="0"/>
    </contour>
  </outline>
</glyph>
<glyph name="e" format="1">
  <advance width="683"/>
  <unicode hex="0065"/>
  <outline>
    <contour>
      <point x="104" y="235" type="curve"/>
      <point x="268" y="235"/>
      <point x="432" y="235"/>
      <point x="595" y="235" type="curve"/>
      <point x="645" y="235"/>
      <point x="595" y="235"/>
      <point x="645" y="235" type="curve"/>
      <point x="645" y="264"/>
      <point x="645" y="235"/>
      <point x="645" y="264" type="curve"/>
      <point x="645" y="270"/>
      <point x="645" y="276"/>
      <point x="645" y="283" type="curve"/>
      <point x="645" y="460"/>
      <point x="528" y="537"/>
      <point x="353" y="537" type="curve"/>
      <point x="165" y="537"/>
      <point x="40" y="459"/>
      <point x="40" y="279" type="curve"/>
      <point x="40" y="82"/>
      <point x="177" y="-5"/>
      <point x="381" y="-5" type="curve"/>
      <point x="479" y="-5"/>
      <point x="543" y="16"/>
      <point x="617" y="66" type="curve"/>
      <point x="559" y="142"/>
      <point x="617" y="66"/>
      <point x="559" y="142" type="curve"/>
      <point x="501" y="105"/>
      <point x="444" y="89"/>
      <point x="377" y="89" type="curve"/>
      <point x="246" y="89"/>
      <point x="161" y="150"/>
      <point x="161" y="279" type="curve"/>
      <point x="161" y="389"/>
      <point x="232" y="444"/>
      <point x="346" y="444" type="curve"/>
      <point x="452" y="444"/>
      <point x="525" y="404"/>
      <point x="525" y="303" type="curve"/>
      <point x="525" y="293"/>
      <point x="525" y="284"/>
      <point x="525" y="274" type="curve"/>
      <point x="537" y="283"/>
      <point x="547" y="295"/>
      <point x="559" y="303" type="curve"/>
      <point x="571" y="311"/>
      <point x="583" y="313"/>
      <point x="595" y="321" type="curve"/>
      <point x="432" y="321"/>
      <point x="268" y="321"/>
      <point x="104" y="321" type="curve"/>
      <point x="104" y="227"/>
      <point x="104" y="328"/>
    </contour>
    <contour>
      <point x="350" y="625" type="move" name="top"/>
    </contour>
    <contour>
      <point x="449" y="16" type="move" name="bottom"/>
    </contour>
  </outline>
</glyph>
<glyph name="f" format="1">
  <advance width="557"/>
  <unicode hex="0066"/>
  <outline>
    <contour>
      <point x="23" y="440" type="curve"/>
      <point x="527" y="440" type="line"/>
      <point x="527" y="533"/>
      <point x="527" y="440"/>
      <point x="527" y="533" type="curve"/>
      <point x="23" y="533" type="line"/>
      <point x="23" y="440"/>
      <point x="23" y="533"/>
    </contour>
    <contour>
      <point x="304" y="0" type="curve"/>
      <point x="304" y="611" type="line"/>
      <point x="304" y="675"/>
      <point x="347" y="712"/>
      <point x="413" y="712" type="curve"/>
      <point x="449" y="712"/>
      <point x="484" y="704"/>
      <point x="517" y="692" type="curve"/>
      <point x="568" y="766"/>
      <point x="517" y="692"/>
      <point x="568" y="766" type="curve"/>
      <point x="519" y="786"/>
      <point x="466" y="802"/>
      <point x="413" y="802" type="curve"/>
      <point x="277" y="802"/>
      <point x="177" y="739"/>
      <point x="178" y="611" type="curve"/>
      <point x="178" y="0" type="line"/>
      <point x="304" y="0"/>
      <point x="178" y="0"/>
    </contour>
  </outline>
</glyph>
<glyph name="g" format="1">
  <advance width="678"/>
  <unicode hex="0067"/>
  <outline>
    <contour>
      <point x="455" y="452" type="curve"/>
      <point x="663" y="527" type="line"/>
      <point x="663" y="528"/>
      <point x="616" y="621"/>
      <point x="615" y="621" type="curve"/>
      <point x="393" y="517" type="line"/>
      <point x="455" y="451"/>
      <point x="394" y="518"/>
    </contour>
    <contour>
      <point x="176" y="341" type="curve"/>
      <point x="176" y="416"/>
      <point x="248" y="446"/>
      <point x="333" y="446" type="curve"/>
      <point x="417" y="446"/>
      <point x="485" y="415"/>
      <point x="485" y="341" type="curve"/>
      <point x="485" y="270"/>
      <point x="417" y="244"/>
      <point x="335" y="244" type="curve"/>
      <point x="251" y="244"/>
      <point x="176" y="266"/>
      <point x="176" y="341" type="curve"/>
      <point x="49" y="337"/>
      <point x="176" y="341"/>
      <point x="49" y="337" type="curve"/>
      <point x="49" y="204"/>
      <point x="175" y="151"/>
      <point x="324" y="151" type="curve"/>
      <point x="480" y="151"/>
      <point x="611" y="206"/>
      <point x="611" y="345" type="curve"/>
      <point x="611" y="481"/>
      <point x="485" y="539"/>
      <point x="333" y="539" type="curve"/>
      <point x="177" y="539"/>
      <point x="49" y="477"/>
      <point x="49" y="337" type="curve"/>
      <point x="176" y="341"/>
      <point x="49" y="337"/>
    </contour>
    <contour>
      <point x="178" y="243" type="curve"/>
      <point x="110" y="217"/>
      <point x="54" y="183"/>
      <point x="54" y="113" type="curve"/>
      <point x="54" y="-6"/>
      <point x="182" y="-20"/>
      <point x="316" y="-29" type="curve"/>
      <point x="430" y="-36"/>
      <point x="554" y="-30"/>
      <point x="554" y="-122" type="curve"/>
      <point x="554" y="-202"/>
      <point x="445" y="-211"/>
      <point x="336" y="-211" type="curve"/>
      <point x="232" y="-211"/>
      <point x="134" y="-196"/>
      <point x="134" y="-108" type="curve"/>
      <point x="134" y="-42"/>
      <point x="180" y="-11"/>
      <point x="235" y="5" type="curve"/>
      <point x="172" y="61"/>
      <point x="235" y="5"/>
      <point x="172" y="61" type="curve"/>
      <point x="82" y="35"/>
      <point x="8" y="-12"/>
      <point x="8" y="-113" type="curve"/>
      <point x="8" y="-266"/>
      <point x="160" y="-304"/>
      <point x="330" y="-304" type="curve"/>
      <point x="508" y="-304"/>
      <point x="672" y="-276"/>
      <point x="668" y="-114" type="curve"/>
      <point x="668" y="44"/>
      <point x="506" y="50"/>
      <point x="338" y="60" type="curve"/>
      <point x="261" y="64"/>
      <point x="181" y="66"/>
      <point x="181" y="122" type="curve"/>
      <point x="181" y="156"/>
      <point x="204" y="174"/>
      <point x="236" y="187" type="curve"/>
      <point x="178" y="243"/>
      <point x="236" y="187"/>
    </contour>
    <contour>
      <point x="324" y="625" type="move" name="top"/>
    </contour>
  </outline>
</glyph>
<glyph name="h" format="1">
  <advance width="722"/>
  <unicode hex="0068"/>
  <outline>
    <contour>
      <point x="165" y="290" type="curve"/>
      <point x="204" y="387"/>
      <point x="291" y="444"/>
      <point x="385" y="444" type="curve"/>
      <point x="475" y="444"/>
      <point x="534" y="392"/>
      <point x="534" y="304" type="curve"/>
      <point x="534" y="200"/>
      <point x="534" y="105"/>
      <point x="534" y="0" type="curve"/>
      <point x="660" y="0"/>
      <point x="534" y="0"/>
      <point x="660" y="0" type="curve"/>
      <point x="660" y="108"/>
      <point x="660" y="216"/>
      <point x="660" y="324" type="curve"/>
      <point x="660" y="473"/>
      <point x="562" y="538"/>
      <point x="406" y="538" type="curve"/>
      <point x="276" y="538"/>
      <point x="161" y="465"/>
      <point x="104" y="334" type="curve"/>
      <point x="167" y="287"/>
      <point x="102" y="337"/>
    </contour>
    <contour>
      <point x="193" y="0" type="curve"/>
      <point x="193" y="267"/>
      <point x="193" y="533"/>
      <point x="193" y="800" type="curve"/>
      <point x="67" y="800"/>
      <point x="193" y="800"/>
      <point x="67" y="800" type="curve"/>
      <point x="67" y="533"/>
      <point x="67" y="267"/>
      <point x="67" y="0" type="curve"/>
      <point x="193" y="0"/>
      <point x="67" y="0"/>
    </contour>
  </outline>
</glyph>
<glyph name="i" format="1">
  <advance width="269"/>
  <unicode hex="0069"/>
  <outline>
    <contour>
      <point x="200" y="0" type="curve"/>
      <point x="200" y="178"/>
      <point x="200" y="355"/>
      <point x="200" y="533" type="curve"/>
      <point x="68" y="533"/>
      <point x="200" y="533"/>
      <point x="68" y="533" type="curve"/>
      <point x="68" y="355"/>
      <point x="68" y="178"/>
      <point x="68" y="0" type="curve"/>
      <point x="200" y="0"/>
      <point x="68" y="0"/>
    </contour>
    <contour>
      <point x="208" y="685" type="curve"/>
      <point x="208" y="727"/>
      <point x="176" y="747"/>
      <point x="132" y="747" type="curve"/>
      <point x="88" y="747"/>
      <point x="58" y="725"/>
      <point x="58" y="685" type="curve"/>
      <point x="202" y="685"/>
      <point x="64" y="685"/>
      <point x="208" y="685" type="curve"/>
      <point x="208" y="643"/>
      <point x="176" y="624"/>
      <point x="131" y="624" type="curve"/>
      <point x="88" y="624"/>
      <point x="58" y="645"/>
      <point x="58" y="685" type="curve"/>
      <point x="202" y="685"/>
      <point x="64" y="685"/>
    </contour>
    <contour>
      <point x="132" y="625" type="move" name="top"/>
    </contour>
    <contour>
      <point x="191" y="10" type="move" name="bottom"/>
    </contour>
  </outline>
</glyph>
<glyph name="j" format="1">
  <advance width="321"/>
  <unicode hex="006A"/>
  <outline>
    <contour>
      <point x="-39" y="-302" type="curve"/>
      <point x="-28" y="-303"/>
      <point x="-13" y="-305"/>
      <point x="2" y="-305" type="curve"/>
      <point x="139" y="-305"/>
      <point x="252" y="-250"/>
      <point x="252" y="-124" type="curve"/>
      <point x="252" y="95"/>
      <point x="252" y="314"/>
      <point x="252" y="534" type="curve"/>
      <point x="126" y="534"/>
      <point x="252" y="534"/>
      <point x="126" y="534" type="curve"/>
      <point x="126" y="314"/>
      <point x="126" y="95"/>
      <point x="126" y="-124" type="curve"/>
      <point x="126" y="-186"/>
      <point x="74" y="-215"/>
      <point x="8" y="-215" type="curve"/>
      <point x="-2" y="-215"/>
      <point x="-15" y="-214"/>
      <point x="-21" y="-213" type="curve"/>
      <point x="-39" y="-302"/>
      <point x="-21" y="-213"/>
    </contour>
    <contour>
      <point x="266" y="685" type="curve"/>
      <point x="266" y="727"/>
      <point x="234" y="747"/>
      <point x="190" y="747" type="curve"/>
      <point x="146" y="747"/>
      <point x="116" y="724"/>
      <point x="116" y="685" type="curve"/>
      <point x="260" y="685"/>
      <point x="122" y="685"/>
      <point x="266" y="685" type="curve"/>
      <point x="266" y="642"/>
      <point x="234" y="623"/>
      <point x="189" y="623" type="curve"/>
      <point x="146" y="623"/>
      <point x="116" y="644"/>
      <point x="116" y="685" type="curve"/>
      <point x="260" y="685"/>
      <point x="122" y="685"/>
    </contour>
  </outline>
</glyph>
<glyph name="k" format="1">
  <advance width="682"/>
  <unicode hex="006B"/>
  <outline>
    <contour>
      <point x="193" y="0" type="curve"/>
      <point x="193" y="800" type="line"/>
      <point x="67" y="800"/>
      <point x="193" y="800"/>
      <point x="67" y="800" type="curve"/>
      <point x="67" y="533"/>
      <point x="67" y="267"/>
      <point x="67" y="0" type="curve"/>
      <point x="193" y="0"/>
      <point x="67" y="0"/>
    </contour>
    <contour>
      <point x="473" y="533" type="curve"/>
      <point x="157" y="275" type="line"/>
      <point x="312" y="275"/>
      <point x="158" y="275"/>
      <point x="314" y="275" type="curve"/>
      <point x="638" y="533" type="line"/>
      <point x="464" y="533"/>
      <point x="647" y="533"/>
    </contour>
    <contour>
      <point x="671" y="0" type="curve"/>
      <point x="313" y="275" type="line"/>
      <point x="158" y="275"/>
      <point x="312" y="275"/>
      <point x="157" y="275" type="curve"/>
      <point x="504" y="0" type="line"/>
      <point x="678" y="0"/>
      <point x="497" y="0"/>
    </contour>
    <contour>
      <point x="382" y="-3" type="move" name="bottom"/>
    </contour>
  </outline>
</glyph>
<glyph name="m" format="1">
  <advance width="1089"/>
  <unicode hex="006D"/>
  <outline>
    <contour>
      <point x="581" y="281" type="curve"/>
      <point x="628" y="377"/>
      <point x="685" y="441"/>
      <point x="774" y="441" type="curve"/>
      <point x="861" y="441"/>
      <point x="900" y="402"/>
      <point x="900" y="314" type="curve"/>
      <point x="900" y="210"/>
      <point x="900" y="105"/>
      <point x="900" y="0" type="curve"/>
      <point x="1026" y="0"/>
      <point x="900" y="0"/>
      <point x="1026" y="0" type="curve"/>
      <point x="1026" y="108"/>
      <point x="1026" y="216"/>
      <point x="1026" y="324" type="curve"/>
      <point x="1026" y="473"/>
      <point x="953" y="538"/>
      <point x="801" y="538" type="curve"/>
      <point x="672" y="538"/>
      <point x="587" y="460"/>
      <point x="519" y="329" type="curve"/>
      <point x="581" y="281"/>
      <point x="518" y="329"/>
    </contour>
    <contour>
      <point x="165" y="285" type="curve"/>
      <point x="211" y="380"/>
      <point x="268" y="441"/>
      <point x="357" y="441" type="curve"/>
      <point x="444" y="441"/>
      <point x="483" y="402"/>
      <point x="483" y="314" type="curve"/>
      <point x="483" y="210"/>
      <point x="483" y="105"/>
      <point x="483" y="0" type="curve"/>
      <point x="610" y="0"/>
      <point x="483" y="0"/>
      <point x="610" y="0" type="curve"/>
      <point x="610" y="108"/>
      <point x="610" y="216"/>
      <point x="610" y="324" type="curve"/>
      <point x="610" y="473"/>
      <point x="538" y="538"/>
      <point x="387" y="538" type="curve"/>
      <point x="255" y="538"/>
      <point x="183" y="467"/>
      <point x="102" y="333" type="curve"/>
      <point x="165" y="285"/>
      <point x="102" y="333"/>
    </contour>
    <contour>
      <point x="193" y="0" type="curve"/>
      <point x="193" y="178"/>
      <point x="193" y="355"/>
      <point x="193" y="533" type="curve"/>
      <point x="67" y="533"/>
      <point x="193" y="533"/>
      <point x="67" y="533" type="curve"/>
      <point x="67" y="355"/>
      <point x="67" y="178"/>
      <point x="67" y="0" type="curve"/>
      <point x="193" y="0"/>
      <point x="67" y="0"/>
    </contour>
  </outline>
</glyph>
<glyph name="n" format="1">
  <advance width="721"/>
  <unicode hex="006E"/>
  <outline>
    <contour>
      <point x="164" y="273" type="curve"/>
      <point x="201" y="375"/>
      <point x="275" y="441"/>
      <point x="380" y="441" type="curve"/>
      <point x="470" y="441"/>
      <point x="534" y="399"/>
      <point x="534" y="314" type="curve"/>
      <point x="534" y="203"/>
      <point x="534" y="111"/>
      <point x="534" y="0" type="curve"/>
      <point x="590" y="0"/>
      <point x="603" y="0"/>
      <point x="659" y="0" type="curve"/>
      <point x="659" y="115"/>
      <point x="659" y="209"/>
      <point x="659" y="324" type="curve"/>
      <point x="659" y="469"/>
      <point x="563" y="538"/>
      <point x="410" y="538" type="curve"/>
      <point x="262" y="538"/>
      <point x="156" y="457"/>
      <point x="102" y="315" type="curve"/>
      <point x="128" y="293"/>
      <point x="139" y="294"/>
    </contour>
    <contour>
      <point x="193" y="0" type="curve"/>
      <point x="193" y="178"/>
      <point x="193" y="355"/>
      <point x="193" y="533" type="curve"/>
      <point x="67" y="533"/>
      <point x="193" y="533"/>
      <point x="67" y="533" type="curve"/>
      <point x="67" y="355"/>
      <point x="67" y="178"/>
      <point x="67" y="0" type="curve"/>
      <point x="193" y="0"/>
      <point x="67" y="0"/>
    </contour>
    <contour>
      <point x="375" y="624" type="move" name="top"/>
    </contour>
    <contour>
      <point x="378" y="28" type="move" name="bottom"/>
    </contour>
  </outline>
</glyph>
<glyph name="p" format="1">
  <advance width="753"/>
  <unicode hex="0070"/>
  <outline>
    <contour>
      <point x="150" y="316" type="curve"/>
      <point x="214" y="398"/>
      <point x="291" y="448"/>
      <point x="400" y="448" type="curve"/>
      <point x="511" y="448"/>
      <point x="587" y="380"/>
      <point x="587" y="266" type="curve"/>
      <point x="589" y="152"/>
      <point x="510" y="87"/>
      <point x="395" y="88" type="curve"/>
      <point x="301" y="88"/>
      <point x="226" y="120"/>
      <point x="152" y="177" type="curve"/>
      <point x="121" y="155"/>
      <point x="124" y="136"/>
      <point x="93" y="114" type="curve"/>
      <point x="179" y="38"/>
      <point x="282" y="-5"/>
      <point x="409" y="-5" type="curve"/>
      <point x="590" y="-5"/>
      <point x="713" y="95"/>
      <point x="712" y="271" type="curve"/>
      <point x="712" y="440"/>
      <point x="594" y="539"/>
      <point x="421" y="539" type="curve"/>
      <point x="281" y="539"/>
      <point x="180" y="484"/>
      <point x="101" y="383" type="curve"/>
      <point x="128" y="351"/>
      <point x="124" y="347"/>
    </contour>
    <contour>
      <point x="192" y="-300" type="curve"/>
      <point x="192" y="-22"/>
      <point x="192" y="255"/>
      <point x="192" y="533" type="curve"/>
      <point x="67" y="533"/>
      <point x="192" y="533"/>
      <point x="67" y="533" type="curve"/>
      <point x="67" y="255"/>
      <point x="67" y="-22"/>
      <point x="67" y="-300" type="curve"/>
      <point x="192" y="-300"/>
      <point x="67" y="-300"/>
    </contour>
  </outline>
</glyph>
<glyph name="q" format="1">
  <advance width="761"/>
  <unicode hex="0071"/>
  <outline>
    <contour>
      <point x="658" y="393" type="curve"/>
      <point x="567" y="484"/>
      <point x="472" y="538"/>
      <point x="341" y="538" type="curve"/>
      <point x="162" y="538"/>
      <point x="40" y="438"/>
      <point x="40" y="263" type="curve"/>
      <point x="40" y="88"/>
      <point x="167" y="-5"/>
      <point x="346" y="-5" type="curve"/>
      <point x="482" y="-5"/>
      <point x="579" y="54"/>
      <point x="677" y="148" type="curve"/>
      <point x="646" y="174"/>
      <point x="637" y="178"/>
      <point x="605" y="203" type="curve"/>
      <point x="542" y="124"/>
      <point x="462" y="88"/>
      <point x="363" y="88" type="curve"/>
      <point x="247" y="88"/>
      <point x="166" y="152"/>
      <point x="166" y="267" type="curve"/>
      <point x="166" y="382"/>
      <point x="246" y="444"/>
      <point x="361" y="444" type="curve"/>
      <point x="463" y="444"/>
      <point x="545" y="397"/>
      <point x="610" y="327" type="curve"/>
      <point x="636" y="355"/>
      <point x="631" y="365"/>
    </contour>
    <contour>
      <point x="695" y="-300" type="curve"/>
      <point x="695" y="-2"/>
      <point x="695" y="235"/>
      <point x="695" y="533" type="curve"/>
      <point x="635" y="533"/>
      <point x="622" y="533"/>
      <point x="563" y="533" type="curve"/>
      <point x="563" y="235"/>
      <point x="563" y="-2"/>
      <point x="563" y="-300" type="curve"/>
      <point x="622" y="-300"/>
      <point x="635" y="-300"/>
    </contour>
  </outline>
</glyph>
<glyph name="r" format="1">
  <advance width="460"/>
  <unicode hex="0072"/>
  <outline>
    <contour>
      <point x="193" y="0" type="curve"/>
      <point x="193" y="196"/>
      <point x="193" y="337"/>
      <point x="193" y="533" type="curve"/>
      <point x="134" y="533"/>
      <point x="126" y="533"/>
      <point x="67" y="533" type="curve"/>
      <point x="67" y="337"/>
      <point x="67" y="196"/>
      <point x="67" y="0" type="curve"/>
      <point x="126" y="0"/>
      <point x="134" y="0"/>
    </contour>
    <contour>
      <point x="160" y="275" type="curve"/>
      <point x="227" y="396"/>
      <point x="318" y="428"/>
      <point x="450" y="428" type="curve"/>
      <point x="450" y="479"/>
      <point x="450" y="487"/>
      <point x="450" y="538" type="curve"/>
      <point x="299" y="538"/>
      <point x="198" y="475"/>
      <point x="120" y="344" type="curve"/>
      <point x="141" y="311"/>
      <point x="139" y="309"/>
    </contour>
    <contour>
      <point x="187" y="625" type="move" name="top"/>
    </contour>
    <contour>
      <point x="146" y="23" type="move" name="bottom"/>
    </contour>
  </outline>
</glyph>
<glyph name="s" format="1">
  <advance width="591"/>
  <unicode hex="0073"/>
  <outline>
    <contour>
      <point x="33" y="47" type="curve"/>
      <point x="125" y="15"/>
      <point x="197" y="-5"/>
      <point x="292" y="-5" type="curve"/>
      <point x="445" y="-5"/>
      <point x="563" y="30"/>
      <point x="563" y="158" type="curve"/>
      <point x="563" y="280"/>
      <point x="442" y="289"/>
      <point x="306" y="319" type="curve" smooth="yes"/>
      <point x="231" y="336"/>
      <point x="157" y="347"/>
      <point x="157" y="394" type="curve"/>
      <point x="157" y="430"/>
      <point x="210" y="444"/>
      <point x="275" y="444" type="curve"/>
      <point x="335" y="444"/>
      <point x="409" y="428"/>
      <point x="460" y="408" type="curve"/>
      <point x="508" y="492"/>
      <point x="460" y="408"/>
      <point x="509" y="492" type="curve"/>
      <point x="455" y="517"/>
      <point x="358" y="538"/>
      <point x="280" y="538" type="curve"/>
      <point x="145" y="538"/>
      <point x="42" y="505"/>
      <point x="42" y="393" type="curve"/>
      <point x="42" y="283"/>
      <point x="141" y="256"/>
      <point x="266" y="229" type="curve" smooth="yes"/>
      <point x="350" y="209"/>
      <point x="442" y="206"/>
      <point x="442" y="155" type="curve"/>
      <point x="442" y="109"/>
      <point x="382" y="89"/>
      <point x="309" y="89" type="curve"/>
      <point x="229" y="89"/>
      <point x="173" y="105"/>
      <point x="85" y="134" type="curve"/>
      <point x="33" y="47"/>
      <point x="85" y="134"/>
    </contour>
    <contour>
      <point x="283" y="625" type="move" name="top"/>
    </contour>
    <contour>
      <point x="317" y="6" type="move" name="bottom"/>
    </contour>
  </outline>
</glyph>
<glyph name="t" format="1">
  <advance width="510"/>
  <unicode hex="0074"/>
  <outline>
    <contour>
      <point x="26" y="440" type="curve"/>
      <point x="481" y="440" type="line"/>
      <point x="481" y="534"/>
      <point x="481" y="440"/>
      <point x="481" y="534" type="curve"/>
      <point x="26" y="534" type="line"/>
      <point x="26" y="440"/>
      <point x="26" y="534"/>
    </contour>
    <contour>
      <point x="466" y="110" type="curve"/>
      <point x="432" y="96"/>
      <point x="405" y="91"/>
      <point x="369" y="91" type="curve"/>
      <point x="313" y="91"/>
      <point x="282" y="115"/>
      <point x="282" y="170" type="curve"/>
      <point x="282" y="688" type="line"/>
      <point x="266" y="678"/>
      <point x="172" y="629"/>
      <point x="156" y="619" type="curve"/>
      <point x="156" y="165" type="line"/>
      <point x="156" y="46"/>
      <point x="235" y="-6"/>
      <point x="356" y="-6" type="curve"/>
      <point x="417" y="-6"/>
      <point x="459" y="10"/>
      <point x="499" y="27" type="curve"/>
      <point x="466" y="110"/>
      <point x="499" y="27"/>
    </contour>
    <contour>
      <point x="374" y="6" type="move" name="bottom"/>
    </contour>
  </outline>
</glyph>
<glyph name="v" format="1">
  <advance width="697"/>
  <unicode hex="0076"/>
  <outline>
    <contour>
      <point x="17" y="533" type="curve"/>
      <point x="103" y="355"/>
      <point x="190" y="178"/>
      <point x="277" y="0" type="curve"/>
      <point x="403" y="0"/>
      <point x="277" y="0"/>
      <point x="403" y="0" type="curve"/>
      <point x="317" y="178"/>
      <point x="231" y="355"/>
      <point x="145" y="533" type="curve"/>
      <point x="17" y="533"/>
      <point x="145" y="533"/>
    </contour>
    <contour>
      <point x="558" y="533" type="curve"/>
      <point x="285" y="0" type="line"/>
      <point x="411" y="0"/>
      <point x="285" y="0"/>
      <point x="411" y="0" type="curve"/>
      <point x="502" y="178"/>
      <point x="593" y="355"/>
      <point x="685" y="533" type="curve"/>
      <point x="558" y="533"/>
      <point x="685" y="533"/>
    </contour>
  </outline>
</glyph>
<glyph name="w" format="1">
  <advance width="1114"/>
  <unicode hex="0077"/>
  <outline>
    <contour>
      <point x="371" y="0" type="curve"/>
      <point x="456" y="178"/>
      <point x="541" y="355"/>
      <point x="626" y="533" type="curve"/>
      <point x="499" y="533"/>
      <point x="626" y="533"/>
      <point x="499" y="533" type="curve"/>
      <point x="415" y="355"/>
      <point x="331" y="178"/>
      <point x="248" y="0" type="curve"/>
      <point x="371" y="0"/>
      <point x="248" y="0"/>
    </contour>
    <contour>
      <point x="972" y="533" type="curve"/>
      <point x="893" y="355"/>
      <point x="815" y="178"/>
      <point x="737" y="0" type="curve"/>
      <point x="860" y="0"/>
      <point x="737" y="0"/>
      <point x="860" y="0" type="curve"/>
      <point x="940" y="178"/>
      <point x="1019" y="355"/>
      <point x="1099" y="533" type="curve"/>
      <point x="972" y="533"/>
      <point x="1099" y="533"/>
    </contour>
    <contour>
      <point x="506" y="533" type="curve"/>
      <point x="583" y="355"/>
      <point x="659" y="178"/>
      <point x="735" y="0" type="curve"/>
      <point x="859" y="0"/>
      <point x="735" y="0"/>
      <point x="859" y="0" type="curve"/>
      <point x="784" y="178"/>
      <point x="708" y="355"/>
      <point x="632" y="533" type="curve"/>
      <point x="506" y="533"/>
      <point x="632" y="533"/>
    </contour>
    <contour>
      <point x="18" y="533" type="curve"/>
      <point x="94" y="355"/>
      <point x="170" y="178"/>
      <point x="246" y="0" type="curve"/>
      <point x="370" y="0"/>
      <point x="246" y="0"/>
      <point x="370" y="0" type="curve"/>
      <point x="295" y="178"/>
      <point x="219" y="355"/>
      <point x="144" y="533" type="curve"/>
      <point x="18" y="533"/>
      <point x="144" y="533"/>
    </contour>
  </outline>
</glyph>
<glyph name="x" format="1">
  <advance width="734"/>
  <unicode hex="0078"/>
  <outline>
    <contour>
      <point x="721" y="0" type="curve"/>
      <point x="677" y="43"/>
      <point x="200" y="490"/>
      <point x="156" y="533" type="curve"/>
      <point x="-41" y="533"/>
      <point x="219" y="533"/>
      <point x="22" y="533" type="curve"/>
      <point x="65" y="490"/>
      <point x="530" y="43"/>
      <point x="573" y="0" type="curve"/>
      <point x="721" y="0"/>
      <point x="573" y="0"/>
    </contour>
    <contour>
      <point x="581" y="533" type="curve"/>
      <point x="537" y="490"/>
      <point x="52" y="43"/>
      <point x="8" y="0" type="curve"/>
      <point x="160" y="0"/>
      <point x="8" y="0"/>
      <point x="160" y="0" type="curve"/>
      <point x="204" y="43"/>
      <point x="677" y="490"/>
      <point x="721" y="533" type="curve"/>
      <point x="493" y="533"/>
      <point x="809" y="533"/>
    </contour>
  </outline>
</glyph>
<glyph name="braceleft" format="1">
  <advance width="358"/>
  <unicode hex="007B"/>
  <outline>
    <contour>
      <point x="319" y="-18" type="curve"/>
      <point x="266" y="-18"/>
      <point x="231" y="8"/>
      <point x="231" y="58" type="curve"/>
      <point x="231" y="111"/>
      <point x="231" y="163"/>
      <point x="231" y="216" type="curve"/>
      <point x="231" y="328"/>
      <point x="147" y="390"/>
      <point x="30" y="390" type="curve"/>
      <point x="30" y="292"/>
      <point x="30" y="390"/>
      <point x="30" y="292" type="curve"/>
      <point x="80" y="292"/>
      <point x="117" y="272"/>
      <point x="117" y="225" type="curve"/>
      <point x="117" y="171"/>
      <point x="117" y="117"/>
      <point x="117" y="63" type="curve"/>
      <point x="117" y="-51"/>
      <point x="200" y="-111"/>
      <point x="319" y="-111" type="curve"/>
      <point x="319" y="-18"/>
      <point x="319" y="-111"/>
    </contour>
    <contour>
      <point x="319" y="792" type="curve"/>
      <point x="199" y="792"/>
      <point x="116" y="734"/>
      <point x="116" y="621" type="curve"/>
      <point x="116" y="565"/>
      <point x="116" y="509"/>
      <point x="116" y="453" type="curve"/>
      <point x="116" y="407"/>
      <point x="79" y="390"/>
      <point x="30" y="390" type="curve"/>
      <point x="30" y="292"/>
      <point x="30" y="390"/>
      <point x="30" y="292" type="curve"/>
      <point x="148" y="292"/>
      <point x="231" y="353"/>
      <point x="231" y="467" type="curve"/>
      <point x="231" y="518"/>
      <point x="231" y="569"/>
      <point x="231" y="621" type="curve"/>
      <point x="231" y="672"/>
      <point x="266" y="699"/>
      <point x="319" y="699" type="curve"/>
      <point x="319" y="792"/>
      <point x="319" y="699"/>
    </contour>
  </outline>
</glyph>
<glyph name="braceright" format="1">
  <advance width="359"/>
  <unicode hex="007D"/>
  <outline>
    <contour>
      <point x="38" y="-111" type="curve"/>
      <point x="157" y="-111"/>
      <point x="240" y="-51"/>
      <point x="240" y="63" type="curve"/>
      <point x="240" y="117"/>
      <point x="240" y="171"/>
      <point x="240" y="225" type="curve"/>
      <point x="240" y="272"/>
      <point x="277" y="292"/>
      <point x="327" y="292" type="curve"/>
      <point x="327" y="390"/>
      <point x="327" y="292"/>
      <point x="327" y="390" type="curve"/>
      <point x="209" y="390"/>
      <point x="125" y="328"/>
      <point x="125" y="216" type="curve"/>
      <point x="125" y="163"/>
      <point x="125" y="111"/>
      <point x="125" y="58" type="curve"/>
      <point x="125" y="8"/>
      <point x="90" y="-18"/>
      <point x="38" y="-18" type="curve"/>
      <point x="38" y="-111"/>
      <point x="38" y="-18"/>
    </contour>
    <contour>
      <point x="38" y="698" type="curve"/>
      <point x="91" y="698"/>
      <point x="125" y="672"/>
      <point x="125" y="621" type="curve"/>
      <point x="125" y="569"/>
      <point x="125" y="518"/>
      <point x="125" y="467" type="curve"/>
      <point x="125" y="352"/>
      <point x="208" y="292"/>
      <point x="327" y="292" type="curve"/>
      <point x="327" y="390"/>
      <point x="327" y="292"/>
      <point x="327" y="390" type="curve"/>
      <point x="277" y="390"/>
      <point x="240" y="407"/>
      <point x="240" y="453" type="curve"/>
      <point x="240" y="509"/>
      <point x="240" y="565"/>
      <point x="240" y="621" type="curve"/>
      <point x="240" y="734"/>
      <point x="157" y="792"/>
      <point x="38" y="792" type="curve"/>
      <point x="38" y="698"/>
      <point x="38" y="792"/>
    </contour>
  </outline>
</glyph>
<glyph name="asciitilde" format="1">
  <advance width="798"/>
  <unicode hex="007E"/>
  <outline>
    <contour>
      <point x="648" y="372" type="curve"/>
      <point x="627" y="326"/>
      <point x="606" y="290"/>
      <point x="555" y="290" type="curve"/>
      <point x="504" y="290"/>
      <point x="473" y="300"/>
      <point x="429" y="326" type="curve"/>
      <point x="367" y="364"/>
      <point x="325" y="383"/>
      <point x="252" y="383" type="curve"/>
      <point x="148" y="383"/>
      <point x="89" y="340"/>
      <point x="53" y="244" type="curve"/>
      <point x="89" y="226"/>
      <point x="104" y="220"/>
      <point x="142" y="204" type="curve"/>
      <point x="161" y="256"/>
      <point x="189" y="290"/>
      <point x="246" y="290" type="curve"/>
      <point x="290" y="290"/>
      <point x="316" y="281"/>
      <point x="353" y="258" type="curve"/>
      <point x="421" y="218"/>
      <point x="465" y="198"/>
      <point x="545" y="197" type="curve"/>
      <point x="647" y="197"/>
      <point x="702" y="240"/>
      <point x="745" y="330" type="curve"/>
      <point x="704" y="348"/>
      <point x="689" y="355"/>
    </contour>
  </outline>
</glyph>
<glyph name="exclamdown" format="1">
  <advance width="267"/>
  <unicode hex="00A1"/>
  <outline>
    <contour>
      <point x="85" y="306" type="line"/>
      <point x="70" y="-187" type="line"/>
      <point x="199" y="-187" type="line"/>
      <point x="184" y="306" type="line"/>
    </contour>
    <contour>
      <point x="59" y="483" type="curve"/>
      <point x="59" y="441"/>
      <point x="91" y="422"/>
      <point x="135" y="422" type="curve"/>
      <point x="178" y="422"/>
      <point x="208" y="444"/>
      <point x="208" y="483" type="curve"/>
      <point x="64" y="483"/>
      <point x="203" y="483"/>
      <point x="59" y="483" type="curve"/>
      <point x="59" y="526"/>
      <point x="91" y="544"/>
      <point x="136" y="544" type="curve"/>
      <point x="179" y="544"/>
      <point x="208" y="523"/>
      <point x="208" y="483" type="curve"/>
      <point x="64" y="483"/>
      <point x="203" y="483"/>
    </contour>
  </outline>
</glyph>
<glyph name="cent" format="1">
  <advance width="780"/>
  <unicode hex="00A2"/>
  <outline>
    <contour>
      <point x="479" y="-53" type="curve"/>
      <point x="479" y="-13"/>
      <point x="479" y="27"/>
      <point x="479" y="67" type="curve"/>
      <point x="353" y="67"/>
      <point x="479" y="67"/>
      <point x="353" y="67" type="curve"/>
      <point x="353" y="27"/>
      <point x="353" y="-13"/>
      <point x="353" y="-53" type="curve"/>
      <point x="479" y="-53"/>
      <point x="353" y="-53"/>
    </contour>
    <contour>
      <point x="380" y="778" type="curve"/>
      <point x="380" y="742"/>
      <point x="380" y="706"/>
      <point x="380" y="670" type="curve"/>
      <point x="505" y="670"/>
      <point x="380" y="670"/>
      <point x="505" y="670" type="curve"/>
      <point x="505" y="706"/>
      <point x="505" y="742"/>
      <point x="505" y="778" type="curve"/>
      <point x="380" y="778"/>
      <point x="505" y="778"/>
    </contour>
    <contour>
      <point x="742" y="616" type="curve"/>
      <point x="643" y="667"/>
      <point x="564" y="685"/>
      <point x="452" y="685" type="curve"/>
      <point x="215" y="685"/>
      <point x="38" y="583"/>
      <point x="38" y="364" type="curve"/>
      <point x="38" y="157"/>
      <point x="191" y="47"/>
      <point x="409" y="47" type="curve"/>
      <point x="539" y="47"/>
      <point x="631" y="72"/>
      <point x="743" y="137" type="curve"/>
      <point x="676" y="220"/>
      <point x="743" y="137"/>
      <point x="676" y="220" type="curve"/>
      <point x="582" y="166"/>
      <point x="516" y="144"/>
      <point x="421" y="144" type="curve"/>
      <point x="269" y="144"/>
      <point x="164" y="223"/>
      <point x="164" y="369" type="curve"/>
      <point x="164" y="517"/>
      <point x="281" y="588"/>
      <point x="440" y="588" type="curve"/>
      <point x="530" y="588"/>
      <point x="594" y="573"/>
      <point x="686" y="531" type="curve"/>
      <point x="742" y="616"/>
      <point x="686" y="531"/>
    </contour>
  </outline>
</glyph>
<glyph name="sterling" format="1">
  <advance width="614"/>
  <unicode hex="00A3"/>
  <outline>
    <contour>
      <point x="547" y="93" type="curve"/>
      <point x="378" y="93"/>
      <point x="209" y="93"/>
      <point x="41" y="93" type="curve"/>
      <point x="41" y="0"/>
      <point x="41" y="93"/>
      <point x="41" y="0" type="curve"/>
      <point x="209" y="0"/>
      <point x="378" y="0"/>
      <point x="547" y="0" type="curve"/>
      <point x="547" y="93"/>
      <point x="547" y="0"/>
    </contour>
    <contour>
      <point x="487" y="422" type="curve"/>
      <point x="353" y="422"/>
      <point x="218" y="422"/>
      <point x="84" y="422" type="curve"/>
      <point x="84" y="329"/>
      <point x="84" y="422"/>
      <point x="84" y="329" type="curve"/>
      <point x="218" y="329"/>
      <point x="353" y="329"/>
      <point x="487" y="329" type="curve"/>
      <point x="487" y="422"/>
      <point x="487" y="329"/>
    </contour>
    <contour>
      <point x="580" y="664" type="curve"/>
      <point x="518" y="707"/>
      <point x="467" y="721"/>
      <point x="393" y="721" type="curve"/>
      <point x="205" y="721"/>
      <point x="100" y="562"/>
      <point x="156" y="366" type="curve"/>
      <point x="197" y="220"/>
      <point x="157" y="93"/>
      <point x="41" y="93" type="curve"/>
      <point x="41" y="0"/>
      <point x="41" y="93"/>
      <point x="41" y="0" type="curve"/>
      <point x="242" y="0"/>
      <point x="339" y="175"/>
      <point x="281" y="384" type="curve"/>
      <point x="244" y="517"/>
      <point x="287" y="632"/>
      <point x="387" y="632" type="curve"/>
      <point x="439" y="632"/>
      <point x="475" y="620"/>
      <point x="521" y="595" type="curve"/>
      <point x="580" y="664"/>
      <point x="521" y="595"/>
    </contour>
  </outline>
</glyph>
<glyph name="currency" format="1">
  <advance width="746"/>
  <unicode hex="00A4"/>
  <outline>
    <contour>
      <point x="252" y="315" type="curve"/>
      <point x="252" y="379"/>
      <point x="303" y="411"/>
      <point x="372" y="411" type="curve"/>
      <point x="444" y="411"/>
      <point x="495" y="380"/>
      <point x="495" y="314" type="curve"/>
      <point x="495" y="249"/>
      <point x="449" y="214"/>
      <point x="382" y="214" type="curve"/>
      <point x="306" y="214"/>
      <point x="252" y="246"/>
      <point x="252" y="315" type="curve"/>
      <point x="126" y="315"/>
      <point x="252" y="315"/>
      <point x="126" y="315" type="curve"/>
      <point x="126" y="182"/>
      <point x="233" y="121"/>
      <point x="377" y="121" type="curve"/>
      <point x="518" y="121"/>
      <point x="621" y="187"/>
      <point x="621" y="318" type="curve"/>
      <point x="621" y="444"/>
      <point x="519" y="505"/>
      <point x="383" y="505" type="curve"/>
      <point x="237" y="505"/>
      <point x="126" y="447"/>
      <point x="126" y="315" type="curve"/>
      <point x="252" y="315"/>
      <point x="126" y="315"/>
    </contour>
    <contour>
      <point x="537" y="321" type="line"/>
      <point x="700" y="473" type="line"/>
      <point x="601" y="572" type="line"/>
      <point x="449" y="409" type="line"/>
    </contour>
    <contour>
      <point x="450" y="222" type="line"/>
      <point x="602" y="58" type="line"/>
      <point x="701" y="158" type="line"/>
      <point x="538" y="309" type="line"/>
    </contour>
    <contour>
      <point x="208" y="311" type="line"/>
      <point x="45" y="160" type="line"/>
      <point x="144" y="60" type="line"/>
      <point x="296" y="224" type="line"/>
    </contour>
    <contour>
      <point x="297" y="410" type="line"/>
      <point x="145" y="574" type="line"/>
      <point x="45" y="474" type="line"/>
      <point x="209" y="323" type="line"/>
    </contour>
  </outline>
</glyph>
<glyph name="yen" format="1">
  <advance width="804"/>
  <unicode hex="00A5"/>
  <outline>
    <contour>
      <point x="687" y="431" type="curve"/>
      <point x="599" y="431"/>
      <point x="511" y="431"/>
      <point x="423" y="431" type="curve"/>
      <point x="423" y="329"/>
      <point x="423" y="431"/>
      <point x="423" y="329" type="curve"/>
      <point x="511" y="329"/>
      <point x="599" y="329"/>
      <point x="687" y="329" type="curve"/>
      <point x="687" y="431"/>
      <point x="687" y="329"/>
    </contour>
    <contour>
      <point x="386" y="431" type="curve"/>
      <point x="300" y="431"/>
      <point x="213" y="431"/>
      <point x="126" y="431" type="curve"/>
      <point x="126" y="329"/>
      <point x="126" y="431"/>
      <point x="126" y="329" type="curve"/>
      <point x="213" y="329"/>
      <point x="300" y="329"/>
      <point x="386" y="329" type="curve"/>
      <point x="386" y="431"/>
      <point x="386" y="329"/>
    </contour>
    <contour>
      <point x="687" y="275" type="curve"/>
      <point x="501" y="275"/>
      <point x="313" y="275"/>
      <point x="126" y="275" type="curve"/>
      <point x="126" y="172"/>
      <point x="126" y="275"/>
      <point x="126" y="172" type="curve"/>
      <point x="313" y="172"/>
      <point x="501" y="172"/>
      <point x="687" y="172" type="curve"/>
      <point x="687" y="275"/>
      <point x="687" y="172"/>
    </contour>
    <contour>
      <point x="30" y="722" type="curve"/>
      <point x="120" y="604"/>
      <point x="246" y="456"/>
      <point x="337" y="337" type="curve"/>
      <point x="464" y="337"/>
      <point x="335" y="338"/>
      <point x="463" y="338" type="curve"/>
      <point x="365" y="466"/>
      <point x="269" y="594"/>
      <point x="171" y="722" type="curve"/>
      <point x="65" y="722"/>
      <point x="136" y="722"/>
    </contour>
    <contour>
      <point x="647" y="722" type="curve"/>
      <point x="544" y="594"/>
      <point x="441" y="466"/>
      <point x="338" y="338" type="curve"/>
      <point x="466" y="338"/>
      <point x="337" y="337"/>
      <point x="465" y="337" type="curve"/>
      <point x="562" y="456"/>
      <point x="682" y="603"/>
      <point x="778" y="722" type="curve"/>
      <point x="672" y="722"/>
      <point x="754" y="722"/>
    </contour>
    <contour>
      <point x="470" y="0" type="curve"/>
      <point x="470" y="115"/>
      <point x="470" y="230"/>
      <point x="470" y="345" type="curve"/>
      <point x="332" y="345"/>
      <point x="470" y="345"/>
      <point x="332" y="345" type="curve"/>
      <point x="332" y="230"/>
      <point x="332" y="115"/>
      <point x="332" y="0" type="curve"/>
      <point x="470" y="0"/>
      <point x="332" y="0"/>
    </contour>
  </outline>
</glyph>
<glyph name="section" format="1">
  <advance width="613"/>
  <unicode hex="00A7"/>
  <outline>
    <contour>
      <point x="512" y="704" type="curve"/>
      <point x="440" y="733"/>
      <point x="388" y="749"/>
      <point x="311" y="749" type="curve"/>
      <point x="182" y="749"/>
      <point x="83" y="709"/>
      <point x="83" y="600" type="curve"/>
      <point x="83" y="503"/>
      <point x="161" y="463"/>
      <point x="262" y="437" type="curve"/>
      <point x="347" y="416"/>
      <point x="450" y="418"/>
      <point x="450" y="355" type="curve"/>
      <point x="450" y="295"/>
      <point x="388" y="281"/>
      <point x="315" y="271" type="curve"/>
      <point x="389" y="197"/>
      <point x="315" y="271"/>
      <point x="389" y="197" type="curve"/>
      <point x="496" y="216"/>
      <point x="576" y="260"/>
      <point x="576" y="361" type="curve"/>
      <point x="575" y="483"/>
      <point x="453" y="497"/>
      <point x="324" y="525" type="curve"/>
      <point x="266" y="540"/>
      <point x="207" y="549"/>
      <point x="207" y="600" type="curve"/>
      <point x="207" y="644"/>
      <point x="248" y="656"/>
      <point x="300" y="656" type="curve"/>
      <point x="360" y="656"/>
      <point x="400" y="648"/>
      <point x="463" y="624" type="curve"/>
      <point x="512" y="704"/>
      <point x="463" y="624"/>
    </contour>
    <contour>
      <point x="221" y="525" type="curve"/>
      <point x="120" y="503"/>
      <point x="40" y="464"/>
      <point x="40" y="366" type="curve"/>
      <point x="40" y="252"/>
      <point x="145" y="227"/>
      <point x="266" y="199" type="curve"/>
      <point x="336" y="181"/>
      <point x="414" y="174"/>
      <point x="414" y="122" type="curve"/>
      <point x="414" y="78"/>
      <point x="367" y="66"/>
      <point x="311" y="66" type="curve"/>
      <point x="245" y="66"/>
      <point x="201" y="78"/>
      <point x="130" y="108" type="curve"/>
      <point x="73" y="33"/>
      <point x="130" y="108"/>
      <point x="73" y="33" type="curve"/>
      <point x="152" y="-10"/>
      <point x="216" y="-27"/>
      <point x="305" y="-27" type="curve"/>
      <point x="434" y="-27"/>
      <point x="540" y="11"/>
      <point x="540" y="126" type="curve"/>
      <point x="538" y="228"/>
      <point x="452" y="264"/>
      <point x="346" y="287" type="curve"/>
      <point x="262" y="308"/>
      <point x="166" y="308"/>
      <point x="166" y="375" type="curve"/>
      <point x="166" y="429"/>
      <point x="221" y="441"/>
      <point x="284" y="456" type="curve"/>
      <point x="221" y="525"/>
      <point x="284" y="456"/>
    </contour>
  </outline>
</glyph>
<glyph name="dieresis" format="1">
  <advance width="451"/>
  <unicode hex="00A8"/>
  <outline>
    <contour>
      <point x="189" y="600" type="curve"/>
      <point x="189" y="642"/>
      <point x="157" y="662"/>
      <point x="113" y="662" type="curve"/>
      <point x="70" y="662"/>
      <point x="40" y="640"/>
      <point x="40" y="600" type="curve"/>
      <point x="184" y="600"/>
      <point x="45" y="600"/>
      <point x="189" y="600" type="curve"/>
      <point x="189" y="558"/>
      <point x="157" y="540"/>
      <point x="113" y="540" type="curve"/>
      <point x="69" y="540"/>
      <point x="40" y="560"/>
      <point x="40" y="600" type="curve"/>
      <point x="184" y="600"/>
      <point x="45" y="600"/>
    </contour>
    <contour>
      <point x="406" y="600" type="curve"/>
      <point x="406" y="642"/>
      <point x="374" y="662"/>
      <point x="330" y="662" type="curve"/>
      <point x="287" y="662"/>
      <point x="257" y="640"/>
      <point x="257" y="600" type="curve"/>
      <point x="401" y="600"/>
      <point x="262" y="600"/>
      <point x="406" y="600" type="curve"/>
      <point x="406" y="558"/>
      <point x="374" y="540"/>
      <point x="329" y="540" type="curve"/>
      <point x="286" y="540"/>
      <point x="257" y="560"/>
      <point x="257" y="600" type="curve"/>
      <point x="401" y="600"/>
      <point x="262" y="600"/>
    </contour>
    <contour>
      <point x="223" y="542" type="move" name="_top"/>
    </contour>
  </outline>
</glyph>
<glyph name="copyright" format="1">
  <advance width="951"/>
  <unicode hex="00A9"/>
  <outline>
    <contour>
      <point x="146" y="323" type="curve"/>
      <point x="146" y="491"/>
      <point x="296" y="569"/>
      <point x="478" y="569" type="curve"/>
      <point x="657" y="569"/>
      <point x="803" y="487"/>
      <point x="803" y="321" type="curve"/>
      <point x="803" y="161"/>
      <point x="661" y="79"/>
      <point x="488" y="79" type="curve"/>
      <point x="303" y="79"/>
      <point x="146" y="154"/>
      <point x="146" y="323" type="curve"/>
      <point x="43" y="323"/>
      <point x="146" y="323"/>
      <point x="44" y="323" type="curve"/>
      <point x="44" y="106"/>
      <point x="243" y="4"/>
      <point x="484" y="4" type="curve"/>
      <point x="715" y="4"/>
      <point x="904" y="111"/>
      <point x="904" y="325" type="curve"/>
      <point x="904" y="539"/>
      <point x="712" y="645"/>
      <point x="478" y="645" type="curve"/>
      <point x="241" y="645"/>
      <point x="44" y="542"/>
      <point x="44" y="323" type="curve"/>
      <point x="146" y="323"/>
      <point x="43" y="323"/>
    </contour>
    <contour>
      <point x="654" y="462" type="curve"/>
      <point x="610" y="490"/>
      <point x="551" y="510"/>
      <point x="484" y="510" type="curve"/>
      <point x="346" y="510"/>
      <point x="242" y="450"/>
      <point x="242" y="322" type="curve"/>
      <point x="242" y="200"/>
      <point x="336" y="140"/>
      <point x="466" y="140" type="curve"/>
      <point x="542" y="140"/>
      <point x="596" y="151"/>
      <point x="657" y="186" type="curve"/>
      <point x="614" y="248"/>
      <point x="657" y="186"/>
      <point x="614" y="248" type="curve"/>
      <point x="560" y="222"/>
      <point x="520" y="215"/>
      <point x="470" y="215" type="curve"/>
      <point x="395" y="215"/>
      <point x="343" y="254"/>
      <point x="343" y="326" type="curve"/>
      <point x="343" y="400"/>
      <point x="400" y="434"/>
      <point x="480" y="434" type="curve"/>
      <point x="515" y="434"/>
      <point x="558" y="428"/>
      <point x="608" y="405" type="curve"/>
      <point x="655" y="463"/>
      <point x="608" y="405"/>
    </contour>
  </outline>
</glyph>
<glyph name="ordfeminine" format="1">
  <advance width="478"/>
  <unicode hex="00AA"/>
  <outline>
    <contour>
      <point x="419" y="426" type="curve"/>
      <point x="419" y="511"/>
      <point x="419" y="586"/>
      <point x="419" y="671" type="curve"/>
      <point x="419" y="761"/>
      <point x="338" y="781"/>
      <point x="240" y="781" type="curve"/>
      <point x="166" y="781"/>
      <point x="108" y="761"/>
      <point x="63" y="730" type="curve"/>
      <point x="94" y="678"/>
      <point x="69" y="725"/>
      <point x="100" y="673" type="curve"/>
      <point x="129" y="695"/>
      <point x="172" y="716"/>
      <point x="228" y="716" type="curve"/>
      <point x="283" y="716"/>
      <point x="332" y="707"/>
      <point x="332" y="656" type="curve"/>
      <point x="332" y="577"/>
      <point x="332" y="505"/>
      <point x="332" y="426" type="curve"/>
      <point x="415" y="426"/>
      <point x="336" y="426"/>
    </contour>
    <contour>
      <point x="373" y="653" type="curve"/>
      <point x="309" y="646"/>
      <point x="268" y="645"/>
      <point x="203" y="639" type="curve"/>
      <point x="112" y="630"/>
      <point x="41" y="612"/>
      <point x="41" y="531" type="curve"/>
      <point x="41" y="451"/>
      <point x="105" y="421"/>
      <point x="194" y="421" type="curve"/>
      <point x="283" y="421"/>
      <point x="330" y="461"/>
      <point x="394" y="526" type="curve"/>
      <point x="356" y="557"/>
      <point x="392" y="528"/>
      <point x="353" y="559" type="curve"/>
      <point x="310" y="516"/>
      <point x="268" y="484"/>
      <point x="208" y="484" type="curve"/>
      <point x="162" y="484"/>
      <point x="126" y="495"/>
      <point x="126" y="532" type="curve"/>
      <point x="126" y="568"/>
      <point x="161" y="577"/>
      <point x="200" y="581" type="curve"/>
      <point x="268" y="587"/>
      <point x="309" y="591"/>
      <point x="377" y="598" type="curve"/>
      <point x="373" y="650"/>
      <point x="377" y="601"/>
    </contour>
  </outline>
</glyph>
<glyph name="guillemotleft" format="1">
  <advance width="661"/>
  <unicode hex="00AB"/>
  <outline>
    <contour>
      <point x="306" y="462" type="curve"/>
      <point x="252" y="436"/>
      <point x="92" y="363"/>
      <point x="38" y="337" type="curve"/>
      <point x="38" y="234"/>
      <point x="38" y="335"/>
      <point x="38" y="233" type="curve"/>
      <point x="92" y="259"/>
      <point x="252" y="333"/>
      <point x="306" y="359" type="curve"/>
      <point x="306" y="461"/>
      <point x="306" y="360"/>
    </contour>
    <contour>
      <point x="306" y="213" type="curve"/>
      <point x="252" y="238"/>
      <point x="92" y="310"/>
      <point x="38" y="337" type="curve"/>
      <point x="38" y="234"/>
      <point x="38" y="335"/>
      <point x="38" y="233" type="curve"/>
      <point x="92" y="207"/>
      <point x="252" y="136"/>
      <point x="306" y="109" type="curve"/>
      <point x="306" y="212"/>
      <point x="306" y="110"/>
    </contour>
    <contour>
      <point x="599" y="462" type="curve"/>
      <point x="546" y="436"/>
      <point x="386" y="363"/>
      <point x="332" y="337" type="curve"/>
      <point x="332" y="234"/>
      <point x="332" y="335"/>
      <point x="332" y="233" type="curve"/>
      <point x="386" y="259"/>
      <point x="546" y="333"/>
      <point x="599" y="359" type="curve"/>
      <point x="599" y="461"/>
      <point x="599" y="360"/>
    </contour>
    <contour>
      <point x="599" y="213" type="curve"/>
      <point x="546" y="238"/>
      <point x="386" y="310"/>
      <point x="332" y="337" type="curve"/>
      <point x="332" y="234"/>
      <point x="332" y="335"/>
      <point x="332" y="233" type="curve"/>
      <point x="386" y="207"/>
      <point x="546" y="136"/>
      <point x="599" y="109" type="curve"/>
      <point x="599" y="212"/>
      <point x="599" y="110"/>
    </contour>
  </outline>
</glyph>
<glyph name="logicalnot" format="1">
  <advance width="744"/>
  <unicode hex="00AC"/>
  <outline>
    <contour>
      <point x="62" y="261" type="curve"/>
      <point x="679" y="261" type="line"/>
      <point x="679" y="363"/>
      <point x="679" y="261"/>
      <point x="679" y="363" type="curve"/>
      <point x="62" y="363" type="line"/>
      <point x="62" y="261"/>
      <point x="62" y="363"/>
    </contour>
    <contour>
      <point x="679" y="142" type="curve"/>
      <point x="679" y="363" type="line"/>
      <point x="553" y="363"/>
      <point x="686" y="363"/>
      <point x="560" y="363" type="curve"/>
      <point x="560" y="142" type="line"/>
      <point x="686" y="142"/>
      <point x="553" y="142"/>
    </contour>
  </outline>
</glyph>
<glyph name="registered" format="1">
  <advance width="942"/>
  <unicode hex="00AE"/>
  <outline>
    <contour>
      <point x="141" y="323" type="curve"/>
      <point x="141" y="500"/>
      <point x="286" y="577"/>
      <point x="475" y="577" type="curve"/>
      <point x="661" y="577"/>
      <point x="802" y="496"/>
      <point x="802" y="321" type="curve"/>
      <point x="802" y="151"/>
      <point x="665" y="72"/>
      <point x="485" y="72" type="curve"/>
      <point x="292" y="72"/>
      <point x="141" y="145"/>
      <point x="141" y="323" type="curve"/>
      <point x="102" y="323"/>
      <point x="85" y="323"/>
      <point x="47" y="323" type="curve"/>
      <point x="47" y="98"/>
      <point x="236" y="4"/>
      <point x="481" y="4" type="curve"/>
      <point x="717" y="4"/>
      <point x="895" y="104"/>
      <point x="895" y="325" type="curve"/>
      <point x="895" y="547"/>
      <point x="714" y="645"/>
      <point x="475" y="645" type="curve"/>
      <point x="233" y="645"/>
      <point x="47" y="548"/>
      <point x="47" y="323" type="curve"/>
      <point x="85" y="323"/>
      <point x="102" y="323"/>
    </contour>
    <contour>
      <point x="426" y="315" type="curve"/>
      <point x="459" y="275"/>
      <point x="521" y="183"/>
      <point x="553" y="142" type="curve"/>
      <point x="610" y="142"/>
      <point x="591" y="142"/>
      <point x="661" y="142" type="curve"/>
      <point x="628" y="186"/>
      <point x="569" y="269"/>
      <point x="537" y="311" type="curve"/>
      <point x="423" y="311"/>
      <point x="540" y="315"/>
    </contour>
    <contour>
      <point x="424" y="142" type="curve"/>
      <point x="424" y="259"/>
      <point x="424" y="388"/>
      <point x="424" y="505" type="curve"/>
      <point x="366" y="505"/>
      <point x="381" y="505"/>
      <point x="322" y="505" type="curve"/>
      <point x="322" y="388"/>
      <point x="322" y="259"/>
      <point x="322" y="142" type="curve"/>
      <point x="386" y="142"/>
      <point x="365" y="142"/>
    </contour>
    <contour>
      <point x="376" y="274" type="curve"/>
      <point x="400" y="274"/>
      <point x="425" y="274"/>
      <point x="450" y="274" type="curve"/>
      <point x="554" y="274"/>
      <point x="635" y="296"/>
      <point x="635" y="392" type="curve"/>
      <point x="635" y="474"/>
      <point x="563" y="505"/>
      <point x="472" y="505" type="curve"/>
      <point x="456" y="505"/>
      <point x="432" y="505"/>
      <point x="416" y="505" type="curve"/>
      <point x="322" y="433"/>
      <point x="424" y="505"/>
      <point x="322" y="430" type="curve"/>
      <point x="366" y="430"/>
      <point x="410" y="430"/>
      <point x="453" y="430" type="curve"/>
      <point x="497" y="430"/>
      <point x="535" y="426"/>
      <point x="535" y="388" type="curve"/>
      <point x="535" y="352"/>
      <point x="503" y="349"/>
      <point x="464" y="349" type="curve"/>
      <point x="435" y="349"/>
      <point x="405" y="349"/>
      <point x="376" y="349" type="curve"/>
      <point x="376" y="274"/>
      <point x="376" y="349"/>
    </contour>
  </outline>
</glyph>
<glyph name="macron" format="1">
  <advance width="396"/>
  <unicode hex="00AF"/>
  <outline>
    <contour>
      <point x="311" y="664" type="curve"/>
      <point x="216" y="664"/>
      <point x="122" y="664"/>
      <point x="28" y="664" type="curve"/>
      <point x="28" y="571"/>
      <point x="28" y="664"/>
      <point x="28" y="571" type="curve"/>
      <point x="122" y="571"/>
      <point x="216" y="571"/>
      <point x="311" y="571" type="curve"/>
      <point x="311" y="664"/>
      <point x="311" y="571"/>
    </contour>
    <contour>
      <point x="171" y="571" type="move" name="_top"/>
    </contour>
  </outline>
</glyph>
<glyph name="degree" format="1">
  <advance width="559"/>
  <unicode hex="00B0"/>
  <outline>
    <contour>
      <point x="519" y="482" type="curve"/>
      <point x="519" y="617"/>
      <point x="422" y="692"/>
      <point x="281" y="692" type="curve"/>
      <point x="139" y="692"/>
      <point x="40" y="619"/>
      <point x="40" y="484" type="curve"/>
      <point x="146" y="484"/>
      <point x="46" y="484"/>
      <point x="151" y="484" type="curve"/>
      <point x="151" y="557"/>
      <point x="200" y="602"/>
      <point x="279" y="602" type="curve"/>
      <point x="355" y="602"/>
      <point x="408" y="559"/>
      <point x="408" y="482" type="curve"/>
      <point x="408" y="404"/>
      <point x="359" y="355"/>
      <point x="281" y="355" type="curve"/>
      <point x="202" y="355"/>
      <point x="151" y="405"/>
      <point x="151" y="484" type="curve"/>
      <point x="46" y="484"/>
      <point x="146" y="484"/>
      <point x="40" y="484" type="curve"/>
      <point x="40" y="345"/>
      <point x="135" y="266"/>
      <point x="277" y="266" type="curve"/>
      <point x="421" y="266"/>
      <point x="519" y="343"/>
    </contour>
  </outline>
</glyph>
<glyph name="plusminus" format="1">
  <advance width="702"/>
  <unicode hex="00B1"/>
  <outline>
    <contour>
      <point x="51" y="21" type="line"/>
      <point x="652" y="21" type="line"/>
      <point x="652" y="123" type="line"/>
      <point x="51" y="123" type="line"/>
    </contour>
    <contour>
      <point x="51" y="261" type="curve"/>
      <point x="652" y="261" type="line"/>
      <point x="652" y="363"/>
      <point x="652" y="261"/>
      <point x="652" y="363" type="curve"/>
      <point x="51" y="363" type="line"/>
      <point x="51" y="261"/>
      <point x="51" y="363"/>
    </contour>
    <contour>
      <point x="412" y="21" type="curve"/>
      <point x="412" y="587" type="line"/>
      <point x="287" y="587"/>
      <point x="420" y="587"/>
      <point x="294" y="587" type="curve"/>
      <point x="294" y="21" type="line"/>
      <point x="420" y="21"/>
      <point x="287" y="21"/>
    </contour>
  </outline>
</glyph>
<glyph name="twosuperior" format="1">
  <advance width="551"/>
  <unicode hex="00B2"/>
  <outline>
    <contour>
      <point x="42" y="271" type="curve"/>
      <point x="230" y="271"/>
      <point x="367" y="271"/>
      <point x="503" y="271" type="curve"/>
      <point x="503" y="321"/>
      <point x="503" y="322"/>
      <point x="503" y="362" type="curve"/>
      <point x="352" y="362"/>
      <point x="193" y="362"/>
      <point x="42" y="362" type="curve"/>
      <point x="42" y="271"/>
      <point x="42" y="362"/>
    </contour>
    <contour>
      <point x="137" y="569" type="curve"/>
      <point x="174" y="607"/>
      <point x="209" y="623"/>
      <point x="256" y="623" type="curve"/>
      <point x="307" y="623"/>
      <point x="348" y="610"/>
      <point x="348" y="571" type="curve"/>
      <point x="348" y="531"/>
      <point x="314" y="515"/>
      <point x="280" y="493" type="curve"/>
      <point x="200" y="448"/>
      <point x="121" y="406"/>
      <point x="42" y="362" type="curve"/>
      <point x="45" y="274"/>
      <point x="46" y="362"/>
      <point x="48" y="274" type="curve"/>
      <point x="167" y="335"/>
      <point x="260" y="376"/>
      <point x="343" y="423" type="curve"/>
      <point x="412" y="467"/>
      <point x="472" y="498"/>
      <point x="472" y="574" type="curve"/>
      <point x="472" y="676"/>
      <point x="383" y="715"/>
      <point x="271" y="715" type="curve"/>
      <point x="177" y="715"/>
      <point x="104" y="689"/>
      <point x="55" y="623" type="curve"/>
      <point x="137" y="569"/>
      <point x="55" y="623"/>
    </contour>
    <contour>
      <point x="261" y="714" type="move" name="_top"/>
    </contour>
    <contour>
      <point x="276" y="271" type="move" name="_bottom"/>
    </contour>
  </outline>
</glyph>
<glyph name="threesuperior" format="1">
  <advance width="487"/>
  <unicode hex="00B3"/>
  <outline>
    <contour>
      <point x="95" y="587" type="curve"/>
      <point x="133" y="615"/>
      <point x="176" y="625"/>
      <point x="209" y="625" type="curve"/>
      <point x="261" y="625"/>
      <point x="302" y="618"/>
      <point x="302" y="580" type="curve"/>
      <point x="302" y="534"/>
      <point x="225" y="533"/>
      <point x="157" y="531" type="curve"/>
      <point x="157" y="456"/>
      <point x="157" y="531"/>
      <point x="157" y="456" type="curve"/>
      <point x="298" y="457"/>
      <point x="426" y="467"/>
      <point x="426" y="586" type="curve"/>
      <point x="426" y="686"/>
      <point x="335" y="713"/>
      <point x="222" y="713" type="curve"/>
      <point x="155" y="713"/>
      <point x="92" y="691"/>
      <point x="42" y="652" type="curve"/>
      <point x="95" y="587"/>
      <point x="42" y="652"/>
    </contour>
    <contour>
      <point x="39" y="303" type="curve"/>
      <point x="92" y="279"/>
      <point x="142" y="264"/>
      <point x="199" y="264" type="curve"/>
      <point x="336" y="261"/>
      <point x="448" y="286"/>
      <point x="445" y="403" type="curve"/>
      <point x="445" y="531"/>
      <point x="304" y="520"/>
      <point x="157" y="522" type="curve"/>
      <point x="157" y="454"/>
      <point x="157" y="522"/>
      <point x="157" y="454" type="curve"/>
      <point x="240" y="452"/>
      <point x="321" y="454"/>
      <point x="321" y="403" type="curve"/>
      <point x="321" y="357"/>
      <point x="270" y="348"/>
      <point x="211" y="349" type="curve"/>
      <point x="173" y="349"/>
      <point x="136" y="357"/>
      <point x="87" y="374" type="curve"/>
      <point x="39" y="303"/>
      <point x="87" y="374"/>
    </contour>
    <contour>
      <point x="237" y="714" type="move" name="_top"/>
    </contour>
    <contour>
      <point x="223" y="264" type="move" name="_bottom"/>
    </contour>
  </outline>
</glyph>
<glyph name="paragraph" format="1">
  <advance width="922"/>
  <unicode hex="00B6"/>
  <outline>
    <contour>
      <point x="548" y="629" type="curve"/>
      <point x="737" y="629"/>
      <point x="548" y="629"/>
      <point x="737" y="629" type="curve"/>
      <point x="737" y="722"/>
      <point x="737" y="629"/>
      <point x="737" y="722" type="curve"/>
      <point x="674" y="722"/>
      <point x="610" y="722"/>
      <point x="548" y="722" type="curve"/>
      <point x="548" y="629"/>
      <point x="548" y="722"/>
    </contour>
    <contour>
      <point x="526" y="381" type="curve"/>
      <point x="463" y="357"/>
      <point x="414" y="345"/>
      <point x="346" y="345" type="curve"/>
      <point x="242" y="345"/>
      <point x="156" y="383"/>
      <point x="156" y="477" type="curve"/>
      <point x="156" y="592"/>
      <point x="264" y="629"/>
      <point x="394" y="629" type="curve"/>
      <point x="444" y="629"/>
      <point x="494" y="629"/>
      <point x="544" y="629" type="curve"/>
      <point x="544" y="722"/>
      <point x="544" y="629"/>
      <point x="544" y="722" type="curve"/>
      <point x="488" y="722"/>
      <point x="433" y="722"/>
      <point x="376" y="722" type="curve"/>
      <point x="186" y="722"/>
      <point x="31" y="653"/>
      <point x="31" y="482" type="curve"/>
      <point x="31" y="319"/>
      <point x="177" y="255"/>
      <point x="358" y="252" type="curve"/>
      <point x="433" y="252"/>
      <point x="496" y="271"/>
      <point x="566" y="297" type="curve"/>
      <point x="526" y="381"/>
      <point x="566" y="298"/>
    </contour>
    <contour>
      <point x="612" y="0" type="curve"/>
      <point x="612" y="241"/>
      <point x="612" y="481"/>
      <point x="612" y="722" type="curve"/>
      <point x="486" y="722"/>
      <point x="612" y="722"/>
      <point x="486" y="722" type="curve"/>
      <point x="486" y="481"/>
      <point x="486" y="241"/>
      <point x="486" y="0" type="curve"/>
      <point x="612" y="0"/>
      <point x="486" y="0"/>
    </contour>
    <contour>
      <point x="854" y="0" type="curve"/>
      <point x="854" y="241"/>
      <point x="854" y="481"/>
      <point x="854" y="722" type="curve"/>
      <point x="728" y="722"/>
      <point x="854" y="722"/>
      <point x="728" y="722" type="curve"/>
      <point x="728" y="481"/>
      <point x="728" y="241"/>
      <point x="728" y="0" type="curve"/>
      <point x="854" y="0"/>
      <point x="728" y="0"/>
    </contour>
  </outline>
</glyph>
<glyph name="periodcentered" format="1">
  <advance width="245"/>
  <unicode hex="00B7"/>
  <outline>
    <contour>
      <point x="197" y="440" type="curve"/>
      <point x="197" y="482"/>
      <point x="165" y="502"/>
      <point x="121" y="502" type="curve"/>
      <point x="78" y="502"/>
      <point x="48" y="479"/>
      <point x="48" y="440" type="curve"/>
      <point x="192" y="440"/>
      <point x="53" y="440"/>
      <point x="197" y="440" type="curve"/>
      <point x="197" y="398"/>
      <point x="165" y="379"/>
      <point x="120" y="379" type="curve"/>
      <point x="77" y="379"/>
      <point x="48" y="400"/>
      <point x="48" y="440" type="curve"/>
      <point x="192" y="440"/>
      <point x="53" y="440"/>
    </contour>
  </outline>
</glyph>
<glyph name="cedilla" format="1">
  <advance width="367"/>
  <unicode hex="00B8"/>
  <outline>
    <contour>
      <point x="172" y="141" type="curve"/>
      <point x="155" y="119"/>
      <point x="91" y="32"/>
      <point x="74" y="10" type="curve"/>
      <point x="159" y="-65"/>
      <point x="74" y="10"/>
      <point x="159" y="-65" type="curve"/>
      <point x="180" y="-38"/>
      <point x="249" y="50"/>
      <point x="269" y="77" type="curve"/>
      <point x="172" y="141"/>
      <point x="269" y="77"/>
    </contour>
    <contour>
      <point x="159" y="-65" type="curve"/>
      <point x="167" y="-60"/>
      <point x="175" y="-58"/>
      <point x="184" y="-58" type="curve"/>
      <point x="200" y="-58"/>
      <point x="213" y="-64"/>
      <point x="213" y="-79" type="curve"/>
      <point x="213" y="-99"/>
      <point x="193" y="-104"/>
      <point x="171" y="-104" type="curve"/>
      <point x="143" y="-104"/>
      <point x="119" y="-97"/>
      <point x="84" y="-83" type="curve"/>
      <point x="49" y="-154"/>
      <point x="84" y="-83"/>
      <point x="49" y="-154" type="curve"/>
      <point x="89" y="-171"/>
      <point x="121" y="-181"/>
      <point x="165" y="-181" type="curve"/>
      <point x="256" y="-181"/>
      <point x="328" y="-156"/>
      <point x="328" y="-75" type="curve"/>
      <point x="328" y="-3"/>
      <point x="269" y="32"/>
      <point x="191" y="32" type="curve"/>
      <point x="147" y="32"/>
      <point x="116" y="24"/>
      <point x="74" y="10" type="curve"/>
      <point x="159" y="-65"/>
      <point x="74" y="10"/>
    </contour>
    <contour>
      <point x="249" y="77" type="move" name="_bottom"/>
    </contour>
  </outline>
</glyph>
<glyph name="onesuperior" format="1">
  <advance width="345"/>
  <unicode hex="00B9"/>
  <outline>
    <contour>
      <point x="67" y="531" type="line"/>
      <point x="281" y="703" type="line"/>
      <point x="157" y="706" type="line"/>
      <point x="13" y="597" type="line"/>
    </contour>
    <contour>
      <point x="281" y="272" type="curve"/>
      <point x="281" y="706" type="line"/>
      <point x="157" y="706" type="line"/>
      <point x="157" y="272" type="line"/>
      <point x="251" y="272"/>
      <point x="203" y="272"/>
    </contour>
    <contour>
      <point x="211" y="704" type="move" name="_top"/>
    </contour>
    <contour>
      <point x="221" y="272" type="move" name="_bottom"/>
    </contour>
  </outline>
</glyph>
<glyph name="ordmasculine" format="1">
  <advance width="515"/>
  <unicode hex="00BA"/>
  <outline>
    <contour>
      <point x="125" y="604" type="curve"/>
      <point x="125" y="677"/>
      <point x="176" y="719"/>
      <point x="254" y="719" type="curve"/>
      <point x="337" y="719"/>
      <point x="391" y="678"/>
      <point x="391" y="603" type="curve"/>
      <point x="391" y="525"/>
      <point x="338" y="485"/>
      <point x="261" y="485" type="curve"/>
      <point x="180" y="485"/>
      <point x="125" y="525"/>
      <point x="125" y="604" type="curve"/>
      <point x="47" y="604"/>
      <point x="115" y="604"/>
      <point x="38" y="604" type="curve"/>
      <point x="38" y="480"/>
      <point x="129" y="420"/>
      <point x="258" y="420" type="curve"/>
      <point x="387" y="420"/>
      <point x="479" y="479"/>
      <point x="479" y="603" type="curve"/>
      <point x="479" y="722"/>
      <point x="389" y="784"/>
      <point x="258" y="784" type="curve"/>
      <point x="127" y="784"/>
      <point x="38" y="722"/>
      <point x="38" y="604" type="curve"/>
      <point x="115" y="604"/>
      <point x="47" y="604"/>
    </contour>
  </outline>
</glyph>
<glyph name="guillemotright" format="1">
  <advance width="662"/>
  <unicode hex="00BB"/>
  <outline>
    <contour>
      <point x="356" y="462" type="curve"/>
      <point x="409" y="436"/>
      <point x="569" y="363"/>
      <point x="623" y="337" type="curve"/>
      <point x="623" y="234"/>
      <point x="623" y="335"/>
      <point x="623" y="233" type="curve"/>
      <point x="569" y="259"/>
      <point x="409" y="333"/>
      <point x="356" y="359" type="curve"/>
      <point x="356" y="461"/>
      <point x="356" y="360"/>
    </contour>
    <contour>
      <point x="356" y="213" type="curve"/>
      <point x="409" y="238"/>
      <point x="569" y="310"/>
      <point x="623" y="337" type="curve"/>
      <point x="623" y="234"/>
      <point x="623" y="335"/>
      <point x="623" y="233" type="curve"/>
      <point x="569" y="207"/>
      <point x="409" y="136"/>
      <point x="356" y="109" type="curve"/>
      <point x="356" y="212"/>
      <point x="356" y="110"/>
    </contour>
    <contour>
      <point x="62" y="462" type="curve"/>
      <point x="116" y="436"/>
      <point x="276" y="363"/>
      <point x="329" y="337" type="curve"/>
      <point x="329" y="234"/>
      <point x="329" y="335"/>
      <point x="329" y="233" type="curve"/>
      <point x="276" y="259"/>
      <point x="116" y="333"/>
      <point x="62" y="359" type="curve"/>
      <point x="62" y="461"/>
      <point x="62" y="360"/>
    </contour>
    <contour>
      <point x="62" y="213" type="curve"/>
      <point x="116" y="238"/>
      <point x="276" y="310"/>
      <point x="329" y="337" type="curve"/>
      <point x="329" y="234"/>
      <point x="329" y="335"/>
      <point x="329" y="233" type="curve"/>
      <point x="276" y="207"/>
      <point x="116" y="136"/>
      <point x="62" y="109" type="curve"/>
      <point x="62" y="212"/>
      <point x="62" y="110"/>
    </contour>
  </outline>
</glyph>
<glyph name="onequarter" format="1">
  <advance width="1157"/>
  <unicode hex="00BC"/>
  <outline>
    <contour>
      <point x="376" y="-46" type="line"/>
      <point x="911" y="716" type="line"/>
      <point x="795" y="716" type="line"/>
      <point x="260" y="-46" type="line"/>
    </contour>
    <contour>
      <point x="78" y="543" type="line"/>
      <point x="292" y="716" type="line"/>
      <point x="168" y="718" type="line"/>
      <point x="24" y="610" type="line"/>
    </contour>
    <contour>
      <point x="292" y="284" type="curve"/>
      <point x="292" y="718" type="line"/>
      <point x="168" y="718" type="line"/>
      <point x="168" y="284" type="line"/>
      <point x="263" y="284"/>
      <point x="215" y="284"/>
    </contour>
    <contour>
      <point x="1124" y="168" type="line"/>
      <point x="663" y="168" type="line"/>
      <point x="663" y="81" type="line"/>
      <point x="1124" y="81" type="line"/>
    </contour>
    <contour>
      <point x="691" y="92" type="line"/>
      <point x="1001" y="389" type="line"/>
      <point x="904" y="403" type="line"/>
      <point x="663" y="168" type="line"/>
    </contour>
    <contour>
      <point x="1028" y="-52" type="line"/>
      <point x="1028" y="403" type="line"/>
      <point x="904" y="403" type="line"/>
      <point x="904" y="-52" type="line"/>
    </contour>
  </outline>
</glyph>
<glyph name="onehalf" format="1">
  <advance width="1220"/>
  <unicode hex="00BD"/>
  <outline>
    <contour>
      <point x="379" y="-46" type="line"/>
      <point x="914" y="716" type="line"/>
      <point x="798" y="716" type="line"/>
      <point x="264" y="-46" type="line"/>
    </contour>
    <contour>
      <point x="78" y="543" type="line"/>
      <point x="292" y="716" type="line"/>
      <point x="168" y="718" type="line"/>
      <point x="24" y="610" type="line"/>
    </contour>
    <contour>
      <point x="292" y="284" type="curve"/>
      <point x="292" y="718" type="line"/>
      <point x="168" y="718" type="line"/>
      <point x="168" y="284" type="line"/>
      <point x="263" y="284"/>
      <point x="215" y="284"/>
    </contour>
    <contour>
      <point x="723" y="-52" type="curve"/>
      <point x="911" y="-52"/>
      <point x="1048" y="-52"/>
      <point x="1184" y="-52" type="curve"/>
      <point x="1184" y="-2"/>
      <point x="1184" y="0"/>
      <point x="1184" y="40" type="curve"/>
      <point x="1033" y="40"/>
      <point x="874" y="40"/>
      <point x="723" y="40" type="curve"/>
      <point x="723" y="-52"/>
      <point x="723" y="40"/>
    </contour>
    <contour>
      <point x="818" y="246" type="curve"/>
      <point x="855" y="284"/>
      <point x="890" y="301"/>
      <point x="937" y="301" type="curve"/>
      <point x="988" y="301"/>
      <point x="1029" y="287"/>
      <point x="1029" y="248" type="curve"/>
      <point x="1029" y="208"/>
      <point x="995" y="192"/>
      <point x="961" y="170" type="curve"/>
      <point x="881" y="125"/>
      <point x="802" y="83"/>
      <point x="723" y="40" type="curve"/>
      <point x="726" y="-49"/>
      <point x="727" y="40"/>
      <point x="729" y="-49" type="curve"/>
      <point x="848" y="12"/>
      <point x="941" y="53"/>
      <point x="1024" y="100" type="curve"/>
      <point x="1093" y="144"/>
      <point x="1153" y="175"/>
      <point x="1153" y="252" type="curve"/>
      <point x="1153" y="354"/>
      <point x="1064" y="392"/>
      <point x="952" y="392" type="curve"/>
      <point x="858" y="392"/>
      <point x="785" y="366"/>
      <point x="736" y="300" type="curve"/>
      <point x="818" y="246"/>
      <point x="736" y="300"/>
    </contour>
  </outline>
</glyph>
<glyph name="threequarters" format="1">
  <advance width="1153"/>
  <unicode hex="00BE"/>
  <outline>
    <contour>
      <point x="390" y="-46" type="line"/>
      <point x="925" y="716" type="line"/>
      <point x="809" y="716" type="line"/>
      <point x="274" y="-46" type="line"/>
    </contour>
    <contour>
      <point x="92" y="590" type="curve"/>
      <point x="130" y="618"/>
      <point x="172" y="628"/>
      <point x="205" y="628" type="curve"/>
      <point x="257" y="628"/>
      <point x="298" y="621"/>
      <point x="298" y="583" type="curve"/>
      <point x="298" y="536"/>
      <point x="221" y="536"/>
      <point x="153" y="534" type="curve"/>
      <point x="153" y="458"/>
      <point x="153" y="534"/>
      <point x="153" y="458" type="curve"/>
      <point x="294" y="460"/>
      <point x="422" y="470"/>
      <point x="422" y="589" type="curve"/>
      <point x="422" y="689"/>
      <point x="331" y="716"/>
      <point x="219" y="716" type="curve"/>
      <point x="151" y="716"/>
      <point x="88" y="694"/>
      <point x="39" y="655" type="curve"/>
      <point x="92" y="590"/>
      <point x="39" y="655"/>
    </contour>
    <contour>
      <point x="35" y="306" type="curve"/>
      <point x="88" y="282"/>
      <point x="138" y="267"/>
      <point x="195" y="267" type="curve"/>
      <point x="332" y="264"/>
      <point x="445" y="289"/>
      <point x="441" y="406" type="curve"/>
      <point x="441" y="534"/>
      <point x="300" y="522"/>
      <point x="153" y="525" type="curve"/>
      <point x="153" y="457"/>
      <point x="153" y="525"/>
      <point x="153" y="457" type="curve"/>
      <point x="236" y="455"/>
      <point x="318" y="457"/>
      <point x="318" y="406" type="curve"/>
      <point x="318" y="360"/>
      <point x="266" y="351"/>
      <point x="207" y="352" type="curve"/>
      <point x="169" y="352"/>
      <point x="133" y="359"/>
      <point x="83" y="377" type="curve"/>
      <point x="35" y="306"/>
      <point x="83" y="377"/>
    </contour>
    <contour>
      <point x="1125" y="168" type="line"/>
      <point x="664" y="168" type="line"/>
      <point x="664" y="81" type="line"/>
      <point x="1125" y="81" type="line"/>
    </contour>
    <contour>
      <point x="692" y="92" type="line"/>
      <point x="1002" y="389" type="line"/>
      <point x="905" y="403" type="line"/>
      <point x="664" y="168" type="line"/>
    </contour>
    <contour>
      <point x="1029" y="-52" type="line"/>
      <point x="1029" y="403" type="line"/>
      <point x="905" y="403" type="line"/>
      <point x="905" y="-52" type="line"/>
    </contour>
  </outline>
</glyph>
<glyph name="questiondown" format="1">
  <advance width="611"/>
  <unicode hex="00BF"/>
  <outline>
    <contour>
      <point x="399" y="333" type="curve"/>
      <point x="399" y="370"/>
      <point x="399" y="446"/>
      <point x="399" y="483" type="curve"/>
      <point x="274" y="483"/>
      <point x="399" y="483"/>
      <point x="274" y="483" type="curve"/>
      <point x="274" y="446"/>
      <point x="274" y="370"/>
      <point x="274" y="333" type="curve"/>
      <point x="399" y="333"/>
      <point x="274" y="333"/>
    </contour>
    <contour>
      <point x="505" y="127" type="line"/>
      <point x="465" y="89"/>
      <point x="400" y="56"/>
      <point x="328" y="56" type="curve"/>
      <point x="231" y="56"/>
      <point x="155" y="95"/>
      <point x="155" y="186" type="curve"/>
      <point x="155" y="287"/>
      <point x="256" y="333"/>
      <point x="385" y="333" type="curve"/>
      <point x="385" y="368"/>
      <point x="385" y="392"/>
      <point x="385" y="426" type="curve"/>
      <point x="187" y="426"/>
      <point x="35" y="348"/>
      <point x="35" y="186" type="curve"/>
      <point x="35" y="34"/>
      <point x="159" y="-40"/>
      <point x="321" y="-40" type="curve"/>
      <point x="422" y="-40"/>
      <point x="501" y="-8"/>
      <point x="570" y="55" type="curve"/>
    </contour>
    <contour>
      <point x="261" y="685" type="curve"/>
      <point x="261" y="644"/>
      <point x="293" y="624"/>
      <point x="336" y="624" type="curve"/>
      <point x="379" y="624"/>
      <point x="408" y="646"/>
      <point x="408" y="685" type="curve"/>
      <point x="261" y="685"/>
      <point x="408" y="685"/>
      <point x="261" y="685" type="curve"/>
      <point x="261" y="727"/>
      <point x="293" y="745"/>
      <point x="336" y="745" type="curve"/>
      <point x="379" y="745"/>
      <point x="408" y="725"/>
      <point x="408" y="685" type="curve"/>
      <point x="261" y="685"/>
      <point x="408" y="685"/>
    </contour>
  </outline>
</glyph>
<glyph name="Atilde" format="1">
  <advance width="860"/>
  <unicode hex="00C3"/>
  <outline>
    <contour>
      <point x="638" y="306" type="curve"/>
      <point x="503" y="306"/>
      <point x="368" y="306"/>
      <point x="234" y="306" type="curve"/>
      <point x="182" y="207"/>
      <point x="234" y="306"/>
      <point x="182" y="207" type="curve"/>
      <point x="347" y="207"/>
      <point x="513" y="207"/>
      <point x="678" y="207" type="curve"/>
      <point x="638" y="306"/>
      <point x="678" y="207"/>
    </contour>
    <contour>
      <point x="847" y="0" type="curve"/>
      <point x="734" y="242"/>
      <point x="615" y="480"/>
      <point x="501" y="722" type="curve"/>
      <point x="387" y="722"/>
      <point x="501" y="722"/>
      <point x="387" y="722" type="curve"/>
      <point x="498" y="482"/>
      <point x="604" y="240"/>
      <point x="715" y="0" type="curve"/>
      <point x="847" y="0"/>
      <point x="715" y="0"/>
    </contour>
    <contour>
      <point x="134" y="0" type="curve"/>
      <point x="259" y="240"/>
      <point x="375" y="482"/>
      <point x="500" y="722" type="curve"/>
      <point x="385" y="722"/>
      <point x="500" y="722"/>
      <point x="385" y="722" type="curve"/>
      <point x="258" y="480"/>
      <point x="124" y="242"/>
      <point x="-3" y="0" type="curve"/>
      <point x="134" y="0"/>
      <point x="-3" y="0"/>
    </contour>
    <contour>
      <point x="621" y="957" type="curve"/>
      <point x="608" y="916"/>
      <point x="587" y="880"/>
      <point x="552" y="880" type="curve"/>
      <point x="513" y="880"/>
      <point x="490" y="891"/>
      <point x="461" y="915" type="curve"/>
      <point x="418" y="949"/>
      <point x="385" y="964"/>
      <point x="331" y="964" type="curve"/>
      <point x="247" y="964"/>
      <point x="197" y="916"/>
      <point x="164" y="830" type="curve"/>
      <point x="258" y="786"/>
      <point x="165" y="829"/>
      <point x="258" y="786" type="curve"/>
      <point x="276" y="834"/>
      <point x="299" y="864"/>
      <point x="336" y="864" type="curve"/>
      <point x="372" y="864"/>
      <point x="392" y="850"/>
      <point x="419" y="829" type="curve"/>
      <point x="466" y="793"/>
      <point x="499" y="780"/>
      <point x="555" y="780" type="curve"/>
      <point x="642" y="780"/>
      <point x="690" y="832"/>
      <point x="720" y="915" type="curve"/>
      <point x="622" y="957"/>
      <point x="719" y="914"/>
    </contour>
  </outline>
</glyph>
<glyph name="Adieresis" format="1">
  <advance width="860"/>
  <unicode hex="00C4"/>
  <outline>
    <contour>
      <point x="638" y="306" type="curve"/>
      <point x="503" y="306"/>
      <point x="368" y="306"/>
      <point x="234" y="306" type="curve"/>
      <point x="182" y="207"/>
      <point x="234" y="306"/>
      <point x="182" y="207" type="curve"/>
      <point x="347" y="207"/>
      <point x="513" y="207"/>
      <point x="678" y="207" type="curve"/>
      <point x="638" y="306"/>
      <point x="678" y="207"/>
    </contour>
    <contour>
      <point x="847" y="0" type="curve"/>
      <point x="734" y="242"/>
      <point x="615" y="480"/>
      <point x="501" y="722" type="curve"/>
      <point x="387" y="722"/>
      <point x="501" y="722"/>
      <point x="387" y="722" type="curve"/>
      <point x="498" y="482"/>
      <point x="604" y="240"/>
      <point x="715" y="0" type="curve"/>
      <point x="847" y="0"/>
      <point x="715" y="0"/>
    </contour>
    <contour>
      <point x="134" y="0" type="curve"/>
      <point x="259" y="240"/>
      <point x="375" y="482"/>
      <point x="500" y="722" type="curve"/>
      <point x="385" y="722"/>
      <point x="500" y="722"/>
      <point x="385" y="722" type="curve"/>
      <point x="258" y="480"/>
      <point x="124" y="242"/>
      <point x="-3" y="0" type="curve"/>
      <point x="134" y="0"/>
      <point x="-3" y="0"/>
    </contour>
    <contour>
      <point x="409" y="849" type="curve"/>
      <point x="409" y="891"/>
      <point x="376" y="911"/>
      <point x="333" y="911" type="curve"/>
      <point x="289" y="911"/>
      <point x="260" y="889"/>
      <point x="260" y="849" type="curve"/>
      <point x="403" y="849"/>
      <point x="265" y="849"/>
      <point x="409" y="849" type="curve"/>
      <point x="409" y="807"/>
      <point x="376" y="788"/>
      <point x="332" y="788" type="curve"/>
      <point x="289" y="788"/>
      <point x="260" y="809"/>
      <point x="260" y="849" type="curve"/>
      <point x="403" y="849"/>
      <point x="265" y="849"/>
    </contour>
    <contour>
      <point x="625" y="849" type="curve"/>
      <point x="625" y="891"/>
      <point x="593" y="911"/>
      <point x="549" y="911" type="curve"/>
      <point x="506" y="911"/>
      <point x="476" y="889"/>
      <point x="476" y="849" type="curve"/>
      <point x="620" y="849"/>
      <point x="482" y="849"/>
      <point x="625" y="849" type="curve"/>
      <point x="625" y="807"/>
      <point x="593" y="788"/>
      <point x="549" y="788" type="curve"/>
      <point x="505" y="788"/>
      <point x="476" y="809"/>
      <point x="476" y="849" type="curve"/>
      <point x="620" y="849"/>
      <point x="482" y="849"/>
    </contour>
  </outline>
</glyph>
<glyph name="Aring" format="1">
  <advance width="860"/>
  <unicode hex="00C5"/>
  <outline>
    <contour>
      <point x="638" y="306" type="curve"/>
      <point x="503" y="306"/>
      <point x="368" y="306"/>
      <point x="234" y="306" type="curve"/>
      <point x="182" y="207"/>
      <point x="234" y="306"/>
      <point x="182" y="207" type="curve"/>
      <point x="347" y="207"/>
      <point x="513" y="207"/>
      <point x="678" y="207" type="curve"/>
      <point x="638" y="306"/>
      <point x="678" y="207"/>
    </contour>
    <contour>
      <point x="847" y="0" type="curve"/>
      <point x="734" y="242"/>
      <point x="615" y="480"/>
      <point x="501" y="722" type="curve"/>
      <point x="387" y="722"/>
      <point x="501" y="722"/>
      <point x="387" y="722" type="curve"/>
      <point x="498" y="482"/>
      <point x="604" y="240"/>
      <point x="715" y="0" type="curve"/>
      <point x="847" y="0"/>
      <point x="715" y="0"/>
    </contour>
    <contour>
      <point x="134" y="0" type="curve"/>
      <point x="259" y="240"/>
      <point x="375" y="482"/>
      <point x="500" y="722" type="curve"/>
      <point x="385" y="722"/>
      <point x="500" y="722"/>
      <point x="385" y="722" type="curve"/>
      <point x="258" y="480"/>
      <point x="124" y="242"/>
      <point x="-3" y="0" type="curve"/>
      <point x="134" y="0"/>
      <point x="-3" y="0"/>
    </contour>
    <contour>
      <point x="256" y="929" type="curve"/>
      <point x="256" y="832"/>
      <point x="337" y="788"/>
      <point x="443" y="788" type="curve"/>
      <point x="552" y="788"/>
      <point x="635" y="831"/>
      <point x="635" y="929" type="curve"/>
      <point x="635" y="1029"/>
      <point x="551" y="1071"/>
      <point x="441" y="1071" type="curve"/>
      <point x="335" y="1071"/>
      <point x="256" y="1027"/>
      <point x="256" y="929" type="curve"/>
      <point x="362" y="929"/>
      <point x="255" y="929"/>
      <point x="361" y="929" type="curve"/>
      <point x="361" y="975"/>
      <point x="396" y="992"/>
      <point x="441" y="992" type="curve"/>
      <point x="490" y="992"/>
      <point x="529" y="979"/>
      <point x="529" y="929" type="curve"/>
      <point x="529" y="883"/>
      <point x="491" y="867"/>
      <point x="443" y="867" type="curve"/>
      <point x="397" y="867"/>
      <point x="361" y="883"/>
      <point x="361" y="929" type="curve"/>
      <point x="255" y="929"/>
      <point x="362" y="929"/>
    </contour>
  </outline>
</glyph>
<glyph name="AE" format="1">
  <advance width="1150"/>
  <unicode hex="00C6"/>
  <outline>
    <contour>
      <point x="544" y="282" type="curve"/>
      <point x="409" y="282"/>
      <point x="361" y="282"/>
      <point x="226" y="282" type="curve"/>
      <point x="175" y="184"/>
      <point x="226" y="282"/>
      <point x="175" y="184" type="curve"/>
      <point x="340" y="184"/>
      <point x="419" y="184"/>
      <point x="584" y="184" type="curve"/>
      <point x="544" y="282"/>
      <point x="584" y="184"/>
    </contour>
    <contour>
      <point x="126" y="0" type="curve"/>
      <point x="640" y="722" type="line"/>
      <point x="525" y="722"/>
      <point x="639" y="722"/>
      <point x="524" y="722" type="curve"/>
      <point x="-12" y="0" type="line"/>
      <point x="125" y="0"/>
      <point x="-11" y="0"/>
    </contour>
    <contour>
      <point x="594" y="326" type="curve"/>
      <point x="731" y="326"/>
      <point x="868" y="326"/>
      <point x="1005" y="326" type="curve"/>
      <point x="1005" y="420"/>
      <point x="1005" y="326"/>
      <point x="1005" y="420" type="curve"/>
      <point x="868" y="420"/>
      <point x="731" y="420"/>
      <point x="594" y="420" type="curve"/>
      <point x="594" y="326"/>
      <point x="594" y="420"/>
    </contour>
    <contour>
      <point x="575" y="629" type="curve"/>
      <point x="745" y="629"/>
      <point x="914" y="629"/>
      <point x="1084" y="629" type="curve"/>
      <point x="1084" y="722"/>
      <point x="1084" y="629"/>
      <point x="1084" y="722" type="curve"/>
      <point x="914" y="722"/>
      <point x="745" y="722"/>
      <point x="575" y="722" type="curve"/>
      <point x="575" y="629"/>
      <point x="575" y="722"/>
    </contour>
    <contour>
      <point x="651" y="0" type="curve"/>
      <point x="651" y="722" type="line"/>
      <point x="525" y="722"/>
      <point x="651" y="722"/>
      <point x="525" y="722" type="curve"/>
      <point x="525" y="481"/>
      <point x="525" y="241"/>
      <point x="525" y="0" type="curve"/>
      <point x="651" y="0"/>
      <point x="525" y="0"/>
    </contour>
    <contour>
      <point x="575" y="0" type="curve"/>
      <point x="759" y="0"/>
      <point x="942" y="0"/>
      <point x="1127" y="0" type="curve"/>
      <point x="1127" y="93"/>
      <point x="1127" y="0"/>
      <point x="1127" y="93" type="curve"/>
      <point x="942" y="93"/>
      <point x="759" y="93"/>
      <point x="575" y="93" type="curve"/>
      <point x="575" y="0"/>
      <point x="575" y="93"/>
    </contour>
  </outline>
</glyph>
<glyph name="Ccedilla" format="1">
  <advance width="826"/>
  <unicode hex="00C7"/>
  <outline>
    <contour>
      <point x="806" y="654" type="curve"/>
      <point x="711" y="696"/>
      <point x="611" y="727"/>
      <point x="499" y="727" type="curve"/>
      <point x="230" y="727"/>
      <point x="45" y="601"/>
      <point x="45" y="344" type="curve"/>
      <point x="45" y="107"/>
      <point x="217" y="-5"/>
      <point x="468" y="-5" type="curve"/>
      <point x="615" y="-5"/>
      <point x="706" y="23"/>
      <point x="813" y="90" type="curve"/>
      <point x="763" y="171"/>
      <point x="812" y="90"/>
      <point x="762" y="171" type="curve"/>
      <point x="660" y="113"/>
      <point x="583" y="94"/>
      <point x="473" y="94" type="curve"/>
      <point x="292" y="94"/>
      <point x="171" y="177"/>
      <point x="171" y="349" type="curve"/>
      <point x="171" y="534"/>
      <point x="300" y="630"/>
      <point x="493" y="630" type="curve"/>
      <point x="582" y="630"/>
      <point x="663" y="614"/>
      <point x="755" y="574" type="curve"/>
      <point x="806" y="654"/>
      <point x="755" y="574"/>
    </contour>
    <contour>
      <point x="421" y="69" type="curve"/>
      <point x="404" y="46"/>
      <point x="340" y="-40"/>
      <point x="323" y="-62" type="curve"/>
      <point x="408" y="-137"/>
      <point x="323" y="-62"/>
      <point x="408" y="-137" type="curve"/>
      <point x="429" y="-111"/>
      <point x="498" y="-22"/>
      <point x="518" y="5" type="curve"/>
      <point x="421" y="69"/>
      <point x="518" y="5"/>
    </contour>
    <contour>
      <point x="408" y="-137" type="curve"/>
      <point x="416" y="-132"/>
      <point x="423" y="-130"/>
      <point x="433" y="-130" type="curve"/>
      <point x="449" y="-130"/>
      <point x="461" y="-136"/>
      <point x="461" y="-151" type="curve"/>
      <point x="461" y="-171"/>
      <point x="442" y="-176"/>
      <point x="419" y="-176" type="curve"/>
      <point x="391" y="-176"/>
      <point x="368" y="-169"/>
      <point x="333" y="-155" type="curve"/>
      <point x="297" y="-227"/>
      <point x="333" y="-155"/>
      <point x="297" y="-227" type="curve"/>
      <point x="338" y="-243"/>
      <point x="370" y="-253"/>
      <point x="414" y="-253" type="curve"/>
      <point x="505" y="-253"/>
      <point x="577" y="-228"/>
      <point x="577" y="-148" type="curve"/>
      <point x="577" y="-75"/>
      <point x="518" y="-40"/>
      <point x="440" y="-40" type="curve"/>
      <point x="396" y="-40"/>
      <point x="365" y="-48"/>
      <point x="323" y="-63" type="curve"/>
      <point x="408" y="-137"/>
      <point x="323" y="-63"/>
    </contour>
  </outline>
</glyph>
<glyph name="Egrave" format="1">
  <advance width="707"/>
  <unicode hex="00C8"/>
  <outline>
    <contour>
      <point x="151" y="326" type="curve"/>
      <point x="288" y="326"/>
      <point x="425" y="326"/>
      <point x="562" y="326" type="curve"/>
      <point x="562" y="420"/>
      <point x="562" y="326"/>
      <point x="562" y="420" type="curve"/>
      <point x="425" y="420"/>
      <point x="288" y="420"/>
      <point x="151" y="420" type="curve"/>
      <point x="151" y="326"/>
      <point x="151" y="420"/>
    </contour>
    <contour>
      <point x="132" y="629" type="curve"/>
      <point x="302" y="629"/>
      <point x="471" y="629"/>
      <point x="641" y="629" type="curve"/>
      <point x="641" y="722"/>
      <point x="641" y="629"/>
      <point x="641" y="722" type="curve"/>
      <point x="471" y="722"/>
      <point x="302" y="722"/>
      <point x="132" y="722" type="curve"/>
      <point x="132" y="629"/>
      <point x="132" y="722"/>
    </contour>
    <contour>
      <point x="208" y="0" type="curve"/>
      <point x="208" y="722" type="line"/>
      <point x="82" y="722"/>
      <point x="208" y="722"/>
      <point x="82" y="722" type="curve"/>
      <point x="82" y="481"/>
      <point x="82" y="241"/>
      <point x="82" y="0" type="curve"/>
      <point x="208" y="0"/>
      <point x="82" y="0"/>
    </contour>
    <contour>
      <point x="132" y="0" type="curve"/>
      <point x="316" y="0"/>
      <point x="499" y="0"/>
      <point x="684" y="0" type="curve"/>
      <point x="684" y="93"/>
      <point x="684" y="0"/>
      <point x="684" y="93" type="curve"/>
      <point x="499" y="93"/>
      <point x="316" y="93"/>
      <point x="132" y="93" type="curve"/>
      <point x="132" y="0"/>
      <point x="132" y="93"/>
    </contour>
    <contour>
      <point x="404" y="790" type="line"/>
      <point x="254" y="956" type="line"/>
      <point x="89" y="956" type="line"/>
      <point x="276" y="790" type="line"/>
    </contour>
  </outline>
</glyph>
<glyph name="Eacute" format="1">
  <advance width="705"/>
  <unicode hex="00C9"/>
  <outline>
    <contour>
      <point x="149" y="326" type="curve"/>
      <point x="286" y="326"/>
      <point x="423" y="326"/>
      <point x="560" y="326" type="curve"/>
      <point x="560" y="420"/>
      <point x="560" y="326"/>
      <point x="560" y="420" type="curve"/>
      <point x="423" y="420"/>
      <point x="286" y="420"/>
      <point x="149" y="420" type="curve"/>
      <point x="149" y="326"/>
      <point x="149" y="420"/>
    </contour>
    <contour>
      <point x="130" y="629" type="curve"/>
      <point x="300" y="629"/>
      <point x="469" y="629"/>
      <point x="639" y="629" type="curve"/>
      <point x="639" y="722"/>
      <point x="639" y="629"/>
      <point x="639" y="722" type="curve"/>
      <point x="469" y="722"/>
      <point x="300" y="722"/>
      <point x="130" y="722" type="curve"/>
      <point x="130" y="629"/>
      <point x="130" y="722"/>
    </contour>
    <contour>
      <point x="206" y="0" type="curve"/>
      <point x="206" y="722" type="line"/>
      <point x="80" y="722"/>
      <point x="206" y="722"/>
      <point x="80" y="722" type="curve"/>
      <point x="80" y="481"/>
      <point x="80" y="241"/>
      <point x="80" y="0" type="curve"/>
      <point x="206" y="0"/>
      <point x="80" y="0"/>
    </contour>
    <contour>
      <point x="130" y="0" type="curve"/>
      <point x="314" y="0"/>
      <point x="497" y="0"/>
      <point x="682" y="0" type="curve"/>
      <point x="682" y="93"/>
      <point x="682" y="0"/>
      <point x="682" y="93" type="curve"/>
      <point x="497" y="93"/>
      <point x="314" y="93"/>
      <point x="130" y="93" type="curve"/>
      <point x="130" y="0"/>
      <point x="130" y="93"/>
    </contour>
    <contour>
      <point x="380" y="790" type="line"/>
      <point x="567" y="956" type="line"/>
      <point x="402" y="956" type="line"/>
      <point x="255" y="790" type="line"/>
    </contour>
  </outline>
</glyph>
<glyph name="Ecircumflex" format="1">
  <advance width="675"/>
  <unicode hex="00CA"/>
  <outline>
    <contour>
      <point x="130" y="326" type="curve"/>
      <point x="266" y="326"/>
      <point x="404" y="326"/>
      <point x="541" y="326" type="curve"/>
      <point x="541" y="420"/>
      <point x="541" y="326"/>
      <point x="541" y="420" type="curve"/>
      <point x="404" y="420"/>
      <point x="266" y="420"/>
      <point x="130" y="420" type="curve"/>
      <point x="130" y="326"/>
      <point x="130" y="420"/>
    </contour>
    <contour>
      <point x="110" y="629" type="curve"/>
      <point x="280" y="629"/>
      <point x="450" y="629"/>
      <point x="620" y="629" type="curve"/>
      <point x="620" y="722"/>
      <point x="620" y="629"/>
      <point x="620" y="722" type="curve"/>
      <point x="450" y="722"/>
      <point x="280" y="722"/>
      <point x="110" y="722" type="curve"/>
      <point x="110" y="629"/>
      <point x="110" y="722"/>
    </contour>
    <contour>
      <point x="186" y="0" type="curve"/>
      <point x="186" y="722" type="line"/>
      <point x="60" y="722"/>
      <point x="186" y="722"/>
      <point x="60" y="722" type="curve"/>
      <point x="60" y="481"/>
      <point x="60" y="241"/>
      <point x="60" y="0" type="curve"/>
      <point x="186" y="0"/>
      <point x="60" y="0"/>
    </contour>
    <contour>
      <point x="110" y="0" type="curve"/>
      <point x="294" y="0"/>
      <point x="478" y="0"/>
      <point x="662" y="0" type="curve"/>
      <point x="662" y="93"/>
      <point x="662" y="0"/>
      <point x="662" y="93" type="curve"/>
      <point x="478" y="93"/>
      <point x="294" y="93"/>
      <point x="110" y="93" type="curve"/>
      <point x="110" y="0"/>
      <point x="110" y="93"/>
    </contour>
    <contour>
      <point x="184" y="792" type="line"/>
      <point x="371" y="958" type="line"/>
      <point x="206" y="958" type="line"/>
      <point x="59" y="792" type="line"/>
    </contour>
    <contour>
      <point x="561" y="792" type="line"/>
      <point x="411" y="958" type="line"/>
      <point x="246" y="958" type="line"/>
      <point x="432" y="792" type="line"/>
    </contour>
  </outline>
</glyph>
<glyph name="Edieresis" format="1">
  <advance width="703"/>
  <unicode hex="00CB"/>
  <outline>
    <contour>
      <point x="147" y="326" type="curve"/>
      <point x="284" y="326"/>
      <point x="421" y="326"/>
      <point x="559" y="326" type="curve"/>
      <point x="559" y="420"/>
      <point x="559" y="326"/>
      <point x="559" y="420" type="curve"/>
      <point x="421" y="420"/>
      <point x="284" y="420"/>
      <point x="147" y="420" type="curve"/>
      <point x="147" y="326"/>
      <point x="147" y="420"/>
    </contour>
    <contour>
      <point x="128" y="629" type="curve"/>
      <point x="298" y="629"/>
      <point x="468" y="629"/>
      <point x="638" y="629" type="curve"/>
      <point x="638" y="722"/>
      <point x="638" y="629"/>
      <point x="638" y="722" type="curve"/>
      <point x="468" y="722"/>
      <point x="298" y="722"/>
      <point x="128" y="722" type="curve"/>
      <point x="128" y="629"/>
      <point x="128" y="722"/>
    </contour>
    <contour>
      <point x="204" y="0" type="curve"/>
      <point x="204" y="722" type="line"/>
      <point x="78" y="722"/>
      <point x="204" y="722"/>
      <point x="78" y="722" type="curve"/>
      <point x="78" y="481"/>
      <point x="78" y="241"/>
      <point x="78" y="0" type="curve"/>
      <point x="204" y="0"/>
      <point x="78" y="0"/>
    </contour>
    <contour>
      <point x="128" y="0" type="curve"/>
      <point x="312" y="0"/>
      <point x="496" y="0"/>
      <point x="680" y="0" type="curve"/>
      <point x="680" y="93"/>
      <point x="680" y="0"/>
      <point x="680" y="93" type="curve"/>
      <point x="496" y="93"/>
      <point x="312" y="93"/>
      <point x="128" y="93" type="curve"/>
      <point x="128" y="0"/>
      <point x="128" y="93"/>
    </contour>
    <contour>
      <point x="293" y="849" type="curve"/>
      <point x="293" y="891"/>
      <point x="261" y="911"/>
      <point x="217" y="911" type="curve"/>
      <point x="174" y="911"/>
      <point x="144" y="889"/>
      <point x="144" y="849" type="curve"/>
      <point x="288" y="849"/>
      <point x="149" y="849"/>
      <point x="293" y="849" type="curve"/>
      <point x="293" y="807"/>
      <point x="261" y="788"/>
      <point x="217" y="788" type="curve"/>
      <point x="173" y="788"/>
      <point x="144" y="809"/>
      <point x="144" y="849" type="curve"/>
      <point x="288" y="849"/>
      <point x="149" y="849"/>
    </contour>
    <contour>
      <point x="510" y="849" type="curve"/>
      <point x="510" y="891"/>
      <point x="478" y="911"/>
      <point x="434" y="911" type="curve"/>
      <point x="391" y="911"/>
      <point x="361" y="889"/>
      <point x="361" y="849" type="curve"/>
      <point x="505" y="849"/>
      <point x="366" y="849"/>
      <point x="510" y="849" type="curve"/>
      <point x="510" y="807"/>
      <point x="478" y="788"/>
      <point x="433" y="788" type="curve"/>
      <point x="390" y="788"/>
      <point x="361" y="809"/>
      <point x="361" y="849" type="curve"/>
      <point x="505" y="849"/>
      <point x="366" y="849"/>
    </contour>
  </outline>
</glyph>
<glyph name="Igrave" format="1">
  <advance width="311"/>
  <unicode hex="00CC"/>
  <outline>
    <contour>
      <point x="221" y="0" type="curve"/>
      <point x="221" y="241"/>
      <point x="221" y="481"/>
      <point x="221" y="722" type="curve"/>
      <point x="95" y="722"/>
      <point x="221" y="722"/>
      <point x="95" y="722" type="curve"/>
      <point x="95" y="481"/>
      <point x="95" y="241"/>
      <point x="95" y="0" type="curve"/>
      <point x="221" y="0"/>
      <point x="95" y="0"/>
    </contour>
    <contour>
      <point x="232" y="790" type="line"/>
      <point x="82" y="956" type="line"/>
      <point x="-83" y="956" type="line"/>
      <point x="103" y="790" type="line"/>
    </contour>
  </outline>
</glyph>
<glyph name="Iacute" format="1">
  <advance width="315"/>
  <unicode hex="00CD"/>
  <outline>
    <contour>
      <point x="217" y="0" type="curve"/>
      <point x="217" y="241"/>
      <point x="217" y="481"/>
      <point x="217" y="722" type="curve"/>
      <point x="90" y="722"/>
      <point x="217" y="722"/>
      <point x="90" y="722" type="curve"/>
      <point x="90" y="481"/>
      <point x="90" y="241"/>
      <point x="90" y="0" type="curve"/>
      <point x="217" y="0"/>
      <point x="90" y="0"/>
    </contour>
    <contour>
      <point x="206" y="790" type="line"/>
      <point x="392" y="956" type="line"/>
      <point x="227" y="956" type="line"/>
      <point x="80" y="790" type="line"/>
    </contour>
  </outline>
</glyph>
<glyph name="Icircumflex" format="1">
  <advance width="337"/>
  <unicode hex="00CE"/>
  <outline>
    <contour>
      <point x="236" y="0" type="curve"/>
      <point x="236" y="241"/>
      <point x="236" y="481"/>
      <point x="236" y="722" type="curve"/>
      <point x="110" y="722"/>
      <point x="236" y="722"/>
      <point x="110" y="722" type="curve"/>
      <point x="110" y="481"/>
      <point x="110" y="241"/>
      <point x="110" y="0" type="curve"/>
      <point x="236" y="0"/>
      <point x="110" y="0"/>
    </contour>
    <contour>
      <point x="48" y="792" type="line"/>
      <point x="235" y="958" type="line"/>
      <point x="70" y="958" type="line"/>
      <point x="-77" y="792" type="line"/>
    </contour>
    <contour>
      <point x="425" y="792" type="line"/>
      <point x="275" y="958" type="line"/>
      <point x="110" y="958" type="line"/>
      <point x="297" y="792" type="line"/>
    </contour>
  </outline>
</glyph>
<glyph name="Idieresis" format="1">
  <advance width="325"/>
  <unicode hex="00CF"/>
  <outline>
    <contour>
      <point x="229" y="0" type="curve"/>
      <point x="229" y="241"/>
      <point x="229" y="481"/>
      <point x="229" y="722" type="curve"/>
      <point x="103" y="722"/>
      <point x="229" y="722"/>
      <point x="103" y="722" type="curve"/>
      <point x="103" y="481"/>
      <point x="103" y="241"/>
      <point x="103" y="0" type="curve"/>
      <point x="229" y="0"/>
      <point x="103" y="0"/>
    </contour>
    <contour>
      <point x="132" y="849" type="curve"/>
      <point x="132" y="891"/>
      <point x="100" y="911"/>
      <point x="56" y="911" type="curve"/>
      <point x="13" y="911"/>
      <point x="-17" y="889"/>
      <point x="-17" y="849" type="curve"/>
      <point x="127" y="849"/>
      <point x="-11" y="849"/>
      <point x="132" y="849" type="curve"/>
      <point x="132" y="807"/>
      <point x="100" y="788"/>
      <point x="56" y="788" type="curve"/>
      <point x="12" y="788"/>
      <point x="-17" y="809"/>
      <point x="-17" y="849" type="curve"/>
      <point x="127" y="849"/>
      <point x="-11" y="849"/>
    </contour>
    <contour>
      <point x="349" y="849" type="curve"/>
      <point x="349" y="891"/>
      <point x="317" y="911"/>
      <point x="273" y="911" type="curve"/>
      <point x="230" y="911"/>
      <point x="200" y="889"/>
      <point x="200" y="849" type="curve"/>
      <point x="344" y="849"/>
      <point x="205" y="849"/>
      <point x="349" y="849" type="curve"/>
      <point x="349" y="807"/>
      <point x="317" y="788"/>
      <point x="273" y="788" type="curve"/>
      <point x="229" y="788"/>
      <point x="200" y="809"/>
      <point x="200" y="849" type="curve"/>
      <point x="344" y="849"/>
      <point x="205" y="849"/>
    </contour>
  </outline>
</glyph>
<glyph name="Ntilde" format="1">
  <advance width="980"/>
  <unicode hex="00D1"/>
  <outline>
    <contour>
      <point x="897" y="0" type="curve"/>
      <point x="674" y="240"/>
      <point x="455" y="482"/>
      <point x="233" y="722" type="curve"/>
      <point x="80" y="722"/>
      <point x="232" y="722"/>
      <point x="80" y="722" type="curve"/>
      <point x="301" y="482"/>
      <point x="521" y="240"/>
      <point x="744" y="0" type="curve"/>
      <point x="896" y="0"/>
      <point x="745" y="0"/>
    </contour>
    <contour>
      <point x="775" y="722" type="curve"/>
      <point x="775" y="481"/>
      <point x="775" y="241"/>
      <point x="775" y="0" type="curve"/>
      <point x="901" y="0"/>
      <point x="775" y="0"/>
      <point x="901" y="0" type="curve"/>
      <point x="901" y="241"/>
      <point x="901" y="481"/>
      <point x="901" y="722" type="curve"/>
      <point x="775" y="722"/>
      <point x="901" y="722"/>
    </contour>
    <contour>
      <point x="205" y="0" type="curve"/>
      <point x="205" y="241"/>
      <point x="205" y="481"/>
      <point x="205" y="722" type="curve"/>
      <point x="80" y="722"/>
      <point x="205" y="722"/>
      <point x="80" y="722" type="curve"/>
      <point x="80" y="481"/>
      <point x="80" y="241"/>
      <point x="80" y="0" type="curve"/>
      <point x="205" y="0"/>
      <point x="80" y="0"/>
    </contour>
    <contour>
      <point x="670" y="957" type="curve"/>
      <point x="657" y="916"/>
      <point x="636" y="880"/>
      <point x="600" y="880" type="curve"/>
      <point x="562" y="880"/>
      <point x="539" y="891"/>
      <point x="509" y="915" type="curve"/>
      <point x="467" y="949"/>
      <point x="433" y="964"/>
      <point x="380" y="964" type="curve"/>
      <point x="295" y="964"/>
      <point x="245" y="916"/>
      <point x="212" y="830" type="curve"/>
      <point x="306" y="786"/>
      <point x="214" y="829"/>
      <point x="307" y="786" type="curve"/>
      <point x="325" y="834"/>
      <point x="348" y="864"/>
      <point x="384" y="864" type="curve"/>
      <point x="420" y="864"/>
      <point x="440" y="850"/>
      <point x="467" y="829" type="curve"/>
      <point x="514" y="793"/>
      <point x="547" y="780"/>
      <point x="603" y="780" type="curve"/>
      <point x="691" y="780"/>
      <point x="738" y="832"/>
      <point x="768" y="915" type="curve"/>
      <point x="670" y="957"/>
      <point x="767" y="914"/>
    </contour>
  </outline>
</glyph>
<glyph name="Oacute" format="1">
  <advance width="927"/>
  <unicode hex="00D3"/>
  <outline>
    <contour>
      <point x="171" y="360" type="curve" name="FullCurve"/>
      <point x="171" y="530"/>
      <point x="282" y="629"/>
      <point x="458" y="629" type="curve" name="FullCurve"/>
      <point x="638" y="629"/>
      <point x="757" y="534"/>
      <point x="757" y="363" type="curve" name="FullCurve"/>
      <point x="757" y="193"/>
      <point x="644" y="94"/>
      <point x="467" y="94" type="curve" name="FullCurve"/>
      <point x="287" y="94"/>
      <point x="171" y="189"/>
      <point x="171" y="360" type="curve" name="FullCurve"/>
      <point x="45" y="360"/>
      <point x="171" y="360"/>
      <point x="45" y="360" type="curve" name="FullCurve"/>
      <point x="45" y="123"/>
      <point x="213" y="-5"/>
      <point x="461" y="-5" type="curve" name="FullCurve"/>
      <point x="712" y="-5"/>
      <point x="882" y="125"/>
      <point x="882" y="363" type="curve" name="FullCurve"/>
      <point x="882" y="598"/>
      <point x="715" y="727"/>
      <point x="468" y="727" type="curve" name="FullCurve"/>
      <point x="216" y="727"/>
      <point x="45" y="598"/>
      <point x="45" y="360" type="curve" name="FullCurve"/>
      <point x="171" y="360"/>
      <point x="45" y="360"/>
    </contour>
    <contour>
      <point x="519" y="790" type="line"/>
      <point x="706" y="956" type="line"/>
      <point x="541" y="956" type="line"/>
      <point x="394" y="790" type="line"/>
    </contour>
  </outline>
</glyph>
<glyph name="Ocircumflex" format="1">
  <advance width="927"/>
  <unicode hex="00D4"/>
  <outline>
    <contour>
      <point x="171" y="360" type="curve" name="FullCurve"/>
      <point x="171" y="530"/>
      <point x="282" y="629"/>
      <point x="458" y="629" type="curve" name="FullCurve"/>
      <point x="638" y="629"/>
      <point x="757" y="534"/>
      <point x="757" y="363" type="curve" name="FullCurve"/>
      <point x="757" y="193"/>
      <point x="644" y="94"/>
      <point x="467" y="94" type="curve" name="FullCurve"/>
      <point x="287" y="94"/>
      <point x="171" y="189"/>
      <point x="171" y="360" type="curve" name="FullCurve"/>
      <point x="45" y="360"/>
      <point x="171" y="360"/>
      <point x="45" y="360" type="curve" name="FullCurve"/>
      <point x="45" y="123"/>
      <point x="213" y="-5"/>
      <point x="461" y="-5" type="curve" name="FullCurve"/>
      <point x="712" y="-5"/>
      <point x="882" y="125"/>
      <point x="882" y="363" type="curve" name="FullCurve"/>
      <point x="882" y="598"/>
      <point x="715" y="727"/>
      <point x="468" y="727" type="curve" name="FullCurve"/>
      <point x="216" y="727"/>
      <point x="45" y="598"/>
      <point x="45" y="360" type="curve" name="FullCurve"/>
      <point x="171" y="360"/>
      <point x="45" y="360"/>
    </contour>
    <contour>
      <point x="342" y="792" type="line"/>
      <point x="529" y="958" type="line"/>
      <point x="364" y="958" type="line"/>
      <point x="217" y="792" type="line"/>
    </contour>
    <contour>
      <point x="719" y="792" type="line"/>
      <point x="569" y="958" type="line"/>
      <point x="404" y="958" type="line"/>
      <point x="591" y="792" type="line"/>
    </contour>
  </outline>
</glyph>
<glyph name="Otilde" format="1">
  <advance width="927"/>
  <unicode hex="00D5"/>
  <outline>
    <contour>
      <point x="171" y="360" type="curve" name="FullCurve"/>
      <point x="171" y="530"/>
      <point x="282" y="629"/>
      <point x="458" y="629" type="curve" name="FullCurve"/>
      <point x="638" y="629"/>
      <point x="757" y="534"/>
      <point x="757" y="363" type="curve" name="FullCurve"/>
      <point x="757" y="193"/>
      <point x="644" y="94"/>
      <point x="467" y="94" type="curve" name="FullCurve"/>
      <point x="287" y="94"/>
      <point x="171" y="189"/>
      <point x="171" y="360" type="curve" name="FullCurve"/>
      <point x="45" y="360"/>
      <point x="171" y="360"/>
      <point x="45" y="360" type="curve" name="FullCurve"/>
      <point x="45" y="123"/>
      <point x="213" y="-5"/>
      <point x="461" y="-5" type="curve" name="FullCurve"/>
      <point x="712" y="-5"/>
      <point x="882" y="125"/>
      <point x="882" y="363" type="curve" name="FullCurve"/>
      <point x="882" y="598"/>
      <point x="715" y="727"/>
      <point x="468" y="727" type="curve" name="FullCurve"/>
      <point x="216" y="727"/>
      <point x="45" y="598"/>
      <point x="45" y="360" type="curve" name="FullCurve"/>
      <point x="171" y="360"/>
      <point x="45" y="360"/>
    </contour>
    <contour>
      <point x="647" y="957" type="curve"/>
      <point x="633" y="916"/>
      <point x="612" y="880"/>
      <point x="577" y="880" type="curve"/>
      <point x="539" y="880"/>
      <point x="516" y="891"/>
      <point x="486" y="915" type="curve"/>
      <point x="443" y="949"/>
      <point x="410" y="964"/>
      <point x="357" y="964" type="curve"/>
      <point x="272" y="964"/>
      <point x="222" y="916"/>
      <point x="189" y="830" type="curve"/>
      <point x="283" y="786"/>
      <point x="191" y="829"/>
      <point x="283" y="786" type="curve"/>
      <point x="301" y="834"/>
      <point x="324" y="864"/>
      <point x="361" y="864" type="curve"/>
      <point x="397" y="864"/>
      <point x="417" y="850"/>
      <point x="444" y="829" type="curve"/>
      <point x="491" y="793"/>
      <point x="524" y="780"/>
      <point x="580" y="780" type="curve"/>
      <point x="667" y="780"/>
      <point x="715" y="832"/>
      <point x="745" y="915" type="curve"/>
      <point x="647" y="957"/>
      <point x="744" y="914"/>
    </contour>
  </outline>
</glyph>
<glyph name="Odieresis" format="1">
  <advance width="927"/>
  <unicode hex="00D6"/>
  <outline>
    <contour>
      <point x="171" y="360" type="curve" name="FullCurve"/>
      <point x="171" y="530"/>
      <point x="282" y="629"/>
      <point x="458" y="629" type="curve" name="FullCurve"/>
      <point x="638" y="629"/>
      <point x="757" y="534"/>
      <point x="757" y="363" type="curve" name="FullCurve"/>
      <point x="757" y="193"/>
      <point x="644" y="94"/>
      <point x="467" y="94" type="curve" name="FullCurve"/>
      <point x="287" y="94"/>
      <point x="171" y="189"/>
      <point x="171" y="360" type="curve" name="FullCurve"/>
      <point x="45" y="360"/>
      <point x="171" y="360"/>
      <point x="45" y="360" type="curve" name="FullCurve"/>
      <point x="45" y="123"/>
      <point x="213" y="-5"/>
      <point x="461" y="-5" type="curve" name="FullCurve"/>
      <point x="712" y="-5"/>
      <point x="882" y="125"/>
      <point x="882" y="363" type="curve" name="FullCurve"/>
      <point x="882" y="598"/>
      <point x="715" y="727"/>
      <point x="468" y="727" type="curve" name="FullCurve"/>
      <point x="216" y="727"/>
      <point x="45" y="598"/>
      <point x="45" y="360" type="curve" name="FullCurve"/>
      <point x="171" y="360"/>
      <point x="45" y="360"/>
    </contour>
    <contour>
      <point x="434" y="849" type="curve"/>
      <point x="434" y="891"/>
      <point x="401" y="911"/>
      <point x="358" y="911" type="curve"/>
      <point x="314" y="911"/>
      <point x="285" y="889"/>
      <point x="285" y="849" type="curve"/>
      <point x="428" y="849"/>
      <point x="290" y="849"/>
      <point x="434" y="849" type="curve"/>
      <point x="434" y="807"/>
      <point x="402" y="788"/>
      <point x="357" y="788" type="curve"/>
      <point x="314" y="788"/>
      <point x="285" y="809"/>
      <point x="285" y="849" type="curve"/>
      <point x="428" y="849"/>
      <point x="290" y="849"/>
    </contour>
    <contour>
      <point x="650" y="849" type="curve"/>
      <point x="650" y="891"/>
      <point x="618" y="911"/>
      <point x="575" y="911" type="curve"/>
      <point x="531" y="911"/>
      <point x="501" y="889"/>
      <point x="501" y="849" type="curve"/>
      <point x="645" y="849"/>
      <point x="507" y="849"/>
      <point x="650" y="849" type="curve"/>
      <point x="650" y="807"/>
      <point x="618" y="788"/>
      <point x="574" y="788" type="curve"/>
      <point x="530" y="788"/>
      <point x="501" y="809"/>
      <point x="501" y="849" type="curve"/>
      <point x="645" y="849"/>
      <point x="507" y="849"/>
    </contour>
  </outline>
</glyph>
<glyph name="multiply" format="1">
  <advance width="601"/>
  <unicode hex="00D7"/>
  <outline>
    <contour>
      <point x="117" y="56" type="line"/>
      <point x="555" y="495" type="line"/>
      <point x="482" y="567" type="line"/>
      <point x="45" y="128" type="line"/>
    </contour>
    <contour>
      <point x="556" y="127" type="line"/>
      <point x="118" y="567" type="line"/>
      <point x="46" y="495" type="line"/>
      <point x="484" y="55" type="line"/>
    </contour>
  </outline>
</glyph>
<glyph name="Oslash" format="1">
  <advance width="927"/>
  <unicode hex="00D8"/>
  <outline>
    <contour>
      <point x="216" y="-70" type="line"/>
      <point x="785" y="738" type="line"/>
      <point x="702" y="786" type="line"/>
      <point x="143" y="-16" type="line"/>
    </contour>
    <contour>
      <point x="171" y="360" type="curve" name="FullCurve"/>
      <point x="171" y="530"/>
      <point x="282" y="629"/>
      <point x="458" y="629" type="curve" name="FullCurve"/>
      <point x="638" y="629"/>
      <point x="757" y="534"/>
      <point x="757" y="363" type="curve" name="FullCurve"/>
      <point x="757" y="193"/>
      <point x="644" y="94"/>
      <point x="467" y="94" type="curve" name="FullCurve"/>
      <point x="287" y="94"/>
      <point x="171" y="189"/>
      <point x="171" y="360" type="curve" name="FullCurve"/>
      <point x="45" y="360"/>
      <point x="171" y="360"/>
      <point x="45" y="360" type="curve" name="FullCurve"/>
      <point x="45" y="123"/>
      <point x="213" y="-5"/>
      <point x="461" y="-5" type="curve" name="FullCurve"/>
      <point x="712" y="-5"/>
      <point x="882" y="125"/>
      <point x="882" y="363" type="curve" name="FullCurve"/>
      <point x="882" y="598"/>
      <point x="715" y="727"/>
      <point x="468" y="727" type="curve" name="FullCurve"/>
      <point x="216" y="727"/>
      <point x="45" y="598"/>
      <point x="45" y="360" type="curve" name="FullCurve"/>
      <point x="171" y="360"/>
      <point x="45" y="360"/>
    </contour>
  </outline>
</glyph>
<glyph name="Udieresis" format="1">
  <advance width="890"/>
  <unicode hex="00DC"/>
  <outline>
    <contour>
      <point x="73" y="722" type="curve"/>
      <point x="73" y="578"/>
      <point x="73" y="423"/>
      <point x="73" y="279" type="curve"/>
      <point x="73" y="70"/>
      <point x="214" y="-5"/>
      <point x="443" y="-5" type="curve"/>
      <point x="675" y="-5"/>
      <point x="817" y="74"/>
      <point x="817" y="287" type="curve"/>
      <point x="817" y="429"/>
      <point x="817" y="581"/>
      <point x="817" y="722" type="curve"/>
      <point x="706" y="722"/>
      <point x="814" y="722"/>
      <point x="702" y="722" type="curve"/>
      <point x="702" y="574"/>
      <point x="702" y="424"/>
      <point x="702" y="276" type="curve"/>
      <point x="702" y="144"/>
      <point x="604" y="98"/>
      <point x="454" y="98" type="curve"/>
      <point x="290" y="98"/>
      <point x="187" y="147"/>
      <point x="187" y="296" type="curve"/>
      <point x="187" y="434"/>
      <point x="187" y="584"/>
      <point x="187" y="722" type="curve"/>
      <point x="76" y="722"/>
      <point x="184" y="722"/>
    </contour>
    <contour>
      <point x="414" y="849" type="curve"/>
      <point x="414" y="891"/>
      <point x="382" y="911"/>
      <point x="338" y="911" type="curve"/>
      <point x="295" y="911"/>
      <point x="265" y="889"/>
      <point x="265" y="849" type="curve"/>
      <point x="409" y="849"/>
      <point x="270" y="849"/>
      <point x="414" y="849" type="curve"/>
      <point x="414" y="807"/>
      <point x="382" y="788"/>
      <point x="338" y="788" type="curve"/>
      <point x="294" y="788"/>
      <point x="265" y="809"/>
      <point x="265" y="849" type="curve"/>
      <point x="409" y="849"/>
      <point x="270" y="849"/>
    </contour>
    <contour>
      <point x="631" y="849" type="curve"/>
      <point x="631" y="891"/>
      <point x="599" y="911"/>
      <point x="555" y="911" type="curve"/>
      <point x="512" y="911"/>
      <point x="482" y="889"/>
      <point x="482" y="849" type="curve"/>
      <point x="626" y="849"/>
      <point x="487" y="849"/>
      <point x="631" y="849" type="curve"/>
      <point x="631" y="807"/>
      <point x="599" y="788"/>
      <point x="554" y="788" type="curve"/>
      <point x="511" y="788"/>
      <point x="482" y="809"/>
      <point x="482" y="849" type="curve"/>
      <point x="626" y="849"/>
      <point x="487" y="849"/>
    </contour>
  </outline>
</glyph>
